
<svg id="glutton" xmlns="http://www.w3.org/2000/svg" viewBox="0 0 694.31 696.31">
  <path class="gltn-3" d="M348.15,6c46.19,0,91,9.05,133.18,26.89,40.74,17.23,77.33,41.9,108.76,73.33,31.42,31.42,56.1,68.02,73.33,108.76,17.84,42.18,26.89,86.99,26.89,133.18s-9.05,91-26.89,133.18c-17.23,40.74-41.9,77.33-73.33,108.76-31.42,31.42-68.02,56.1-108.76,73.33-42.18,17.84-86.99,26.89-133.18,26.89s-91-9.05-133.18-26.89c-40.74-17.23-77.33-41.9-108.76-73.33-31.42-31.42-56.1-68.02-73.33-108.76-17.84-42.18-26.89-86.99-26.89-133.18s9.05-91,26.89-133.18c17.23-40.74,41.9-77.33,73.33-108.76s68.02-56.1,108.76-73.33c42.18-17.84,86.99-26.89,133.18-26.89M348.15,2C156.98,2,2,156.98,2,348.15s154.98,346.15,346.15,346.15,346.15-154.98,346.15-346.15S539.33,2,348.15,2h0Z"/>
  <g id="oprnmouth">
    <path class="gltn-1" d="M91.88,578.98c18.95-6.44,17.46-28.87,16.73-33.43-.06-.46.33-.74.72-.51,5.32,2.99,32.65,21.22,30.79,36.06-1.2,9.34-5.67,10.61-9.19,10.02-.62-.1-.67.91-.06,1.24,5.93,3.33,24.45,2.17,33.54-11.84,13.04-19.72,39.84-24.79,41.02-25.19.02,0,.04-.01.06-.01.68-.08,12.17-2.26,13.39-22.73,1.13-18.59,24.84-38.42,29.61-42.58.37-.3.82.06.82.66.04,5.97,1.26,30.17,19.05,47.03,20.41,19.32,13.49,65.52,13.46,65.42.02-.07-4.02,19.74,24.38,33.41,27.89,13.01,31.29-23.02,31.4-24.38,0-.04,0-.07.01-.1.21-1.29,4.46-24.38,26.43-37.1,20.2-11.82,13.04-57.74,11.36-67.36-.12-.69.35-1.27.78-.96,6.28,4.81,37.76,28.37,41.36,48.64,3.98,22.69,3.3,49.07,26.05,57.49,20.81,7.56,29.11,25.55,30.37,28.6.11.26.33.37.56.29,2.88-.94,20.81-9.05,28.12-32.53,7.97-25.23-2.3-27.1,12.36-40.81,12.33-11.43,14.03-28.44,14.26-33.6.03-.59.59-.91.93-.53,4.61,5.61,24.95,27.44,21.07,45.36-4.1,21.86,51.42-.5,51.22-1.02"/>
    <path class="gltn-3" d="M311.33,450.16c1.02,2.85,1.77,5.8,2.1,8.81.17,1.57.24,3.15.21,4.74s-.37,3.04-.35,4.52c.02,1.01.15.54-.49,1.22-.48.5-1.14.9-1.68,1.33l-2.68,2.12,1.06-.44c-8.74.75-14.4-8.61-9.55-15.98l-2.74-1.16c-3.7,10.15-7.41,20.29-11.11,30.44-.37,1.01.56,1.8,1.45,1.9,5.03.55,10.27.44,15.05-1.41,4.19-1.63,7.63-4.54,10.39-8.04,6.02-7.63,8.66-17.64,15.68-24.51,3.34-3.27,7.83-5.45,12.58-5.25s8.29,3.07,9.24,7.55c.4,1.91.28,3.95-.39,5.79-.32.87-.85,2.03-1.54,2.67-.44.41-1.11.55-1.51.99-1,1.1-.91,3.87-.83,5.24.12,2.06.64,4.14,1.75,5.91,1.44,2.31,3.76,3.55,5.65,5.42,1.78,1.75,2.74,4.15,2.56,6.66-.38,5.31-6.82,8.68-11.1,5.02-.86-.74-2.15-.47-2.51.66-2.46,7.84-4.92,15.68-7.39,23.52-1.8,5.74-3.6,11.48-5.41,17.22-1.01,3.23-1.7,6.97-3.15,10.03s-6.07,2.8-8.23.8c-5.07-4.72-.63-11.92,4.55-14.07,1.21-.5,1.48-1.96.36-2.74l-4.76-3.32-.76,2.8c4.83-.59,7.18,5.3,8.45,9,1.68,4.87,2.55,9.99,2.59,15.15.02,2.44-.14,4.89-.51,7.3-.05.31-.55,2.66.18,1.77-.06.07-.2.08-.27.14-.81.66-2.08,1.06-3.01,1.53-8.91,4.53-17.83,9.05-26.74,13.58-2.65,1.34-5.3,2.69-7.94,4.03l1.82.23c-8.15-6.79-8.04-18.88-8.41-28.58-.44-11.56.33-24.59,9.69-32.74.72-.62.51-1.92-.3-2.36-11.93-6.41-23.85-12.83-35.78-19.24l-5.07-2.72.3,2.36c3.99-3.9,7.57-8.18,10.67-12.82s5.3-9.38,7.61-14.29c1.95-4.16,4.2-8.7,8.23-11.22,4.89-3.06,11.09-1.93,16.54-2.8,10.31-1.63,18.94-8.13,26.89-14.48,8.97-7.18,17.99-14.15,28.46-19.05,5.64-2.64,11.6-4.65,17.75-5.66,3.22-.53,6.49-.75,9.75-.66,1.29.04,8.85.51,7.33,3.13-.4.69-.17,1.65.54,2.05,7.77,4.43,16.84,6.44,25.76,5.58,4.57-.44,8.91-1.63,13.15-3.38,4.45-1.84,8.76-4.08,13.39-5.46s9.31-1.62,13.96-.63c2.15.46,4.27,1.15,6.26,2.09,1.77.84,4.1,1.93,5.46,3.34,1.6,1.66,2.93,4.12,3.94,6.17,2.03,4.11,3.4,8.56,4.15,13.08,1.72,10.35,0,21.18-4.94,30.44l1.3-.74c-2.88.04-5.76.08-8.64.12-2.63.04-5.75-.39-8.34.2-.63.14-1.11.81-1.1,1.45.02.77.28,1.25.94,1.66.57.35,1.35.23,1.82-.23,1.15-1.13.72-2.68.64-4.16-.11-2.03-.16-4.02,1.58-5.38.37-.29.56-1.02.39-1.46-1.48-3.63-.18-7.76,3.27-9.72,1.73-.98.21-3.33-1.51-2.59s-1.07-4.15-1-4.68c.23-1.66.59-3.25,1.76-4.52.5-.54.66-1.6,0-2.12-1.47-1.15-2.7-2.46-3.64-4.08-.33-.58-2.47-4.64-.94-5.02,1.68-.42,1.27-2.89-.4-2.95-20.73-.64-41.47-1.29-62.2-1.93-2.97-.09-5.94-.18-8.91-.28-1.12-.03-1.89,1.31-1.3,2.26,2.45,3.92,2.3,8.72-.31,12.52-.39.56-.19,1.35.23,1.82,3.02,3.28,2.88,8.56-.23,11.71-1.36,1.38.74,3.47,2.12,2.12.68-.66,2.54,4,2.6,4.16.63,1.76.85,3.35.15,5.14-.59,1.49,1.5,2.39,2.51,1.46,1.16-1.07,2.2,1.06,2.24,1.85.07,1.31-.54,2.66-1,3.85-.41,1.05.82,2.2,1.85,1.85,3.51-1.23,4.93,7.42,4.97,9.4l.74-1.3c-3.24,1.38-6.48,2.76-9.72,4.13l1.82.23c-4.62-4.66-10.2-8.24-14.98-12.72-5.52-5.17-6.49-13.56-7.16-20.74-1.28-13.76,2.82-31,17.98-35.22l-1.69-.69c.79,1.53,1.58,3.06,2.38,4.59l.54-2.05c-11.43,8.04-16.45,22.09-13.02,35.59s14.32,24.81,26.9,31.34c6.64,3.45,13.76,5.91,20.98,7.84,1.67.45,3.37.81,5.03,1.27.77.21,1.58.62,2.38.72,1.48.18,2.42-1.2,3.45-2.11l5.2-4.64c10.54-9.41,23.7-19.24,27.38-33.65,1.83-7.15.92-14.81-2.19-21.47-1.51-3.24-3.61-6.26-6.16-8.79-3.23-3.21-7.28-5.69-6.33-10.93l-1.85,1.05c1.32.19,3.04.76,4.35.41,1.48-.39,2.92-1.24,4.38-1.74,1.66-.57,3.34-1.05,5.04-1.45,6.66-1.57,13.67-1.81,20.43-.74s13.39,3.44,19.23,7.07c2.89,1.8,5.72,3.95,7.62,6.83,2.05,3.11,2.7,6.8,2.76,10.47.12,7.71-1.08,15.61-1.94,23.27-.19,1.67,2.65,2.06,2.95.4,1.16-6.46,2.31-12.93,3.47-19.39l-1.45,1.1c12.33-1.43,24.56-3.79,36.38-7.62,5.82-1.89,11.53-4.12,17.07-6.73,5.75-2.7,11.2-5.99,16.96-8.66,22.21-10.29,47.48-8.01,71.04-12.43,12.23-2.3,24.12-6.42,34.02-14.15,1.25-.97-.13-2.85-1.46-2.51-17.47,4.48-34.94,8.95-52.41,13.43l-11.69,2.99c-.86.22-1.8.6-2.68.69-.2.02-.39-.07-.31-.07-2.61-.05-5.03-.51-7.68-.16-10.61,1.39-20.16,8-28.98,13.62-9.58,6.11-18.9,12.63-28.55,18.62-20.71,12.84-44.88,23.9-69.85,19.84-.77-.13-1.65.19-1.85,1.05-3.72,16.39,5.37,33.89,20.28,41.26,1.72.85,3.16-1.55,1.51-2.59l-1.62-1.03c-.51-.32-1.42-.27-1.82.23-13.23,16.59-33.02,25.58-53,31.21-5.55,1.56-11.16,2.91-16.78,4.17-2.49.56-5.1.92-7.53,1.69-1.77.56-3.39,1.62-3.72,3.57-.37,2.15,1.02,4.51,1.73,6.46.95,2.57,1.84,5.16,2.66,7.77,1.74,5.48,3.22,11.04,4.43,16.66,2.74,12.73,4.05,25.72,3.99,38.73,0,.67.47,1.25,1.1,1.45,4.5,1.39,9.01,2.77,13.51,4.16.94.29,1.89-.5,1.9-1.45.24-30.72,19.08-58.11,44.56-74.06,12.89-8.07,27.32-13.5,42.17-16.66,8.46-1.8,17.06-2.74,25.59-4.04,8.71-1.33,17.14-3.35,25.52-6.07,19.39-6.29,38.72-12.82,58.07-19.23,1.82-.6,1.04-3.5-.8-2.89-17.73,5.87-35.45,11.75-53.18,17.62-8.65,2.87-17.27,5.47-26.27,7.01s-17.97,2.42-26.88,4.13c-30.02,5.76-59.05,21.07-76.49,46.79-9.47,13.96-15.16,30.47-15.29,47.4l1.9-1.45c-4.5-1.39-9.01-2.77-13.51-4.16l1.1,1.45c.1-22.04-3.74-44.08-11.47-64.73-.41-1.09-1.22-2.43-1.32-3.58-.14-1.6,1.03-1.88,2.32-2.2,2.75-.7,5.55-1.21,8.31-1.84,5.35-1.22,10.69-2.52,15.96-4.03,9.85-2.81,19.54-6.37,28.54-11.29,9.51-5.21,18.21-11.96,24.99-20.47l-1.82.23,1.62,1.03,1.51-2.59c-13.67-6.76-22.34-22.74-18.9-37.87l-1.85,1.05c21.56,3.5,42.96-3.67,61.68-13.99,9.83-5.42,19.16-11.69,28.5-17.89,9.21-6.11,18.53-12.77,28.67-17.26,2.52-1.11,5.14-2.02,7.84-2.57,1.38-.28,2.77-.45,4.17-.49,1.71-.05,3.28.36,4.96.44.74.04,1.3-.13,2.01-.31l9.75-2.5c11.01-2.82,22.01-5.64,33.02-8.46,7.71-1.98,15.43-3.95,23.14-5.93l-1.46-2.51c-18.34,14.32-42.82,14.9-64.95,17.05-11.76,1.14-23.66,2.74-34.74,7.04-5.67,2.2-10.94,5.18-16.32,7.99s-11.06,5.34-16.84,7.43c-13.05,4.73-26.72,7.59-40.49,9.19-.61.07-1.32.41-1.45,1.1-1.16,6.46-2.31,12.93-3.47,19.39l2.95.4c.77-6.86,1.64-13.8,1.91-20.71.26-6.59-.97-12.94-5.76-17.77-9.04-9.12-23.69-13.03-36.19-12.8-7.54.14-14.93,1.82-21.81,4.9l1.16-.15-3.37-.49c-.74-.11-1.69.17-1.85,1.05-.51,2.79-.17,5.61,1.36,8.05s4.16,4.15,6.19,6.27c4.18,4.35,6.84,10.1,7.68,16.06,1.89,13.32-6.39,24.01-15.52,32.63-6.12,5.78-12.52,11.28-18.8,16.89l1.46-.39c-5.76-1.74-11.63-3.01-17.31-5.04-6.86-2.46-13.51-5.68-19.36-10.08-11.04-8.3-19.54-22.33-17.25-36.57,1.27-7.89,5.8-15.01,12.33-19.6.69-.48.94-1.28.54-2.05l-2.38-4.59c-.3-.58-1.08-.86-1.69-.69-11.16,3.1-18.13,13.77-19.86,24.77-1.08,6.86-.53,13.81.68,20.61,1.04,5.88,2.56,11.4,7.04,15.59,4.78,4.48,10.36,8.07,14.98,12.72.52.52,1.19.5,1.82.23,3.24-1.38,6.48-2.76,9.72-4.13.46-.2.75-.82.74-1.3-.09-4.13-2.65-14.43-8.77-12.29l1.85,1.85c1.03-2.64,1.96-6.07-.36-8.33-1.66-1.62-4.16-1.88-5.89-.28l2.51,1.46c1.36-3.45-.03-7.06-1.66-10.16-1.21-2.3-3.78-4.32-6.1-2.06l2.12,2.12c4.29-4.35,4.36-11.48.23-15.96l.23,1.82c3.19-4.64,3.29-10.78.31-15.55l-1.3,2.26c20.73.64,41.47,1.29,62.2,1.93,2.97.09,5.94.18,8.91.28l-.4-2.95c-2.66.66-2.97,3.62-2.36,5.89.88,3.27,2.97,6.15,5.61,8.23v-2.12c-2.32,2.52-3.13,6.65-2.84,10.02.26,2.99,2.8,5.15,5.71,3.9l-1.51-2.59c-4.51,2.56-6.62,8.26-4.65,13.1l.39-1.46c-1.23.97-1.99,2.33-2.31,3.86-.17.81-.22,1.64-.21,2.46,0,.4.45,3.06.29,3.21l1.82-.23-.19-.12.74,1.3v-.24c-.37.48-.74.96-1.11,1.45-.5.11.25,0,.44,0,.6,0,1.2-.02,1.8-.03l5.73-.08c2.74-.04,5.48-.08,8.21-.11.51,0,1.05-.28,1.3-.74,4.42-8.28,6.46-17.7,5.89-27.07-.49-8.06-2.7-16.73-7.44-23.38-.56-.79-1.07-1.65-1.7-2.39-1.32-1.55-3.41-2.71-5.2-3.66-3.95-2.11-8.32-3.34-12.78-3.66-10.29-.73-18.6,4.93-27.95,8.09-10.91,3.69-23.04,2.43-33.03-3.25l.54,2.05c2.6-4.46-3.49-7.15-6.98-7.48-5.93-.55-11.98.07-17.75,1.46-11.94,2.88-22.91,9.09-32.73,16.33s-17.85,15.65-28.8,19.98c-2.65,1.05-5.44,1.82-8.28,2.15-3.1.36-6.24.23-9.33.65-5.4.73-9.51,3.51-12.58,7.96-3.53,5.11-5.46,11.16-8.53,16.53-3.51,6.13-7.88,11.7-12.93,16.63-.67.66-.54,1.9.3,2.36,11.93,6.41,23.85,12.83,35.78,19.24l5.07,2.72-.3-2.36c-9.96,8.67-11.04,22.53-10.57,34.86.4,10.49.49,23.38,9.29,30.7.55.45,1.18.56,1.82.23,7.75-3.94,15.5-7.87,23.25-11.81,4.2-2.13,8.4-4.27,12.6-6.4.67-.34,1.54-.62,2.13-1.08,1.45-1.12,1.29-4.15,1.49-5.87.32-2.81.39-5.66.22-8.49-.35-5.65-1.59-11.29-3.85-16.49-1.75-4.04-5.15-8.56-10.09-7.96-1.48.18-2.04,1.9-.76,2.8l4.76,3.32.36-2.74c-4.55,1.89-8.46,5.67-8.86,10.82-.36,4.6,2.39,9.47,7.11,10.44,3.29.67,7.6-.61,9-3.93.45-1.06.71-2.25,1.05-3.34,3.82-12.15,7.63-24.3,11.45-36.45,1.19-3.78,2.37-7.56,3.56-11.34l-2.51.66c3.22,2.76,7.91,3.12,11.56.93,3.92-2.34,5.38-7.16,4.33-11.47-.5-2.05-1.6-3.91-3.11-5.39-2.26-2.21-5.04-3.55-6.08-6.76-.35-1.1-.49-2.26-.47-3.42.01-.74.11-1.45.22-2.18-.01.07-.64.5.19-.11,1.49-1.11,2.5-2.58,3.19-4.33,1.57-3.96,1.12-8.78-1.29-12.31-2.63-3.84-7.25-5.61-11.8-5.33-11.22.69-17.41,10.51-22.15,19.48-2.88,5.45-5.77,11.2-10.56,15.25-5.46,4.62-12.58,5.21-19.43,4.46l1.45,1.9c3.7-10.15,7.41-20.29,11.11-30.44.61-1.67-1.85-2.51-2.74-1.16-3,4.56-3.07,10.76.23,15.2,1.5,2.02,3.58,3.55,5.91,4.46,1.96.76,5.16,1.58,7.06.4,1.13-.7,2.15-1.7,3.19-2.52,1.57-1.24,2.17-1.54,2.48-3.67.95-6.56.23-13.24-2-19.47-.65-1.8-3.55-1.03-2.89.8h0Z"/>
    <path class="gltn-3" d="M276.55,458.97c-2.63,2.35-3.29,6.08-2.66,9.42.72,3.79,3.22,6.95,5.53,9.91.5.64,1.6.52,2.12,0,.63-.63.5-1.48,0-2.12-1.9-2.44-3.92-5.03-4.65-8.1-.59-2.46-.16-5.25,1.78-6.99,1.44-1.29-.69-3.41-2.12-2.12h0Z"/>
    <path class="gltn-3" d="M316.14,526.52c-5.19,5.19-9.94,12.54-7.38,20.17,1.31,3.9,4.63,6.54,7.51,9.3,3.27,3.15,6.54,6.3,9.81,9.45,1.39,1.34,3.52-.78,2.12-2.12-2.92-2.81-5.84-5.62-8.76-8.43-1.39-1.34-2.79-2.67-4.17-4.02-1.3-1.26-2.58-2.56-3.33-4.24-2.97-6.66,1.81-13.46,6.33-17.98,1.37-1.37-.75-3.49-2.12-2.12h0Z"/>
    <path class="gltn-3" d="M313.67,453.05c-4.07.32-8.49,1.69-10.8,5.32-2.5,3.94-1.21,9.46,2.75,11.89,2.13,1.31,4.82,1.65,7.2.9,1.84-.58,1.05-3.47-.8-2.89s-3.87.26-5.39-.94-2.32-3.38-1.99-5.35c.69-4.13,5.4-5.65,9.03-5.94.81-.06,1.5-.64,1.5-1.5,0-.76-.69-1.56-1.5-1.5h0Z"/>
  </g>
  <g id="rain">
    <path class="gltn-2" d="M235.39,289.65c0,.34,0,.68-.01,1.01-.51,19.05-20.99,18.99-21.64-.05-.03-.78-.04-1.6-.04-2.44,0-13.81,11.54-19.84,9.45-34.48,3.03,6.67,12.24,19.61,12.24,35.97Z"/>
    <path class="gltn-2" d="M236,203.47c0,.34,0,.68-.01,1.01-.51,19.05-20.99,18.99-21.64-.05-.03-.78-.04-1.6-.04-2.44,0-13.81,11.54-19.84,9.45-34.48,3.03,6.67,12.24,19.61,12.24,35.97Z"/>
    <path class="gltn-2" d="M180.26,203.97c0,.54,0,1.08-.02,1.61-.81,30.44-33.55,30.36-34.58-.07-.04-1.25-.06-2.55-.06-3.91.01-22.06,18.45-31.7,15.1-55.11,4.84,10.67,19.57,31.34,19.57,57.48Z"/>
    <path class="gltn-2" d="M457.5,348.17c0,.41,0,.81.02,1.21.61,22.91,25.25,22.84,26.02-.06.03-.94.05-1.92.05-2.94,0-16.6-13.88-23.86-11.36-41.47-3.64,8.03-14.72,23.58-14.72,43.26Z"/>
    <path class="gltn-2" d="M105.89,334.58c0,.52,0,1.04.02,1.55.78,29.28,32.27,29.19,33.26-.07.04-1.2.06-2.46.06-3.76-.01-21.22-17.74-30.49-14.52-53-4.65,10.26-18.82,30.14-18.82,55.28Z"/>
    <path class="gltn-2" d="M492.15,212.64c0,.27,0,.53-.01.79-.4,15.03-16.57,14.99-17.08-.04-.02-.62-.03-1.26-.03-1.93,0-10.9,9.11-15.66,7.46-27.22,2.39,5.27,9.66,15.48,9.66,28.39Z"/>
    <path class="gltn-2" d="M269.37,220c0,.17,0,.35,0,.52.26,9.76,10.76,9.73,11.08-.02.01-.4.02-.82.02-1.25,0-7.07-5.91-10.16-4.84-17.67-1.55,3.42-6.27,10.05-6.27,18.42Z"/>
    <path class="gltn-2" d="M145.6,268.59c0,.26,0,.52.01.77.39,14.64,16.13,14.6,16.63-.04.02-.6.03-1.23.03-1.88,0-10.61-8.87-15.25-7.26-26.5-2.33,5.13-9.41,15.07-9.41,27.64Z"/>
    <path class="gltn-2" d="M311.09,297.4c0,.3,0,.6.01.89.41,16.89,16.83,16.84,17.35-.04.02-.69.03-1.42.03-2.17,0-12.24-9.26-17.59-7.58-30.57-2.43,5.92-9.82,17.38-9.82,31.89Z"/>
    <path class="gltn-2" d="M310.6,221.01c0,.3,0,.6.01.89.41,16.89,16.83,16.84,17.35-.04.02-.69.03-1.42.03-2.17,0-12.24-9.26-17.59-7.58-30.57-2.43,5.92-9.82,17.38-9.82,31.89Z"/>
    <path class="gltn-2" d="M355.29,221.45c0,.48,0,.96.02,1.43.65,26.99,26.9,26.91,27.73-.07.03-1.11.05-2.26.05-3.46-.01-19.56-14.79-28.11-12.11-48.86-3.88,9.46-15.69,27.78-15.69,50.96Z"/>
    <path class="gltn-2" d="M269.37,391.91c0,.46,0,.92-.02,1.37-.63,25.96-25.88,25.88-26.67-.06-.03-1.07-.05-2.18-.05-3.33,0-18.81,14.23-27.03,11.64-46.99,3.73,9.09,15.09,26.72,15.09,49.01Z"/>
    <path class="gltn-2" d="M383.09,278.74c0,.23,0,.46,0,.69-.31,12.98-12.94,12.94-13.33-.03-.02-.53-.02-1.09-.02-1.67,0-9.41,7.11-13.52,5.82-23.49,1.87,4.55,7.54,13.36,7.54,24.5Z"/>
    <path class="gltn-2" d="M440.67,300.26c0,.15,0,.31,0,.46-.21,8.65-8.62,8.63-8.89-.02-.01-.36-.02-.73-.02-1.11,0-6.27,4.74-9.01,3.88-15.66,1.24,3.03,5.03,8.91,5.03,16.33Z"/>
    <path class="gltn-2" d="M469.17,193.24c0,.37,0,.73-.01,1.08-.55,20.5-22.59,20.44-23.29-.05-.03-.84-.04-1.72-.04-2.63,0-14.86,12.42-21.35,10.17-37.11,3.26,7.18,13.17,21.1,13.17,38.7Z"/>
    <path class="gltn-2" d="M439.07,252.93c0,.23,0,.46,0,.68-.34,12.83-14.14,12.79-14.57-.03-.02-.53-.03-1.08-.03-1.65,0-9.3,7.77-13.36,6.36-23.22,2.04,4.49,8.24,13.2,8.24,24.22Z"/>
    <path class="gltn-2" d="M474.15,136.17c0,.23,0,.46,0,.68-.34,12.83-14.14,12.79-14.57-.03-.02-.53-.03-1.08-.03-1.65,0-9.3,7.77-13.36,6.36-23.22,2.04,4.49,8.24,13.2,8.24,24.22Z"/>
    <path class="gltn-2" d="M623.29,233.6c0,.28,0,.55.01.82.41,15.43,17,15.38,17.52-.04.02-.63.03-1.29.03-1.98,0-11.18-9.35-16.06-7.65-27.92-2.45,5.4-9.91,15.88-9.91,29.13Z"/>
    <path class="gltn-2" d="M186.03,487.95c0,.35,0,.7.01,1.04.53,19.71,21.73,19.66,22.39-.05.03-.81.04-1.65.04-2.53,0-14.29-11.95-20.53-9.78-35.69-3.13,6.91-12.67,20.29-12.67,37.22Z"/>
    <path class="gltn-2" d="M629.06,357.4c0,.18,0,.36,0,.54-.27,10.12-11.16,10.09-11.5-.02-.01-.42-.02-.85-.02-1.3,0-7.34,6.13-10.54,5.02-18.33,1.61,3.55,6.51,10.42,6.51,19.11Z"/>
    <path class="gltn-2" d="M413.28,180.01c0,.18,0,.35,0,.52.26,9.86,10.86,9.83,11.2-.02.01-.41.02-.83.02-1.26,0-7.14-5.97-10.27-4.89-17.84-1.57,3.45-6.34,10.15-6.34,18.61Z"/>
    <path class="gltn-2" d="M496.62,147.3c0,.12,0,.23,0,.35.18,6.57,7.24,6.55,7.46-.02,0-.27.01-.55.01-.84,0-4.76-3.98-6.84-3.26-11.89-1.04,2.3-4.22,6.76-4.22,12.41Z"/>
    <path class="gltn-2" d="M373.73,348.16c0,.33,0,.65.01.96.44,18.17,18.12,18.12,18.67-.04.02-.75.03-1.52.03-2.33,0-13.17-9.96-18.93-8.15-32.9-2.61,6.37-10.56,18.71-10.56,34.31Z"/>
    <path class="gltn-2" d="M573.19,273.76c0,.27,0,.54.01.8.39,15.17,16.09,15.12,16.59-.04.02-.62.03-1.27.03-1.95,0-10.99-8.85-15.8-7.24-27.46-2.32,5.31-9.38,15.61-9.38,28.64Z"/>
    <path class="gltn-2" d="M536.09,224.92c0,.2,0,.4,0,.6.27,11.37,11.34,11.34,11.68-.03.01-.47.02-.95.02-1.46,0-8.24-6.23-11.84-5.1-20.58-1.63,3.98-6.61,11.71-6.61,21.47Z"/>
    <path class="gltn-2" d="M572.83,345.22c0,.31,0,.62-.01.92-.42,17.48-17.42,17.43-17.96-.04-.02-.72-.03-1.47-.03-2.24,0-12.67,9.58-18.2,7.84-31.64,2.51,6.12,10.16,17.99,10.16,33Z"/>
    <path class="gltn-2" d="M573.19,186.85c0,.16,0,.31,0,.46-.21,8.74-8.71,8.71-8.98-.02-.01-.36-.02-.73-.02-1.12,0-6.33,4.79-9.1,3.92-15.82,1.26,3.06,5.08,9,5.08,16.5Z"/>
    <path class="gltn-2" d="M611.96,201.34c0,.1,0,.21,0,.31-.14,5.82-5.81,5.81-5.98-.01,0-.24-.01-.49-.01-.75,0-4.22,3.19-6.07,2.61-10.55.84,2.04,3.39,6,3.39,11Z"/>
    <path class="gltn-2" d="M69.14,406.91c0,.27,0,.53-.01.79-.4,15.03-16.57,14.99-17.08-.04-.02-.62-.03-1.26-.03-1.93,0-10.9,9.11-15.66,7.46-27.22,2.39,5.27,9.66,15.48,9.66,28.39Z"/>
    <path class="gltn-2" d="M46.17,387.51c0,.37,0,.73-.01,1.08-.55,20.5-22.59,20.44-23.29-.05-.03-.84-.04-1.72-.04-2.63,0-14.86,12.42-21.35,10.17-37.11,3.26,7.18,13.17,21.1,13.17,38.7Z"/>
    <path class="gltn-2" d="M51.14,330.44c0,.23,0,.46,0,.68-.34,12.83-14.14,12.79-14.57-.03-.02-.53-.03-1.08-.03-1.65,0-9.3,7.77-13.36,6.36-23.22,2.04,4.49,8.24,13.2,8.24,24.22Z"/>
    <path class="gltn-2" d="M73.61,341.57c0,.12,0,.23,0,.35.18,6.57,7.24,6.55,7.46-.02,0-.27.01-.55.01-.84,0-4.76-3.98-6.84-3.26-11.89-1.04,2.3-4.22,6.76-4.22,12.41Z"/>
    <path class="gltn-2" d="M150.18,468.03c0,.27,0,.54.01.8.39,15.17,16.09,15.12,16.59-.04.02-.62.03-1.27.03-1.95,0-10.99-8.85-15.8-7.24-27.46-2.32,5.31-9.38,15.61-9.38,28.64Z"/>
    <path class="gltn-2" d="M113.08,419.19c0,.2,0,.4,0,.6.27,11.37,11.34,11.34,11.68-.03.01-.47.02-.95.02-1.46,0-8.24-6.23-11.84-5.1-20.58-1.63,3.98-6.61,11.71-6.61,21.47Z"/>
    <path class="gltn-2" d="M150.18,381.12c0,.16,0,.31,0,.46-.21,8.74-8.71,8.71-8.98-.02-.01-.36-.02-.73-.02-1.12,0-6.33,4.79-9.1,3.92-15.82,1.26,3.06,5.08,9,5.08,16.5Z"/>
    <path class="gltn-2" d="M188.95,395.61c0,.1,0,.21,0,.31-.14,5.82-5.81,5.81-5.98-.01,0-.24-.01-.49-.01-.75,0-4.22,3.19-6.07,2.61-10.55.84,2.04,3.39,6,3.39,11Z"/>
    <path class="gltn-2" d="M115.46,533.37c0,.27,0,.53-.01.79-.4,15.03-16.57,14.99-17.08-.04-.02-.62-.03-1.26-.03-1.93,0-10.9,9.11-15.66,7.46-27.22,2.39,5.27,9.66,15.48,9.66,28.39Z"/>
    <path class="gltn-2" d="M92.48,513.97c0,.37,0,.73-.01,1.08-.55,20.5-22.59,20.44-23.29-.05-.03-.84-.04-1.72-.04-2.63,0-14.86,12.42-21.35,10.17-37.11,3.26,7.18,13.17,21.1,13.17,38.7Z"/>
    <path class="gltn-2" d="M97.46,456.9c0,.23,0,.46,0,.68-.34,12.83-14.14,12.79-14.57-.03-.02-.53-.03-1.08-.03-1.65,0-9.3,7.77-13.36,6.36-23.22,2.04,4.49,8.24,13.2,8.24,24.22Z"/>
    <path class="gltn-2" d="M119.93,468.03c0,.12,0,.23,0,.35.18,6.57,7.24,6.55,7.46-.02,0-.27.01-.55.01-.84,0-4.76-3.98-6.84-3.26-11.89-1.04,2.3-4.22,6.76-4.22,12.41Z"/>
    <path class="gltn-2" d="M109.11,269.54c0,.27,0,.53-.01.79-.4,15.03-16.57,14.99-17.08-.04-.02-.62-.03-1.26-.03-1.93,0-10.9,9.11-15.66,7.46-27.22,2.39,5.27,9.66,15.48,9.66,28.39Z"/>
    <path class="gltn-2" d="M86.13,250.13c0,.37,0,.73-.01,1.08-.55,20.5-22.59,20.44-23.29-.05-.03-.84-.04-1.72-.04-2.63,0-14.86,12.42-21.35,10.17-37.11,3.26,7.18,13.17,21.1,13.17,38.7Z"/>
    <path class="gltn-2" d="M91.1,193.06c0,.23,0,.46,0,.68-.34,12.83-14.14,12.79-14.57-.03-.02-.53-.03-1.08-.03-1.65,0-9.3,7.77-13.36,6.36-23.22,2.04,4.49,8.24,13.2,8.24,24.22Z"/>
    <path class="gltn-2" d="M113.58,204.19c0,.12,0,.23,0,.35.18,6.57,7.24,6.55,7.46-.02,0-.27.01-.55.01-.84,0-4.76-3.98-6.84-3.26-11.89-1.04,2.3-4.22,6.76-4.22,12.41Z"/>
    <path class="gltn-2" d="M309.11,349.42c0,.37,0,.73-.01,1.08-.55,20.5-22.59,20.44-23.29-.05-.03-.84-.04-1.72-.04-2.63,0-14.86,12.42-21.35,10.17-37.11,3.26,7.18,13.17,21.1,13.17,38.7Z"/>
    <path class="gltn-2" d="M292.8,287.29c0,.23,0,.46,0,.68-.34,12.83-14.14,12.79-14.57-.03-.02-.53-.03-1.08-.03-1.65,0-9.3,7.77-13.36,6.36-23.22,2.04,4.49,8.24,13.2,8.24,24.22Z"/>
    <path class="gltn-2" d="M197.26,344.29c0,.12,0,.23,0,.35.18,6.57,7.24,6.55,7.46-.02,0-.27.01-.55.01-.84,0-4.76-3.98-6.84-3.26-11.89-1.04,2.3-4.22,6.76-4.22,12.41Z"/>
    <path class="gltn-2" d="M344.14,387.22c0,.27,0,.53-.01.79-.4,15.03-16.57,14.99-17.08-.04-.02-.62-.03-1.26-.03-1.93,0-10.9,9.11-15.66,7.46-27.22,2.39,5.27,9.66,15.48,9.66,28.39Z"/>
    <path class="gltn-2" d="M188.39,270.13c0,.12,0,.23,0,.35.18,6.57,7.24,6.55,7.46-.02,0-.27.01-.55.01-.84,0-4.76-3.98-6.84-3.26-11.89-1.04,2.3-4.22,6.76-4.22,12.41Z"/>
    <path class="gltn-2" d="M215.97,122.78c0,.52,0,1.04.02,1.55.78,29.28,32.27,29.19,33.26-.07.04-1.2.06-2.46.06-3.76-.01-21.22-17.74-30.49-14.52-53-4.65,10.26-18.82,30.14-18.82,55.28Z"/>
    <path class="gltn-2" d="M177.64,327.98c0,.22,0,.44,0,.66-.25,12.5-10.49,12.46-10.81-.03-.01-.51-.02-1.05-.02-1.6,0-9.06,5.77-13.02,4.72-22.63,1.51,4.38,6.12,12.87,6.12,23.6Z"/>
    <path class="gltn-2" d="M263.34,78.36c0,.26,0,.52.01.77.39,14.64,16.13,14.6,16.63-.04.02-.6.03-1.23.03-1.88,0-10.61-8.87-15.25-7.26-26.5-2.33,5.13-9.41,15.07-9.41,27.64Z"/>
    <path class="gltn-2" d="M255.11,320.46c0,.27,0,.54.01.8.39,15.17,16.09,15.12,16.59-.04.02-.62.03-1.27.03-1.95,0-10.99-8.85-15.8-7.24-27.46-2.32,5.31-9.38,15.61-9.38,28.64Z"/>
    <path class="gltn-2" d="M250.15,245.17c0,.2,0,.4,0,.6.27,11.37,11.34,11.34,11.68-.03.01-.47.02-.95.02-1.46,0-8.24-6.23-11.84-5.1-20.58-1.63,3.98-6.61,11.71-6.61,21.47Z"/>
    <path class="gltn-2" d="M267.92,190.89c0,.16,0,.31,0,.46-.21,8.74-8.71,8.71-8.98-.02-.01-.36-.02-.73-.02-1.12,0-6.33,4.79-9.1,3.92-15.82,1.26,3.06,5.08,9,5.08,16.5Z"/>
    <path class="gltn-2" d="M306.7,205.39c0,.1,0,.21,0,.31-.14,5.82-5.81,5.81-5.98-.01,0-.24-.01-.49-.01-.75,0-4.22,3.19-6.07,2.61-10.55.84,2.04,3.39,6,3.39,11Z"/>
    <path class="gltn-2" d="M371.87,134.37c0,.35,0,.7.01,1.04.53,19.71,21.73,19.66,22.39-.05.03-.81.04-1.65.04-2.53,0-14.29-11.95-20.53-9.78-35.69-3.13,6.91-12.67,20.29-12.67,37.22Z"/>
    <path class="gltn-2" d="M315,154.06c0,.12,0,.23,0,.35.18,6.57,7.24,6.55,7.46-.02,0-.27.01-.55.01-.84,0-4.76-3.98-6.84-3.26-11.89-1.04,2.3-4.22,6.76-4.22,12.41Z"/>
    <path class="gltn-2" d="M295.39,137.75c0,.22,0,.44,0,.66-.25,12.5-10.49,12.46-10.81-.03-.01-.51-.02-1.05-.02-1.6,0-9.06,5.77-13.02,4.72-22.63,1.51,4.38,6.12,12.87,6.12,23.6Z"/>
    <path class="gltn-2" d="M225.15,366.29c0,.12,0,.23,0,.35.18,6.57,7.24,6.55,7.46-.02,0-.27.01-.55.01-.84,0-4.76-3.98-6.84-3.26-11.89-1.04,2.3-4.22,6.76-4.22,12.41Z"/>
    <path class="gltn-2" d="M306.13,79.9c0,.12,0,.23,0,.35.18,6.57,7.24,6.55,7.46-.02,0-.27.01-.55.01-.84,0-4.76-3.98-6.84-3.26-11.89-1.04,2.3-4.22,6.76-4.22,12.41Z"/>
    <path class="gltn-2" d="M662.55,316.57c0,.34,0,.68-.01,1.01-.51,19.05-20.99,18.99-21.64-.05-.03-.78-.04-1.6-.04-2.44,0-13.81,11.54-19.84,9.45-34.48,3.03,6.67,12.24,19.61,12.24,35.97Z"/>
    <path class="gltn-2" d="M353.59,95.52c0,.34,0,.68-.01,1.01-.51,19.05-20.99,18.99-21.64-.05-.03-.78-.04-1.6-.04-2.44,0-13.81,11.54-19.84,9.45-34.48,3.03,6.67,12.24,19.61,12.24,35.97Z"/>
    <path class="gltn-2" d="M411.17,51.67c0,.17,0,.35,0,.52.26,9.76,10.76,9.73,11.08-.02.01-.4.02-.82.02-1.25,0-7.07-5.91-10.16-4.84-17.67-1.55,3.42-6.27,10.05-6.27,18.42Z"/>
    <path class="gltn-2" d="M415.8,401.62c0,.3,0,.6.01.89.41,16.89,16.83,16.84,17.35-.04.02-.69.03-1.42.03-2.17,0-12.24-9.26-17.59-7.58-30.57-2.43,5.92-9.82,17.38-9.82,31.89Z"/>
    <path class="gltn-2" d="M511.26,365.33c0,.3,0,.6.01.89.41,16.89,16.83,16.84,17.35-.04.02-.69.03-1.42.03-2.17,0-12.24-9.26-17.59-7.58-30.57-2.43,5.92-9.82,17.38-9.82,31.89Z"/>
    <path class="gltn-2" d="M601.48,390.19c0,.37,0,.73-.01,1.08-.55,20.5-22.59,20.44-23.29-.05-.03-.84-.04-1.72-.04-2.63,0-14.86,12.42-21.35,10.17-37.11,3.26,7.18,13.17,21.1,13.17,38.7Z"/>
    <path class="gltn-2" d="M434.6,118.96c0,.23,0,.46,0,.68-.34,12.83-14.14,12.79-14.57-.03-.02-.53-.03-1.08-.03-1.65,0-9.3,7.77-13.36,6.36-23.22,2.04,4.49,8.24,13.2,8.24,24.22Z"/>
    <path class="gltn-2" d="M672.95,310.77c0,.12,0,.23,0,.35.18,6.57,7.24,6.55,7.46-.02,0-.27.01-.55.01-.84,0-4.76-3.98-6.84-3.26-11.89-1.04,2.3-4.22,6.76-4.22,12.41Z"/>
    <path class="gltn-2" d="M608.22,295.66c0,.12,0,.23,0,.35.18,6.57,7.24,6.55,7.46-.02,0-.27.01-.55.01-.84,0-4.76-3.98-6.84-3.26-11.89-1.04,2.3-4.22,6.76-4.22,12.41Z"/>
    <path class="gltn-2" d="M396.91,152.13c0,.27,0,.54.01.8.39,15.17,16.09,15.12,16.59-.04.02-.62.03-1.27.03-1.95,0-10.99-8.85-15.8-7.24-27.46-2.32,5.31-9.38,15.61-9.38,28.64Z"/>
    <path class="gltn-2" d="M391.95,76.84c0,.2,0,.4,0,.6.27,11.37,11.34,11.34,11.68-.03.01-.47.02-.95.02-1.46,0-8.24-6.23-11.84-5.1-20.58-1.63,3.98-6.61,11.71-6.61,21.47Z"/>
    <path class="gltn-2" d="M507.35,349.71c0,.1,0,.21,0,.31-.14,5.82-5.81,5.81-5.98-.01,0-.24-.01-.49-.01-.75,0-4.22,3.19-6.07,2.61-10.55.84,2.04,3.39,6,3.39,11Z"/>
    <path class="gltn-2" d="M515.66,298.38c0,.12,0,.23,0,.35.18,6.57,7.24,6.55,7.46-.02,0-.27.01-.55.01-.84,0-4.76-3.98-6.84-3.26-11.89-1.04,2.3-4.22,6.76-4.22,12.41Z"/>
    <path class="gltn-2" d="M496.05,282.07c0,.22,0,.44,0,.66-.25,12.5-10.49,12.46-10.81-.03-.01-.51-.02-1.05-.02-1.6,0-9.06,5.77-13.02,4.72-22.63,1.51,4.38,6.12,12.87,6.12,23.6Z"/>
    <path class="gltn-2" d="M177.34,116.05c0,.3,0,.6.01.89.41,16.89,16.83,16.84,17.35-.04.02-.69.03-1.42.03-2.17,0-12.24-9.26-17.59-7.58-30.57-2.43,5.92-9.82,17.38-9.82,31.89Z"/>
    <path class="gltn-2" d="M145.9,142.1c0,.37,0,.73-.01,1.08-.55,20.5-22.59,20.44-23.29-.05-.03-.84-.04-1.72-.04-2.63,0-14.86,12.42-21.35,10.17-37.11,3.26,7.18,13.17,21.1,13.17,38.7Z"/>
    <path class="gltn-2" d="M543.39,125.05c0,.23,0,.46,0,.68-.34,12.83-14.14,12.79-14.57-.03-.02-.53-.03-1.08-.03-1.65,0-9.3,7.77-13.36,6.36-23.22,2.04,4.49,8.24,13.2,8.24,24.22Z"/>
    <path class="gltn-2" d="M462.23,85.53c0,.27,0,.54.01.8.39,15.17,16.09,15.12,16.59-.04.02-.62.03-1.27.03-1.95,0-10.99-8.85-15.8-7.24-27.46-2.32,5.31-9.38,15.61-9.38,28.64Z"/>
    <path class="gltn-2" d="M522.93,187.31c0,.2,0,.4,0,.6.27,11.37,11.34,11.34,11.68-.03.01-.47.02-.95.02-1.46,0-8.24-6.23-11.84-5.1-20.58-1.63,3.98-6.61,11.71-6.61,21.47Z"/>
  </g>
</svg>