
<svg id="greed" xmlns="http://www.w3.org/2000/svg" viewBox="0 0 694.31 696.31">
  <path id="ellipse" class="greed-1" d="M348.15,694.31C156.98,694.31,2,539.33,2,348.15S156.98,2,348.15,2"/>
  <path id="ellipse-2" data-name="ellipse" class="greed-1" d="M348.15,62.74c157.63,0,285.41,127.78,285.41,285.41s-127.78,285.41-285.41,285.41"/>
  <g id="skeltonhand">
    <path class="greed-2" d="M78.89,565.27c20.32-7.03,39.29-17.58,55.97-31.15s30.59-29.69,41.75-47.77c2.87-4.64,5.54-9.4,8.01-14.27s4.37-10.95,9.16-13.67c1.86-1.05,4.22-1.43,6.28-.77,2.67.86,3.3,3.41,3.67,5.91,1.04,7.04,1.98,14.1,2.96,21.15.91,6.54,1.7,13.4-.73,19.72-1.97,5.11-5.76,9.32-9.88,12.81-9.6,8.14-21.51,13.36-32.79,18.68-11.43,5.39-22.62,11.21-33.36,17.88s-20.51,13.73-30.03,21.58c-2.4,1.98-4.76,4-7.09,6.05-1.45,1.28.68,3.39,2.12,2.12,19.27-16.98,40.83-31.03,63.93-42.21,11.76-5.69,23.95-10.8,34.67-18.38,4.68-3.31,9.08-7.16,12.31-11.95,3.48-5.16,4.89-11.07,4.74-17.26-.18-7.08-1.59-14.19-2.57-21.19-.5-3.55-.89-7.13-1.5-10.66-.46-2.64-1.59-5.11-4.02-6.46-4.5-2.51-10.06-.6-13.37,2.94-3.88,4.16-5.86,9.93-8.49,14.89-10.19,19.31-23.59,36.89-39.69,51.64-16.13,14.78-34.95,26.63-55.31,34.67-2.49.98-5,1.91-7.52,2.78-1.81.63-1.03,3.53.8,2.89h0Z"/>
    <path class="greed-2" d="M100.71,590.55c10.61-5.42,21.22-10.84,31.82-16.26,9.7-4.96,19.62-9.65,28.98-15.25,8.6-5.14,16.32-11.31,22.48-19.26,5.79-7.49,10.43-15.87,16.86-22.86,3.11-3.38,6.69-6.7,11.05-8.38s8.97-1.41,11.84,2.55c1.35,1.86,2.15,4.05,2.83,6.23.82,2.65,1.49,5.35,1.93,8.09.87,5.38.79,11.03-.93,16.25-1.34,4.05-3.79,7.74-7.04,10.5-3.57,3.03-7.77,4.24-12.39,4.29-2.72.03-5.44-.1-8.13.36s-4.95,1.57-7.12,3.01c-4.4,2.93-8.46,6.42-12.73,9.54-17.52,12.76-36.19,23.95-55.7,33.39-2.39,1.15-4.79,2.28-7.2,3.39-1.75.8-.23,3.39,1.51,2.59,20.4-9.33,39.94-20.54,58.28-33.47,4.5-3.17,8.93-6.45,13.29-9.83,2.12-1.64,4.24-3.36,6.67-4.54,2.57-1.25,5.34-1.44,8.15-1.45s5.48.08,8.18-.46c2.15-.43,4.24-1.28,6.12-2.4,3.78-2.24,6.86-5.63,8.97-9.46,5.27-9.57,4.09-21.31.81-31.33-1.45-4.43-3.77-8.86-8.39-10.59s-9.54-.09-13.46,2.24c-8.3,4.92-13.95,13.62-19.26,21.41-2.77,4.06-5.54,8.14-8.73,11.89s-7.1,7.33-11.21,10.34c-8.69,6.37-18.46,11.07-28.01,15.95-10.98,5.61-21.96,11.22-32.94,16.82l-8.01,4.09c-1.72.88-.2,3.47,1.51,2.59h0Z"/>
    <path class="greed-2" d="M207.23,467.19c.02-2.8,1.86-4.06,4.17-5.22,1.31-.66,2.64-1.27,3.93-1.96,1.54-.83,3.17-1.04,4.9-.99,3.86.11,7.76.89,11.59,1.4.76.1,1.61.09,2.06.78.41.62.51,1.44.9,2.09.75,1.22,1.96,2.03,3.29,2.49,3.87,1.35,7.62-.88,11.5-.49,1.92.19,1.91-2.81,0-3-2.14-.21-4.2.33-6.28.72-1.54.29-3.24.45-4.7-.23-1.56-.72-1.51-2.27-2.4-3.53-1.17-1.65-3.27-1.68-5.09-1.92-4.01-.53-8.25-1.53-12.31-1.29-3.42.2-6.5,2.06-9.48,3.63s-5.05,3.94-5.08,7.52c-.01,1.93,2.99,1.93,3,0h0Z"/>
    <path class="greed-2" d="M226.39,457.58c-.02-5.47-3.05-9.99-6.21-14.21-1.64-2.18-3.32-4.34-4.71-6.7-1.51-2.57-3.18-5.85-1.6-8.75.73-1.35,1.81-2.52,2.8-3.68,1.07-1.25,2.2-2.51,3.55-3.47,2.27-1.61,5.52-2.42,7.81-.41,1.79,1.58,3.17,3.87,5.76,4.14,1.27.13,2.43-.32,3.53-.91.85-.45,2.15-1.57,3.05-.73.99.92,1.33,2.55,2.2,3.61.92,1.11,2.12,1.89,3.46,2.41,2.78,1.09,5.92.99,8.84.73,1.91-.17,1.93-3.17,0-3-2.64.23-5.64.46-8.13-.67-1.13-.51-1.93-1.31-2.52-2.4-.66-1.21-1.18-2.54-2.38-3.34-1.09-.73-2.4-.83-3.63-.42s-2.47,1.64-3.82,1.74c-1.09.08-1.93-.91-2.61-1.61-1.02-1.06-2.01-2.22-3.35-2.9-6.43-3.28-12.17,2.78-15.76,7.35-.93,1.19-1.79,2.45-2.21,3.92-.53,1.87-.24,3.87.39,5.67.95,2.71,2.49,5.16,4.15,7.48,3.47,4.84,8.35,9.79,8.37,16.14,0,1.93,3.01,1.93,3,0h0Z"/>
    <path class="greed-2" d="M221.53,419.36c.34-8.55,5.89-16.7,13.82-20,.7-.29,1.18-.84,1.07-1.65-.09-.68-.73-1.37-1.47-1.3-5.65.55-10.05-4.45-11.24-9.58-1.66-7.17,1.39-14.76,3.44-21.54,2.2-7.28,4.41-14.56,6.61-21.84,1.05-3.48,2.11-6.96,3.16-10.44.91-3,1.68-6.16,3.42-8.81,3.44-5.23,9.96-4.68,15.23-3.11,1.36.41,2.69.88,4.01,1.4,1.09.43,3.22.95,3.67,2.16s-.37,3.16-.72,4.29c-.47,1.53-1.08,3-1.78,4.44-2.62,5.45-6.19,10.41-8.34,16.09-2.37,6.23-2.43,13.02-1.08,19.49.78,3.73,2.05,7.33,3.6,10.8s3.39,6.73,4.28,10.4c.43,1.78.63,3.75.21,5.56-.17.72-.37,1.35-1.16,1.51-.9.18-1.95-.04-2.85-.1-4.3-.28-8.61-.57-12.91-.85-1.93-.13-1.92,2.87,0,3,4.14.27,8.28.55,12.42.82,1.74.11,3.81.52,5.39-.46,1.28-.79,1.88-2.25,2.12-3.67,1.28-7.59-3.75-14.25-6.23-21.03s-3.73-14.52-1.83-21.72c1.76-6.65,6.05-12.2,8.99-18.32,1.38-2.88,2.87-6.23,2.97-9.47.12-3.69-3.44-4.87-6.3-5.97-5.58-2.16-12.55-4.02-18.11-.81-2.9,1.67-4.69,4.49-5.92,7.53-1.4,3.48-2.32,7.19-3.41,10.78-2.42,7.99-4.84,15.98-7.26,23.97-1.18,3.9-2.44,7.79-3.49,11.73s-1.81,7.88-1.48,11.88c.51,6.16,4.12,12.42,10.27,14.41,1.39.45,2.87.6,4.32.45l-.4-2.95c-9.22,3.84-15.63,12.88-16.02,22.89-.08,1.93,2.92,1.93,3,0h0Z"/>
    <path class="greed-2" d="M257.73,401.96c3.75,2.77,5.97,7.43,5.78,12.08s-2.74,8.84-6.52,11.31c-.85.55-1.1,2.1,0,2.59,12.32,5.44,20.34,18.63,19.44,32.08l1.1-1.45c-4.93,2.06-9.99,3.76-15.16,5.09-.82.21-1.21,1.06-1.05,1.85,1.19,5.74,2.39,11.48,3.58,17.22.63,3.04,1.56,8.15-1.94,9.8-1.75.82-.22,3.41,1.51,2.59,4.29-2.02,4.29-7.45,3.65-11.47-1.01-6.35-2.6-12.65-3.91-18.94l-1.05,1.85c5.17-1.33,10.23-3.03,15.16-5.09.66-.28,1.05-.72,1.1-1.45.96-14.39-7.73-28.84-20.93-34.67v2.59c4.7-3.07,7.78-8.27,8.01-13.9s-2.67-11.28-7.27-14.67c-1.55-1.15-3.05,1.46-1.51,2.59h0Z"/>
    <path class="greed-2" d="M271.42,464.49c6.65,2.36,11.28,9.31,10.96,16.34-.19,4.32-2.14,8.35-2.67,12.63-.38,3.05,1.1,9.78-3.2,10.65l1.46.39c-1.64-1.51-3.57-3.05-5.87-3.25-1.87-.16-3.56.78-4.6,2.3-.9,1.31-1.24,2.92-1.72,4.41-.45,1.41-1.12,3.06-2.85,3.05-4.3-.03-5.76-6.13-7.91-8.86-2.58-3.28-6.88-4.79-10.97-4.5-5.19.36-9.68,3.31-13.29,6.87-1.38,1.36.75,3.48,2.12,2.12,2.83-2.79,6.26-5.25,10.27-5.89,3.57-.57,7.55.53,9.75,3.53s3.15,6.86,6.65,8.77c3.06,1.67,6.66,1,8.3-2.22.65-1.28.97-2.68,1.42-4.03.39-1.18.99-2.6,2.45-2.59.91,0,1.78.55,2.51,1.05s1.54,1.63,2.48,1.76c1.68.23,3.4-1.32,4.28-2.57,2.49-3.53,1.13-8.17,1.93-12.15.83-4.18,2.57-8.21,2.47-12.55-.17-8.06-5.61-15.47-13.18-18.16-1.82-.65-2.61,2.25-.8,2.89h0Z"/>
    <path class="greed-2" d="M230.07,519.26c.68-1.8,2.57-2.92,4.43-3.12,2.48-.26,3.89,1.27,5.45,2.96,1.69,1.84,3.71,3.13,6.29,3.06,2.19-.05,4.41-1,5.82-2.7.68-.82,1.05-1.82,1.68-2.67.2-.27.36-.57.71-.61.51-.06,1.73,1.12,2.15,1.4,2.38,1.61,4.94,2.92,7.6,3.98,5,1.99,10.96,3.52,15.2-.77,4.88-4.94,3.88-12.14,2.7-18.33-.36-1.89-3.25-1.09-2.89.8,1,5.21,2.19,11.97-2.44,15.89-2.19,1.86-4.84,1.62-7.46.93s-5.37-1.75-7.87-3.08c-1.27-.68-2.5-1.43-3.68-2.25s-2.17-1.64-3.62-1.55c-2.52.16-3.05,2.8-4.41,4.39-1.27,1.48-3.61,2-5.39,1.24-2.24-.96-3.35-3.56-5.48-4.76-4.29-2.4-9.97-.1-11.67,4.39-.69,1.81,2.21,2.59,2.89.8h0Z"/>
    <path class="greed-2" d="M243.34,316.6c-1.58-.29-2.16-1.95-1.79-3.39.48-1.87,2-3.26,3.36-4.52,1.46-1.36,2.91-2.74,3.89-4.51.85-1.53,1.38-3.22,1.67-4.94.6-3.64.33-7.32.51-10.98.09-1.81.31-3.6.86-5.33.65-2.02,1.88-3.8,2.68-5.77,1.63-3.99,1.9-8.36,3.34-12.4.16-.44.31-.91.55-1.31.06-.1.16-.33.26-.39.37-.24-.04-.08.13.05.7.53,1.25,1.67,1.71,2.4,1.01,1.64,1.82,3.38,2.41,5.2,1.17,3.63,1.56,7.55.96,11.33-.68,4.29-2.71,8.18-2.33,12.63.44,5.25,3.05,9.97,3.77,15.16.53,3.87-.55,8.95-4.8,10.25-1.84.56-1.06,3.46.8,2.89,3.93-1.2,6.4-4.91,6.98-8.85.77-5.28-1.51-10.22-2.89-15.19-.73-2.62-1.2-5.32-.69-8.03.45-2.41,1.4-4.69,1.89-7.09.89-4.34.69-8.89-.55-13.14-.61-2.08-1.46-4.12-2.54-6-.89-1.55-2.23-4.2-4.11-4.67-2.33-.58-3.59,1.76-4.27,3.55-.88,2.32-1.34,4.76-1.86,7.17s-1.13,4.73-2.24,6.91c-1.05,2.05-2.07,4.02-2.53,6.29-.85,4.2-.39,8.48-.71,12.72-.17,2.26-.63,4.54-1.84,6.49-1.33,2.14-3.52,3.53-5.13,5.44s-2.7,4.1-2.28,6.55c.36,2.08,1.88,3.98,4.02,4.37,1.89.34,2.7-2.55.8-2.89h0Z"/>
    <path class="greed-2" d="M264.21,405.61c2.19-4.81,7.95-5.43,12.6-5.04,2.98.25,5.94.76,8.93.97s6.21.22,9.32.1c6.02-.22,12.02-.86,18-1.51,5.68-.61,11.32-1.46,16.76-3.26s10.32-4.15,15.18-6.84,9.76-5.96,14.74-8.77,10.37-5.34,16.2-4.75c2.84.29,5.61,1.24,8.24,2.29,1.31.52,2.6,1.09,3.88,1.66,1.1.5,2.4,1.03,2.82,2.27.45,1.33.02,2.92-.25,4.25-.32,1.53-.71,3.04-1.16,4.54-.92,3.01-2.11,5.92-3.57,8.71-.97,1.85-2.73,5.48-5.29,5.33-1.2-.07-1.93-1.21-2.17-2.27-.37-1.61.18-3.3.63-4.84.55-1.86-2.35-2.65-2.89-.8-.82,2.76-1.44,5.86.23,8.44,1.45,2.24,4.17,3.04,6.59,1.93s4.04-3.58,5.28-5.89c1.47-2.73,2.7-5.6,3.68-8.54s1.83-5.9,2.06-8.9-1.1-5.18-3.72-6.48c-5.46-2.7-11.81-5.31-18.01-4.72s-12.28,4.02-17.68,7.32-10.77,6.65-16.47,9.42-11.4,4.78-17.51,5.87c-6.63,1.19-13.45,1.72-20.16,2.23-3.84.29-7.69.46-11.53.36s-7.58-.67-11.39-1.05c-5.85-.58-13.17.42-15.91,6.46-.79,1.74,1.79,3.27,2.59,1.51h0Z"/>
    <path class="greed-2" d="M374.63,402.05c-2.08,2.3-5.37,2.58-8.25,3.1-3.88.7-7.61,1.96-11.42,2.94-7.76,1.99-15.78,2.12-23.69,3.09-7.26.89-14.23,2.7-20.8,5.96-6.45,3.19-11.8,7.61-16.95,12.58-2.88,2.79-5.99,5.1-9.85,6.33-3.59,1.14-7.42,1.38-11.11.63-1.88-.38-2.69,2.51-.8,2.89,6.77,1.37,14.06-.01,19.68-4.11,3.06-2.23,5.55-5.09,8.37-7.59s5.71-4.53,8.86-6.36c6.45-3.74,13.52-6.04,20.88-7.1,8.1-1.17,16.35-1.19,24.36-2.98,4.4-.98,8.66-2.54,13.1-3.35,3.48-.64,7.24-1.12,9.75-3.91,1.29-1.43-.83-3.56-2.12-2.12h0Z"/>
    <path class="greed-2" d="M388.12,377.1c-2.07-2.35,1.11-4.88,3.19-5.4,3.09-.78,6.49.1,9.62.17,6.82.16,13.58-1.15,20.2-2.65s13.45-3.16,20.08-5.06c2.99-.86,6.07-1.7,8.55-3.66,1.15-.91,2.14-2.05,3.4-2.81,1.4-.84,3.04-1.3,4.59-1.77,2.83-.86,6.03-1.56,8.87-.34,2.68,1.15,3.82,3.9,3.74,6.69-.09,3.11-1.48,6.32-3.03,8.97s-3.56,4.38-6.39,5.33c-6.31,2.12-13.17,1.13-19.7,1.26-6.03.13-11.7,1.52-17.2,3.97-5.98,2.67-11.46,6.29-17.06,9.65-2.8,1.68-5.63,3.34-8.58,4.73-2.67,1.26-6.07,2.38-8.71.49-1.57-1.12-3.07,1.48-1.51,2.59,5.35,3.83,12.54-.72,17.31-3.46,5.63-3.23,11.02-6.88,16.8-9.84s12.05-4.97,18.72-5.13c7.1-.17,14.7.98,21.5-1.65,2.95-1.15,5.28-3.08,6.99-5.74s3.22-6.18,3.7-9.45c.45-3.06-.08-6.28-2.08-8.72s-5.16-3.39-8.16-3.34c-3.42.05-7.08,1.16-10.17,2.57-1.56.71-2.79,1.79-4.05,2.93s-2.77,2.03-4.44,2.64c-3.48,1.25-7.13,2.13-10.71,3.06s-7.42,1.85-11.14,2.72c-8.36,1.94-16.71,3.56-25.34,2.79-3.55-.32-7.46-.43-10.33,2.06-2.49,2.17-3.04,5.99-.8,8.53,1.28,1.45,3.39-.68,2.12-2.12h0Z"/>
    <path class="greed-2" d="M470.29,355.73c1.66-3.44,4.57-5.89,7.56-8.16,3.16-2.4,6.36-4.73,8.88-7.83,2.72-3.35,4.75-7.13,6.63-11,1.56-3.22,2.94-7.7,6.07-9.78,3.69-2.45,7.91.44,10.06,3.54.59.84,1.11,1.73,1.59,2.64.29.54.54.86.32,1.45-.16.44-.5.89-.77,1.27-1.13,1.56-2.73,2.73-4.33,3.76-3.49,2.24-7.02,4.25-10.22,6.92s-6.06,5.76-8.54,9.13c-3.04,4.12-5.05,8.81-7.8,13.1-2.45,3.82-5.89,7.24-10.57,7.87-.81.11-1.23,1.14-1.05,1.85.23.87,1.05,1.16,1.85,1.05,10.06-1.36,13.58-12.27,18.29-19.63,2.48-3.88,5.53-7.39,9-10.43s7.41-5.12,11.19-7.67c1.76-1.19,3.4-2.54,4.66-4.27.58-.8,1.14-1.71,1.36-2.69.26-1.19-.25-2.18-.8-3.2-2.12-3.96-5.28-7.79-10-8.46s-7.85,2.33-9.94,6.04c-2.27,4.01-3.91,8.34-6.29,12.3-2.63,4.37-6.01,7.65-10.06,10.69-3.73,2.81-7.6,5.7-9.68,10.02-.83,1.73,1.75,3.25,2.59,1.51h0Z"/>
    <path class="greed-2" d="M504.33,315.63c.03-6.7,5.89-11.22,9.9-15.85s7.56-10.33,11.57-15.32c.51-.63,4.89-6.21,5.69-5.24.27.33-.32,1.88-.4,2.25-.16.69-.32,1.37-.48,2.06-.37,1.51-.76,3.01-1.23,4.49-.93,2.94-2.16,5.78-3.96,8.3-.94,1.31-2.07,2.49-2.96,3.84s-1.47,2.8-1.91,4.31c-.98,3.42-1.34,6.91-2.91,10.14-1.49,3.06-3.58,5.72-6.15,7.94-1.46,1.26.67,3.38,2.12,2.12,2.54-2.19,4.69-4.86,6.25-7.83,1.66-3.15,2.38-6.45,3.16-9.89.39-1.72.86-3.41,1.79-4.92,1-1.62,2.36-2.99,3.44-4.56,1.98-2.86,3.28-6.16,4.27-9.48.48-1.62.89-3.27,1.28-4.92.36-1.54,1.04-3.36.5-4.93-1.23-3.59-5.4-1.58-7.18.25-5.09,5.21-8.81,11.56-13.34,17.23-4.84,6.06-12.41,11.47-12.45,19.99,0,1.93,2.99,1.93,3,0h0Z"/>
    <path class="greed-2" d="M462.9,352.74c-.64-3.13.99-6.34,1.27-9.45s-.37-6.32,1.31-9.24c1.32-2.28,3.13-4.12,5.82-4.55,2.31-.38,4.75.34,6.43,1.97,1.38,1.35,3.51-.77,2.12-2.12-2.19-2.13-5.27-3.18-8.32-2.88-3.32.33-5.89,2.09-7.8,4.77-1.02,1.44-1.86,3.06-2.21,4.8-.39,1.97-.25,3.97-.29,5.96-.08,3.92-2.02,7.57-1.22,11.53.38,1.89,3.28,1.09,2.89-.8h0Z"/>
    <path class="greed-2" d="M474.36,328.68c1.11-2.5,1.27-5.19,2.09-7.77.89-2.84,3.2-4.05,5.61-5.46,4.57-2.68,8.41-6.47,11.2-10.96s4.4-9.39,4.83-14.54c.1-1.22-.1-2.71.53-3.8.54-.92,1.59-1.34,2.59-1.56,2.08-.46,5.18-.18,6.83,1.3,2.3,2.08.44,6.36.04,8.89-.47,3-.69,6-1.35,8.97-.42,1.88,2.48,2.68,2.89.8.63-2.85.87-5.72,1.29-8.59s1.72-6.23.95-9.28c-1.35-5.34-9.65-6.63-13.84-4.04-2.73,1.69-2.7,4.43-2.94,7.31s-.96,5.69-2.02,8.35c-2.14,5.32-5.87,10.1-10.6,13.35-2.73,1.88-6.08,3.09-7.87,6.06s-1.48,6.43-2.83,9.47c-.78,1.75,1.81,3.28,2.59,1.51h0Z"/>
    <path class="greed-2" d="M500.23,282.95c-.94-4.3,1.03-7.8,3.31-11.28,2.48-3.78,4.96-7.56,7.44-11.34.63-.96,1.26-1.92,1.89-2.89.21-.32,1.03-1.79,1.42-1.74.78.1-.37,3.73-.47,4.08-1.23,4.07-2.54,7.77-2,12.09.29,2.36.58,4.59-.13,6.9s-1.95,4.23-3.16,6.2c-1.01,1.65,1.58,3.16,2.59,1.51,1.28-2.08,2.54-4.19,3.33-6.51.84-2.46.79-4.87.46-7.42s-.32-4.84.36-7.34,1.64-4.69,2.09-7.12c.3-1.61.21-3.58-1.17-4.69-1.81-1.45-3.9-.26-5.1,1.33-1.62,2.15-2.99,4.52-4.47,6.76s-3.07,4.67-4.6,7.01-3.05,4.48-4.06,6.99c-1.07,2.65-1.23,5.48-.63,8.26.41,1.89,3.3,1.09,2.89-.8h0Z"/>
    <path class="greed-2" d="M399.43,258.8c-5.61,4.37-4.93,12.29-3.5,18.43.95,4.06,1.95,7.97,1.69,12.18s-1.24,8.1-.8,12.14c.17,1.55.75,3.07,2.27,3.75,1.62.72,3.55.13,5.23-.03,3.48-.34,7.31-.79,9.62-3.75s1.35-6.85-.32-9.91c-.96-1.76-2.06-3.43-2.78-5.32s-1.16-3.66-1.63-5.51c-1.18-4.63-2.36-9.27-3.54-13.9-.83-3.24-1.47-7.83-5.28-8.85-1.87-.5-2.66,2.39-.8,2.89,1.1.29,1.62,1.34,1.99,2.33.59,1.57.91,3.27,1.32,4.89.88,3.46,1.76,6.92,2.64,10.38s1.56,6.63,2.9,9.76c1.23,2.87,3.81,5.61,3.92,8.84s-3.24,4.53-5.97,4.91c-1.6.23-3.24.4-4.85.55-.56.05-1.18.18-1.52-.35-.42-.65-.28-1.88-.28-2.6,0-3.43.68-6.82.89-10.24s-.3-6.72-1.09-10.04c-1.39-5.89-3.69-14.01,2.02-18.45,1.52-1.18-.61-3.29-2.12-2.12h0Z"/>
    <path class="greed-2" d="M399.92,304.72c-2.06,2.69-2.98,6.15-2.54,9.51s2.45,6.41,3.43,9.71c1.09,3.67,1.18,7.52,1.11,11.32-.03,1.64-.13,3.29-.14,4.93-.01,1.53.18,3.23,1.28,4.4s2.77,1.51,4.3,1.79c1.97.37,3.97.51,5.95.15,2.84-.52,5.56-2.3,6.7-5.02,1.4-3.34.06-6.86-1.45-9.9-.79-1.6-1.65-3.16-2.07-4.91-.46-1.93-.38-3.94-.21-5.9.35-3.98,1.23-8.08.06-12.02-.97-3.26-3.39-6.2-6.81-6.98-1.88-.43-2.68,2.47-.8,2.89,6.44,1.46,5.21,9.96,4.68,14.74-.34,3.04-.5,6.18.49,9.12s2.86,5.36,3.52,8.32-.67,5.33-3.43,6.36c-1.38.52-2.9.58-4.36.45-.81-.07-1.61-.22-2.4-.4-.65-.15-1.57-.25-2.02-.8-.71-.86-.43-2.57-.4-3.58.05-1.53.1-3.06.12-4.58.03-3.16-.11-6.35-.78-9.45-.72-3.32-2.51-6.18-3.46-9.41s-.24-6.57,1.81-9.24c1.17-1.53-1.43-3.03-2.59-1.51h0Z"/>
    <path class="greed-2" d="M403.63,342.28c-1.83,1.12-3.39,2.63-4.47,4.49-1.25,2.15-1.97,4.68-2.84,7-.41,1.1-.79,2.18-.88,3.36-.11,1.28.14,2.56.18,3.84s-.02,2.59-.14,3.87c-.07.74-.16,1.48-.25,2.22-.04.34-.09.67-.14,1.01-.02.16-.05.32-.07.48-.08.37-.03.33.17-.13l1.82-.23-.08-.05.74,1.3v-.11c-.37.48-.74.96-1.1,1.45l.07-.02c1.84-.56,1.06-3.46-.8-2.89l-.07.02c-.62.19-1.12.78-1.1,1.45s.29,1.1.83,1.45c.6.39,1.31.17,1.82-.23.79-.64.71-1.96.84-2.88.17-1.26.32-2.52.41-3.78s.1-2.58,0-3.87c-.09-1.19-.28-2.36,0-3.54.55-2.31,1.6-4.7,2.54-6.88.85-1.98,2.2-3.58,4.04-4.7,1.65-1,.14-3.6-1.51-2.59h0Z"/>
    <path class="greed-2" d="M416.7,344.83c.66,4.03-.36,8.06-1.4,11.93s-2.19,7.89-2.28,12c-.04,1.93,2.96,1.93,3,0,.19-8.44,4.98-16.15,3.58-24.73-.31-1.9-3.2-1.09-2.89.8h0Z"/>
    <path class="greed-2" d="M331.47,287.06c-5.09,14.67,4.71,28.64,13.6,39.4.98,1.19,2.39,2.35,4.01,1.53,1.38-.7,1.58-2.57,2.54-3.67,1.87-2.14,5.31-2.11,6.74-4.75,1.59-2.9-.51-6.69-2.37-8.93-2.15-2.58-5.06-4.32-7.78-6.2-1.6-1.1-3.14-2.29-4.4-3.78s-2.22-3.29-3.14-5.04c-1.9-3.62-3.94-7.04-6.55-10.21-1.23-1.49-3.34.64-2.12,2.12,2.07,2.5,3.8,5.22,5.3,8.09s2.81,5.51,4.95,7.77c3.93,4.15,10.58,6.12,13.03,11.6.44.99,1.03,2.58.19,3.48s-2.31,1.22-3.37,1.75-2.07,1.31-2.84,2.24c-.48.57-.89,1.19-1.21,1.86-.08.16-.29.55-.3.7-.21.28-.11.36.29.23-.21-.17-.4-.36-.57-.58-4.2-4.76-8.16-10.17-10.95-15.88-3.16-6.46-4.56-14-2.15-20.94.63-1.83-2.26-2.61-2.89-.8h0Z"/>
    <path class="greed-2" d="M348.63,325.4c-1.41,2.11-1.33,4.76-.36,7.03s2.88,4.02,4.84,5.54c4.09,3.19,7.71,6.62,10.5,11.04s4.59,9.11,5.49,14.12c.47,2.63.21,5.52,1.1,8.05.83,2.33,2.66,4.09,4.93,5.03,4.92,2.04,10.85-.22,14.38-3.88s4.92-9.31,2.77-14.1c-1.1-2.45-3.1-4.2-5.1-5.92s-3.98-3.68-5.74-5.75c-3.53-4.15-6.41-8.82-8.98-13.61-1.43-2.65-2.76-5.36-4.05-8.07-1.16-2.43-2.34-5.07-4.73-6.54-2.55-1.57-5.79-1.19-8.34.15-2.74,1.43-4.65,3.99-6.47,6.39-1.17,1.54,1.44,3.04,2.59,1.51,1.43-1.89,2.95-3.91,5.04-5.12,1.97-1.14,4.58-1.47,6.36.2,1.55,1.45,2.34,3.62,3.24,5.49,1.03,2.15,2.08,4.28,3.19,6.39,2.24,4.26,4.7,8.42,7.6,12.27,1.41,1.87,2.91,3.68,4.53,5.37s3.49,3.22,5.25,4.83,3.16,3.41,3.55,5.82c.36,2.21-.1,4.52-1.22,6.44-2.24,3.84-7.35,6.83-11.85,5.65-2.11-.55-3.8-2.05-4.3-4.2-.54-2.33-.44-4.83-.86-7.2-.77-4.36-2.3-8.59-4.4-12.48-2.35-4.34-5.49-8.31-9.23-11.53-2.87-2.47-10.32-6.65-7.14-11.41,1.08-1.61-1.52-3.11-2.59-1.51h0Z"/>
    <path class="greed-2" d="M411.03,392.05c-.28,3.54.16,7.1,1.25,10.47.09.28.58,1.57.32,1.68.01,0-.71-.16-.7-.15-.46-.06-.92-.11-1.38-.09-1.71.05-3.36.59-4.87,1.38s-2.92,1.94-4.23,3.07c-.12.1-1.73,1.36-1.69,1.48.18.02.35.09.5.19-.03-.11-.06-.22-.08-.33.03-.34,0-.69.04-1.03.27-3.52,1.48-6.85.65-10.4-.44-1.88-3.33-1.08-2.89.8.73,3.12-.47,6.32-.74,9.42-.12,1.35-.03,2.87,1.09,3.81,1.27,1.07,2.72.38,3.81-.56,2.28-1.97,4.7-4.41,7.84-4.8,1.48-.19,3.04.56,4.38-.34,1.26-.85,1.49-2.44,1.2-3.82-.38-1.76-1.06-3.41-1.33-5.21s-.3-3.72-.15-5.57-2.85-1.92-3,0h0Z"/>
    <path class="greed-2" d="M440.91,379.36c-2.78,4.87-7.02,8.79-11.23,12.42s-8.89,7.04-13.73,9.99c-2.35,1.43-4.76,2.77-7.21,4.02-1.16.59-2.34,1.16-3.52,1.7s-2.57.97-3.61,1.81c-2.15,1.73-1.62,4.68.22,6.44.86.82,1.93,1.35,2.86,2.09.99.79,1.77,1.81,2.33,2.94,1.27,2.59.58,5.05.4,7.77-.16,2.47.73,4.77,2.88,6.1,4.35,2.69,9.19-.04,11.92-3.65,1.66-2.19,2.74-4.73,4.18-7.05s3.5-4.2,5.66-5.94c4.55-3.66,8.98-7.45,13.16-11.54,4.6-4.51,8.95-9.3,12.94-14.36,1.92-2.44,3.67-4.95,4.78-7.87.97-2.55,1.46-5.43,3.4-7.47,1.33-1.4-.79-3.53-2.12-2.12-1.63,1.72-2.51,3.86-3.24,6.08-.81,2.42-1.69,4.67-3.12,6.8-2.97,4.41-6.69,8.44-10.33,12.31-3.81,4.05-7.84,7.89-12.06,11.52-3.99,3.43-8.69,6.37-11.54,10.9-2.22,3.54-4.27,10-9.23,10.45-1.81.16-3.84-.68-4.23-2.62-.26-1.3.09-2.69.25-3.98s.15-2.52-.07-3.8c-.41-2.28-1.6-4.48-3.27-6.09-.8-.77-5.36-3.13-3.92-4.56.77-.77,2.31-1.12,3.29-1.57,1.18-.54,2.36-1.11,3.52-1.7,2.39-1.21,4.73-2.51,7.03-3.9,5.06-3.07,9.87-6.57,14.35-10.43,4.46-3.84,8.92-8.02,11.87-13.17.96-1.68-1.63-3.19-2.59-1.51h0Z"/>
    <path class="greed-2" d="M418.39,432.07c.49,3.9-2.33,8.75-6.67,8.75-.78,0-1.78-.16-2.33-.78-.74-.82-.47-2.12-1.25-2.99-1.6-1.79-4.1-.68-5.62.59-1.87,1.57-3.49,3.44-5.58,4.72-2.34,1.43-4.77,1.4-7.4.97-5.86-.94-11.55-1.03-17.43-.14-11.61,1.74-22.41,6.5-33.54,9.97-5.52,1.72-11.17,3.15-16.94,3.64s-11.63.31-17.31,1.8c-2.9.76-5.73,1.86-8.4,3.23-1.65.85-3.19,1.89-4.91,2.59-4.72,1.94-9.77,1.44-14.37-.62-1.75-.79-3.27,1.8-1.51,2.59,4.53,2.04,9.45,2.95,14.34,1.7,3.83-.98,6.99-3.39,10.6-4.9,5.62-2.35,11.42-2.88,17.44-3.14s12.12-1.22,18.04-2.86c11.69-3.25,22.82-8.41,34.79-10.66,6.05-1.14,12.1-1.33,18.18-.33,2.8.46,5.57.74,8.26-.39,2.25-.94,4.1-2.57,5.87-4.21.65-.6,2.15-2.54,3.15-2.46.87.07.03-.07.13.03.18.16.15.82.22,1.08.18.63.49,1.21.92,1.71,1.52,1.75,4.14,2.15,6.31,1.69,5.06-1.07,8.64-6.53,8.01-11.57-.24-1.89-3.24-1.91-3,0h0Z"/>
    <path class="greed-2" d="M292.1,435.47c1.75-.37,3.5.56,5.09,1.18,1.81.71,3.68,1.28,5.58,1.71,3.64.82,7.39,1.17,11.12,1.23s7.6-.14,11.39-.42,7.59-.53,11.34-1.1c7.74-1.18,14.79-4.57,21.77-7.94s14.5-7.02,21.76-10.53c3.85-1.86,7.74-4.1,11.98-4.93,1.97-.39,4.07-.39,5.99.23,1.81.58,3.23,1.9,5.21,1.89s1.93-3.02,0-3c-1.49.01-3-1.33-4.42-1.78-1.75-.56-3.66-.7-5.48-.53-3.71.34-7.11,1.83-10.43,3.42-7.39,3.54-14.75,7.14-22.12,10.7s-14.06,7.2-21.72,8.95c-3.96.9-8.02,1.18-12.06,1.48-3.79.29-7.58.55-11.38.56-4.22.02-8.46-.27-12.58-1.24-2.05-.48-4.01-1.17-5.96-1.94s-3.79-1.29-5.86-.85c-1.89.39-1.09,3.29.8,2.89h0Z"/>
    <path class="greed-2" d="M409.34,442.42c-1.14,3.53-4.55,5.74-7.89,6.92-4.18,1.48-8.62,1.86-12.99,2.39s-8.6,1.3-12.66,3.06-7.87,4.1-11.82,6.1c-8.08,4.09-16.51,7.47-25.17,10.13s-18.12,4.12-26.69,7.78c-4.72,2.02-9.22,4.49-13.68,7.01-2.11,1.19-4.28,2.56-6.79,2.61-2.66.05-5.22-1.08-7.6-2.14-1.75-.78-3.28,1.81-1.51,2.59,4.31,1.92,8.73,3.52,13.35,1.62,2.13-.87,4.09-2.12,6.1-3.24,2.1-1.17,4.22-2.32,6.38-3.41,4.36-2.2,8.85-4.02,13.56-5.32,4.69-1.29,9.47-2.27,14.16-3.59,9.04-2.54,17.85-5.88,26.32-9.94,4.23-2.03,8.28-4.4,12.48-6.49s8.52-3.14,13.13-3.72c8.5-1.07,21.04-1.74,24.22-11.57.59-1.84-2.3-2.63-2.89-.8h0Z"/>
    <path class="greed-2" d="M281.66,516.41c4.58.91,9.31,1.82,13.96.82,3.88-.84,7.37-3.05,9.31-6.58,1.04-1.89,1.7-3.96,2.51-5.95.76-1.84,1.6-3.66,2.56-5.4,1.96-3.56,4.47-6.83,7.88-9.1,1.6-1.07.1-3.67-1.51-2.59-6.61,4.41-10,11.59-12.79,18.77-.73,1.89-1.57,3.76-3.06,5.18-1.33,1.26-3.02,2.07-4.76,2.56-4.37,1.21-8.95.28-13.29-.59-1.89-.38-2.69,2.52-.8,2.89h0Z"/>
    <path class="greed-2" d="M305.82,510.02c2.24-2.68,5.42-4.04,8.64-5.19,3.76-1.34,7.51-2.68,11.21-4.18,7.59-3.09,15.02-6.56,22.53-9.82,7.62-3.31,15.35-6.23,23.32-8.57,7.07-2.08,14.52-4.47,19.51-10.22,1.26-1.45,2.34-3.04,3.1-4.8.83-1.89,1.08-3.81,1.5-5.81.86-4.14,4.1-7.05,7.11-9.76,1.44-1.29-.69-3.41-2.12-2.12-2.65,2.38-5.41,4.92-6.92,8.22-.81,1.77-1.03,3.58-1.42,5.47-.34,1.65-.96,3.18-1.84,4.61-3.99,6.43-11.53,9.09-18.41,11.14-7.93,2.36-15.63,5.1-23.24,8.35-7.58,3.24-15.04,6.75-22.65,9.9-4.18,1.73-8.41,3.25-12.67,4.77-3.62,1.29-7.26,2.88-9.78,5.89-1.23,1.47.88,3.61,2.12,2.12h0Z"/>
  </g>
  <path id="ellipse-3" data-name="ellipse" class="greed-1" d="M213.38,556.73c38.46,24.47,85.82,39.62,134.78,39.62"/>
  <path id="ellipse-4" data-name="ellipse" class="greed-1" d="M348.15,99.96c-137.08,0-248.2,111.12-248.2,248.2,0,59.97,24.02,117.21,59.42,160.11"/>
</svg>