
<svg id="heretic" xmlns="http://www.w3.org/2000/svg" viewBox="0 0 694.31 696.31">
  <g id="lines_and_fire" data-name="lines and fire">
    <path class="hrtc-2" d="M348.15,6c46.19,0,91,9.05,133.18,26.89,40.74,17.23,77.33,41.9,108.76,73.33,31.42,31.42,56.1,68.02,73.33,108.76,17.84,42.18,26.89,86.99,26.89,133.18s-9.05,91-26.89,133.18c-17.23,40.74-41.9,77.33-73.33,108.76-31.42,31.42-68.02,56.1-108.76,73.33-42.18,17.84-86.99,26.89-133.18,26.89s-91-9.05-133.18-26.89c-40.74-17.23-77.33-41.9-108.76-73.33-31.42-31.42-56.1-68.02-73.33-108.76-17.84-42.18-26.89-86.99-26.89-133.18s9.05-91,26.89-133.18c17.23-40.74,41.9-77.33,73.33-108.76s68.02-56.1,108.76-73.33c42.18-17.84,86.99-26.89,133.18-26.89M348.15,2C156.98,2,2,156.98,2,348.15s154.98,346.15,346.15,346.15,346.15-154.98,346.15-346.15S539.33,2,348.15,2h0Z"/>
    <path class="hrtc-1" d="M91.88,578.98c18.95-6.44,17.46-28.87,16.73-33.43-.06-.46.33-.74.72-.51,5.32,2.99,32.65,21.22,30.79,36.06-1.2,9.34-5.67,10.61-9.19,10.02-.62-.1-.67.91-.06,1.24,5.93,3.33,24.45,2.17,33.54-11.84,13.04-19.72,39.84-24.79,41.02-25.19.02,0,.04-.01.06-.01.68-.08,12.17-2.26,13.39-22.73,1.13-18.59,24.84-38.42,29.61-42.58.37-.3.82.06.82.66.04,5.97,1.26,30.17,19.05,47.03,20.41,19.32,13.49,65.52,13.46,65.42.02-.07-4.02,19.74,24.38,33.41,27.89,13.01,31.29-23.02,31.4-24.38,0-.04,0-.07.01-.1.21-1.29,4.46-24.38,26.43-37.1,20.2-11.82,13.04-57.74,11.36-67.36-.12-.69.35-1.27.78-.96,6.28,4.81,37.76,28.37,41.36,48.64,3.98,22.69,3.3,49.07,26.05,57.49,20.81,7.56,29.11,25.55,30.37,28.6.11.26.33.37.56.29,2.88-.94,20.81-9.05,28.12-32.53,7.97-25.23-2.3-27.1,12.36-40.81,12.33-11.43,14.03-28.44,14.26-33.6.03-.59.59-.91.93-.53,4.61,5.61,24.95,27.44,21.07,45.36-4.1,21.86,51.42-.5,51.22-1.02"/>
  </g>
  <polyline class="hrtc-1" points="377.43 525.71 348.83 509.03 276.93 550.74"/>
  <line class="hrtc-1" x1="506.04" y1="600.71" x2="414.84" y2="547.53"/>
  <polyline class="hrtc-1" points="158.18 586.87 198.05 399.15 26.36 245.03 255.08 222.07 347.55 11.63 441.11 222.52 669.95 246.58 499.05 399.87 529.28 539"/>
  <line class="hrtc-1" x1="255.08" y1="222.07" x2="441.11" y2="222.52"/>
  <line class="hrtc-1" x1="198.05" y1="399.15" x2="255.08" y2="222.07"/>
  <line class="hrtc-1" x1="499.05" y1="399.87" x2="441.11" y2="222.52"/>
  <line class="hrtc-1" x1="198.05" y1="399.15" x2="348.83" y2="509.03"/>
  <line class="hrtc-1" x1="499.05" y1="399.87" x2="348.83" y2="509.03"/>
  <path class="hrtc-1" d="M460.99,323.15s-53.63,54.74-109.6,54.74-116.06-52.31-116.06-52.31c0,0,56.33-56.13,112.3-56.13s113.37,53.7,113.37,53.7Z"/>
  <circle class="hrtc-2" cx="348.15" cy="300.64" r="31.19"/>
</svg>