
<svg id="limbo" xmlns="http://www.w3.org/2000/svg" viewBox="0 0 694.31 696.31">
  <path class="lmb-3" d="M348.15,6c46.19,0,91,9.05,133.18,26.89,40.74,17.23,77.33,41.9,108.76,73.33,31.42,31.42,56.1,68.02,73.33,108.76,17.84,42.18,26.89,86.99,26.89,133.18s-9.05,91-26.89,133.18c-17.23,40.74-41.9,77.33-73.33,108.76-31.42,31.42-68.02,56.1-108.76,73.33-42.18,17.84-86.99,26.89-133.18,26.89s-91-9.05-133.18-26.89c-40.74-17.23-77.33-41.9-108.76-73.33-31.42-31.42-56.1-68.02-73.33-108.76-17.84-42.18-26.89-86.99-26.89-133.18s9.05-91,26.89-133.18c17.23-40.74,41.9-77.33,73.33-108.76s68.02-56.1,108.76-73.33c42.18-17.84,86.99-26.89,133.18-26.89M348.15,2C156.98,2,2,156.98,2,348.15s154.98,346.15,346.15,346.15,346.15-154.98,346.15-346.15S539.33,2,348.15,2h0Z"/>
  <g>
    <polygon class="lmb-1" points="679.82 435.82 590.49 435.82 590.49 454.04 675.38 454.04 679.82 435.82"/>
    <path class="lmb-1" d="M595.82,454.04v7.27c0,.79.67,1.4,1.46,1.38,2.62-.06,7.88,1.69,7.88,16.69v76.44h16.44s41.78-52,53.78-101.78"/>
    <path class="lmb-1" d="M92.46,512.71s9.59,10.67,30.92-19.56,19.56-57.33,19.56-57.33c0,0,32.89,24.44,31.11,52.89s-16,41.78-16,41.78c0,0,19.56-3.56,32-40.89s46.22-60.44,46.22-60.44c0,0,11.56-4.44,12.44-35.56s28.44-64,28.44-64c0,0-.89,41.78,18.67,67.56s13.33,89.78,13.33,89.78c0,0-3.56,27.56,23.11,43.56s29.33-34.67,29.33-34.67c0,0,3.56-32.88,24.89-50.22s10.67-93.71,10.67-93.71c0,0,36.44,37.26,40,69.26s2.67,68,24,83.78,28.44,49.25,28.44,49.25c0,0,19.56-3.25,27.56-39.69s-1.78-42.21,12.44-59.77,14.22-53.12,14.22-53.12c0,0,24.89,49.78,20.44,83.56s42.52,70.67,42.52,70.67v12.89h-9.63v16.3s24.16-26.38,26.25-31.5"/>
    <path class="lmb-2" d="M595.82,461.31c-11.78,7.27-19.78-16.38-19.13-20.16s.57-23.67.57-23.67c.11-15.56,2.44-19.22,2.44-19.22-8.56-4.56-3.44-5-14.22-13.67s-38,9.67-39,14.67,4,8.11,4,8.11c0,0-21.89,12-20.33,15.44s-2.78,9-2.78,9c0,0-1.11-3.67-6.22-5.11s-5.67-5.33-5.67-5.33l5.44-7.22h7.33s-7.44-18.11-16.33-8.78-10.22,5.44-10.22,5.44c0,0-7.56-7.67-8.1-11.11s4.54-3.44,4.54-3.44c0,0,9-1.33,4.33-7.67s1.33-12.11,1.33-12.11v-24.59c6.51,4.76,7.87,15.99,8.87,19.54.11.39.69-.1.69-.1l1.78-11.62c.27-1.74.2-2.12.04-5.26l-1.82-13.07c12.44,11.11,11.78,23.56,11.78,23.56,0,0,14.22-12.22,15.78-31.78s5.33-21.78,5.33-21.78l11.44-7.78c3.44-9.17,10.31-5.27,15.56-6.94,1.26-.4,5.39-6.11,8.72-4.67,1.86.81,4.35,1.21,13.83-2.69,8.74-3.59,14.67,14.02,14.67,7.41,0-17.78-41.91-54.11-34.22-56.89,76.57-27.65,124.89,19.78,124.89,19.78l3.56,16c2.62,13.66,7.95,42.37,7.78,65.78-.12,16.12-.87,23.6-.93,27.48l-1.96,23.7c-1.19,27.7-50.36,16.02-50.36,16.02l.28,7.98c11.11,2.07,11.11,11.41,11.11,11.41,0,0-9.19-10.67-9.63-2.52s-3.56,10.37-3.56,10.37"/>
    <path class="lmb-2" d="M589.99,433.97s2.27-24.6,7.16-34.38c3.24-6.48-1.62-13.25-5.27-17.09-.39-.41.12-1.04.6-.74,9.27,5.59,31.52,19.29,32.23,22.27.89,3.78,0,23.11,0,23.11,0,0-26.67-7.11-26.22,8.67"/>
  </g>
  <g>
    <polygon class="lmb-1" points="17.79 436.49 107.12 436.49 107.12 454.72 22.23 454.72 17.79 436.49"/>
    <path class="lmb-1" d="M101.79,454.72v7.27c0,.79-.67,1.4-1.46,1.38-2.62-.06-7.88,1.69-7.88,16.69,0,20,0,76.44,0,76.44h-16.44s-41.78-52-53.78-101.78"/>
    <path class="lmb-1" d="M90.83,556.49v12.89s9.63,0,9.63,0v16.3s-24.16-26.38-26.25-31.5"/>
    <path class="lmb-2" d="M101.79,461.98c11.78,7.27,19.78-16.38,19.13-20.16s-.57-23.67-.57-23.67c-.11-15.56-2.44-19.22-2.44-19.22,8.56-4.56,3.44-5,14.22-13.67s38,9.67,39,14.67-4,8.11-4,8.11c0,0,21.89,12,20.33,15.44-1.56,3.44,2.78,9,2.78,9,0,0,1.11-3.67,6.22-5.11s5.67-5.33,5.67-5.33l-5.44-7.22h-7.33s7.44-18.11,16.33-8.78c8.89,9.33,10.22,5.44,10.22,5.44,0,0,7.56-7.67,8.1-11.11s-4.54-3.44-4.54-3.44c0,0-9-1.33-4.33-7.67s-1.33-12.11-1.33-12.11v-24.59c-6.51,4.76-7.87,15.99-8.87,19.54-.11.39-.69-.1-.69-.1l-1.78-11.62c-.27-1.74-.2-2.12-.04-5.26l1.82-13.07c-12.44,11.11-11.78,23.56-11.78,23.56,0,0-14.22-12.22-15.78-31.78-1.56-19.56-5.33-21.78-5.33-21.78l-11.44-7.78c-3.44-9.17-10.31-5.27-15.56-6.94-1.26-.4-5.39-6.11-8.72-4.67-1.86.81-4.35,1.21-13.83-2.69-8.74-3.59-14.67,14.02-14.67,7.41,0-17.78,41.91-54.11,34.22-56.89-76.57-27.65-124.89,19.78-124.89,19.78l-3.56,16c-2.62,13.66-7.95,42.37-7.78,65.78.12,16.12.87,23.6.93,27.48l1.96,23.7c1.19,27.7,50.36,16.02,50.36,16.02l-.28,7.98c-11.11,2.07-11.11,11.41-11.11,11.41,0,0,9.19-10.67,9.63-2.52.44,8.15,3.56,10.37,3.56,10.37"/>
    <path class="lmb-2" d="M107.62,434.65s-2.27-24.6-7.16-34.38c-3.24-6.48,1.62-13.25,5.27-17.09.39-.41-.12-1.04-.6-.74-9.27,5.59-31.52,19.29-32.23,22.27-.89,3.78,0,23.11,0,23.11,0,0,26.67-7.11,26.22,8.67"/>
  </g>
</svg>