
<svg id="lustful" xmlns="http://www.w3.org/2000/svg" viewBox="0 0 694.31 696.31">
  <g id="characters">
    <path class="lust-2" d="M452.6,90.79c5.05,13.28,8.14,27.29,9.02,41.47.22,3.48.31,6.97.27,10.46-.03,2.85-.23,5.71.05,8.56.49,4.95,2.65,10.19,8.13,11.13,2.95.5,5.87-.3,8.69-1.09s5.82-1.74,8.76-.9l-1.05-1.05c.98,3.41,1.95,6.81,2.93,10.22.89,3.12,1.98,6.3,2.03,9.57.04,2.62-.67,5.2-2.89,6.78-1.58,1.12-3.94,1.78-5.57.39-1.46-1.25-3.59.87-2.12,2.12,2.78,2.37,6.61,1.97,9.46-.11,3.58-2.61,4.49-6.95,3.98-11.17-.61-5.05-2.46-10.01-3.86-14.89-.33-1.16-.62-2.34-1-3.48s-1.3-1.4-2.44-1.58c-1.92-.3-3.85-.08-5.74.34-3.48.76-7.4,2.72-11.02,1.82s-4.88-4.46-5.26-7.76c-.5-4.32-.02-8.74-.1-13.08-.09-5.11-.46-10.22-1.11-15.3-1.44-11.37-4.2-22.53-8.28-33.25-.68-1.79-3.58-1.01-2.89.8h0Z"/>
    <path class="lust-2" d="M489.63,188.05c6.82,7.6,9.82,17.63,11.53,27.5,2.03,11.66,2.83,23.58,3.66,35.38.43,6.18.84,12.35,1.19,18.53.32,5.49.53,11.13-.8,16.51-2.12,8.54-8.64,14.18-15.16,19.56s-14.1,11.5-16.07,20.46l2.51-.66c-8.05-8.1-18.01-14.14-28.91-17.55-1.85-.58-2.64,2.32-.8,2.89,10.41,3.27,19.89,9.05,27.58,16.78.76.77,2.26.46,2.51-.66,1.76-8.04,8.38-13.43,14.43-18.42,6.49-5.36,13.22-10.92,16.07-19.14,1.85-5.33,2.01-11.12,1.79-16.71-.24-6.13-.71-12.27-1.12-18.39-.82-12.21-1.69-24.48-3.53-36.59-1.72-11.35-4.92-22.89-12.76-31.62-1.29-1.44-3.41.69-2.12,2.12h0Z"/>
    <path class="lust-2" d="M474.17,326.82c6.43,12.89,12.92,25.86,21.54,37.46,8.34,11.23,18.67,21.07,25.32,33.49,3.62,6.76,6.03,14.19,5.93,21.92-.03,1.93,2.97,1.93,3,0,.18-14.11-7.3-26.64-15.74-37.37-4.52-5.75-9.42-11.19-13.94-16.95s-8.38-11.76-11.98-18.03c-4.13-7.19-7.84-14.62-11.54-22.03-.86-1.73-3.45-.21-2.59,1.51h0Z"/>
    <path class="lust-2" d="M526.45,408.17c8.32,17.49,16.03,35.26,23.13,53.28,7.19,18.23,13.89,36.65,20.71,55.02,3.87,10.44,7.75,20.88,11.62,31.32l.39-1.46c-4.08,3.76-10.47-.27-13.18-3.82-3.68-4.83-5.52-10.98-10.4-14.87-2.18-1.73-4.72-2.81-7.27-3.85-2.38-.97-4.95-1.91-6.92-3.61-5.36-4.61-2.16-12.15-1.27-17.96,2.05-13.35-6.7-24.76-16.19-33.07-4.98-4.36-10.32-8.32-15.12-12.9s-8.67-9.62-11.21-15.65c-5.75-13.67-4.8-29.17-3.86-43.63.12-1.93-2.88-1.92-3,0-.88,13.55-1.66,27.75,2.64,40.85,2.08,6.34,5.4,12.08,9.87,17.03s10.12,9.33,15.4,13.73c9.87,8.22,20.87,19.43,18.48,33.47-1.08,6.37-3.73,13.56,1.02,19.12,3.71,4.34,9.89,5.03,14.5,8.02,5.92,3.83,7.43,11.44,12.06,16.42,4.07,4.38,11.55,7.47,16.58,2.83.36-.34.56-.98.39-1.46-6.9-18.6-13.8-37.21-20.71-55.81-6.81-18.3-13.77-36.53-21.46-54.47-4.33-10.1-8.86-20.12-13.59-30.05-.83-1.74-3.42-.22-2.59,1.51h0Z"/>
    <path class="lust-2" d="M494.29,409.84c-12.91-7.47-25.52-15.46-37.78-23.95-11.32-7.84-22.61-15.94-32.54-25.53-4.78-4.61-9.24-9.59-13.07-15.03s-7.14-11.6-8.26-18.32c-2.07-12.46,3.51-25.26,11.5-34.59,9.8-11.44,23.29-18.83,36.29-26,1.69-.93.18-3.52-1.51-2.59-12.06,6.65-24.36,13.47-34.08,23.4-8.97,9.16-15.63,21.54-15.6,34.61.03,13.9,8.69,25.89,17.76,35.69,9.62,10.39,21.03,18.94,32.53,27.11,13.97,9.93,28.4,19.19,43.23,27.78,1.67.97,3.19-1.62,1.51-2.59h0Z"/>
    <path class="lust-2" d="M443.21,270.41c4.72-5.15,7.13-12.36,7.79-19.22.33-3.4.17-6.96-.86-10.24-1.14-3.64-3.54-6.83-6.01-9.68-5.77-6.62-13.24-11.53-20.35-16.58-4.17-2.96-8.34-5.92-12.51-8.88-3.72-2.63-7.49-5.26-11.69-7.09s-8.79-2.66-13.46-2.49-9.32,1.14-13.94,1.94-9.37,1.41-14.1.92c-3.96-.41-7.89-1.55-11.52-3.18-15.69-7.02-26.13-21.21-37.01-33.87-5.45-6.34-11.21-12.48-18-17.42-3.29-2.4-6.8-4.35-10.47-6.11-3.25-1.56-6.71-3.1-9.38-5.59-1.24-1.15-2.28-2.51-2.91-4.09-.71-1.77-3.61-1-2.89.8,2.83,7.07,10.23,9.65,16.5,12.86,7.41,3.79,13.68,9.31,19.35,15.33,11.48,12.19,20.86,26.43,34.91,35.96,6.67,4.53,14.29,7.78,22.39,8.4,9.4.72,18.41-2.77,27.74-2.96,4.66-.09,9.07.92,13.23,3.02s7.78,4.78,11.49,7.41c7.67,5.45,15.64,10.64,22.94,16.58,5.71,4.64,12.21,10.61,13.44,18.23,1.08,6.71-.71,14.25-4.09,20.09-.78,1.34-1.66,2.6-2.71,3.74-1.3,1.42.81,3.55,2.12,2.12h0Z"/>
    <path class="lust-2" d="M293.14,123.47c1.75,1.72,2.48,4.06,3.33,6.3s1.98,4.47,3.52,6.43c3.11,3.97,7.32,6.85,11.4,9.73,9.19,6.48,17.84,13.68,25.84,21.57,4.53,4.47,8.85,9.15,12.95,14.01,1.25,1.48,3.36-.65,2.12-2.12-7.25-8.6-15.19-16.61-23.74-23.92-4.26-3.64-8.67-7.11-13.21-10.39-4.12-2.99-8.54-5.72-11.99-9.52-1.87-2.05-3.17-4.37-4.13-6.96s-1.93-5.26-3.97-7.26c-1.38-1.35-3.5.77-2.12,2.12h0Z"/>
    <path class="lust-2" d="M344.8,174.19c18.56-4.48,37.98-5.83,57-4.49,5.29.37,10.57.98,15.8,1.86,1.89.32,2.7-2.57.8-2.89-19.24-3.25-39.08-3.18-58.37-.43-5.39.77-10.74,1.78-16.03,3.05-1.88.45-1.08,3.35.8,2.89h0Z"/>
    <path class="lust-2" d="M429.02,117.07c-.74,4.66-1.23,9.36-1.4,14.08s-.21,9.48.46,14.12c.55,3.84,2.38,6.79,4.79,9.74,2.1,2.58,4.43,5.11,4.91,8.53.27,1.9,3.16,1.09,2.89-.8-.97-6.92-8.31-10.53-9.56-17.38-.79-4.36-.64-9.06-.51-13.48.14-4.7.58-9.38,1.32-14.02.3-1.89-2.59-2.7-2.89-.8h0Z"/>
    <path class="lust-2" d="M441.83,109.66c-10.24,2.83-20.97,5.67-31.5,2.65-2.39-.69-4.75-1.47-7.24-1.71-2.24-.22-4.5.15-6.61.92-4.12,1.51-7.67,4.28-11.86,5.59-5.72,1.79-11.74-.05-17.25-1.72-1.85-.56-2.64,2.33-.8,2.89,5.04,1.53,10.33,3.06,15.65,2.39,4.67-.59,8.51-3.14,12.63-5.19,1.9-.94,3.93-1.78,6.07-1.93,2.66-.19,5.23.65,7.75,1.39,5.2,1.54,10.47,2,15.87,1.47,6.16-.61,12.15-2.21,18.1-3.86,1.86-.51,1.07-3.41-.8-2.89h0Z"/>
    <path class="lust-2" d="M455.42,88.33c-4.39-1.89-8.94-3.53-13.75-3.87-3.43-.25-6.81.35-10.16,1.05-5.2,1.09-10.32,2.26-15.34,4.04-5.57,1.97-10.91,4.44-16.34,6.74s-12.07,4.18-17.24.28c-1.54-1.16-3.04,1.44-1.51,2.59,4.32,3.25,10.11,3.15,15.08,1.67,5.57-1.66,10.8-4.5,16.2-6.64s11.15-3.99,16.98-5.16c3.32-.67,6.62-1.54,10.02-1.62,5.06-.12,9.96,1.54,14.56,3.52,1.75.75,3.28-1.83,1.51-2.59h0Z"/>
    <path class="lust-2" d="M448.19,180.36c8.32-.52,15.62,6,15.61,14.41s-7.05,14.85-15.3,14.44c-1.18-.06-2.45-.23-3.49-.83-.81-.47-1.44-1.23-2.05-1.92-1.28-1.45-2.59-2.89-4.55-3.33s-2.69,2.48-.8,2.89,2.93,2.36,4.22,3.63c1.75,1.71,3.91,2.35,6.31,2.53,4.53.34,9.1-1.29,12.58-4.16,7.43-6.13,8.06-17.97,1.57-25-3.56-3.85-8.87-6-14.1-5.67-1.92.12-1.93,3.12,0,3h0Z"/>
    <path class="lust-2" d="M443.97,379.81c-7.24,12.78-16.06,24.61-26.27,35.17-10.91,11.29-23.43,20.63-36.29,29.57-12.28,8.53-24.63,16.97-36.51,26.04-11.65,8.9-22.9,18.38-33.06,28.97-5.06,5.27-9.83,10.82-14.24,16.65-3.85,5.09-7.52,10.78-12.96,14.34-1.35.88-2.77,1.6-4.29,2.12l1.9,1.45c-.26-9.53,2.14-19.03,7.02-27.24,2.31-3.89,5.09-7.51,7.1-11.58.99-2.02,1.82-4.15,2.26-6.36s.52-4.64.63-6.97c.2-4.16.84-8.15,3.97-11.14,2.46-2.34,5.73-3.66,8.9-4.73,6.75-2.27,13.61-3.76,19.5-7.98,11.47-8.22,17.74-21.46,25.93-32.55,4.03-5.46,8.7-10.62,14.57-14.13,3.89-2.33,7.92-4.13,10.59-7.98,2.31-3.33,3.33-7.42,3.96-11.37.72-4.53,1.17-9.1,1.83-13.64.69-4.76,1.48-9.51,2.46-14.21,1.94-9.34,4.61-18.61,8.7-27.25,1-2.12,2.1-4.2,3.26-6.24.96-1.68-1.63-3.19-2.59-1.51-9.65,16.85-13.2,36.17-15.65,55.19-.54,4.19-.9,8.45-2.17,12.5-.61,1.95-1.47,3.84-2.71,5.47-1.38,1.8-3.21,3.07-5.15,4.19-3.36,1.94-6.63,3.77-9.6,6.29-2.63,2.23-4.99,4.76-7.17,7.43-8.83,10.83-14.71,24.31-25.51,33.47-2.55,2.16-5.4,3.99-8.47,5.32-3.32,1.44-6.86,2.33-10.31,3.4-6.71,2.07-13.86,5-16.27,12.22-1.54,4.61-.64,9.57-1.76,14.25-1.05,4.41-3.61,8.25-6.06,11.99s-4.9,7.86-6.61,12.22-2.87,9.18-3.37,13.96c-.25,2.32-.32,4.66-.26,6.99.03.92.95,1.77,1.9,1.45,6.26-2.16,10.78-6.99,14.73-12.11,4.38-5.67,8.62-11.38,13.4-16.73,9.93-11.09,21.12-21,32.81-30.19,11.76-9.25,24.05-17.79,36.35-26.29,13.14-9.09,26.25-18.3,37.73-29.48,10.58-10.31,19.87-21.98,27.56-34.61.97-1.6,1.91-3.21,2.84-4.83s-1.64-3.2-2.59-1.51h0Z"/>
    <path class="lust-2" d="M433.14,151.15c-.07-2.08-1.84-3.41-3.82-3.58-1.72-.15-3.95.95-5.22-.7-2.27-2.97-.18-7.52.15-10.74.21-2.03,0-4.19-1.23-5.89-1.38-1.91-3.69-2.82-5.73-3.83-4.59-2.25-9.28-4.35-14.17-5.88-9.09-2.86-19.28-3.7-28.27,0-8.87,3.65-15.23,11.72-19.85,19.87-5.06,8.93-7.52,20.81-.87,29.66,1.15,1.52,3.75.03,2.59-1.51-5.4-7.18-4.13-16.72-.35-24.33,1.97-3.97,4.49-7.75,7.29-11.18s5.9-6.43,9.74-8.52c7.88-4.28,17.4-4.15,25.89-1.96,4.56,1.18,8.95,2.91,13.21,4.89,2.14.99,4.32,1.97,6.37,3.13,1.85,1.05,2.54,2.53,2.46,4.63-.15,4.01-2.08,7.71-.55,11.72.63,1.65,1.79,3.06,3.51,3.62,1.14.37,2.29.23,3.46.1.47-.05,2.37-.33,2.39.52.06,1.93,3.06,1.93,3,0h0Z"/>
    <path class="lust-2" d="M371.52,203.02c4.4,3.01,7.27,7.67,8.21,12.89.5,2.78.74,5.67,2.27,8.13,1.45,2.31,3.79,3.95,4.94,6.47s1.36,5.29,2.21,7.87c.74,2.26,1.78,4.42,3.07,6.42,2.63,4.07,6.16,7.41,10,10.32,4.55,3.45,9.55,6.24,14.58,8.93,1.37.73,2.71-.72,2.05-2.05-2.48-5.04-3.69-10.57-3.61-16.18h-3c.16,6.04,6.35,8.06,10.6,10.8,1.06.69,2.08,1.51,2.75,2.6.81,1.33,1.08,2.91,1.7,4.33,1.04,2.38,3.51,4.5,6.24,3.58l-1.69-.69c.83,1.76,1.65,3.52,2.48,5.27s3.41.22,2.59-1.51-1.65-3.52-2.48-5.27c-.27-.57-1.11-.89-1.69-.69-2.38.8-3.14-3.23-3.69-4.68-.86-2.28-2.37-3.97-4.38-5.32-3.14-2.12-9.31-3.79-9.43-8.41-.05-1.93-2.97-1.94-3,0-.09,6.15,1.31,12.18,4.02,17.7l2.05-2.05c-8.52-4.56-17.83-9.61-23.31-17.88-1.31-1.97-2.37-4.09-3.08-6.34-.82-2.61-1.13-5.35-2.23-7.86s-3.32-4.23-4.88-6.5-1.73-5.26-2.23-7.96c-1.11-5.91-4.6-11.09-9.55-14.47-1.6-1.09-3.1,1.51-1.51,2.59h0Z"/>
    <path class="lust-2" d="M325.33,458.76c-3.36-2.82-7.75-3.09-11.91-3.68-2.34-.33-4.65-.89-6.98-1.27s-4.75-.84-6.97-1.8c-7.76-3.33-12.88-10.71-17.73-17.27-5.46-7.39-11.46-14.13-18.53-20.02s-15.07-11.15-23.2-15.78c-9.3-5.29-18.94-9.93-28.6-14.53l.3,2.36c3.17-3.13,7.01-5.39,10.97-7.38,4.38-2.2,8.84-4.22,13.27-6.32,9.25-4.37,18.49-8.74,27.74-13.12,9.25-4.37,18.49-8.74,27.74-13.12,7.03-3.32,15.63-6.71,19.38-14.07,3.15-6.17,1.72-15.37-5.41-17.95-1.82-.66-2.6,2.24-.8,2.89,5.6,2.03,5.81,10,3.16,14.37-1.98,3.27-5.14,5.6-8.4,7.48-3.62,2.09-7.48,3.76-11.25,5.55-17.59,8.32-35.18,16.64-52.77,24.95-4.73,2.24-9.5,4.4-14.17,6.75-4.19,2.1-8.23,4.54-11.58,7.85-.64.63-.58,1.94.3,2.36,16.9,8.06,34.08,16.25,48.84,27.93,7.19,5.69,13.6,12.18,19.09,19.53,4.95,6.63,9.73,13.9,16.87,18.4,1.96,1.24,4.1,2.22,6.33,2.87,2.88.84,5.9,1.1,8.83,1.74,2.26.5,4.57.69,6.85,1.05s4.72.84,6.52,2.35c1.47,1.23,3.6-.88,2.12-2.12h0Z"/>
    <path class="lust-2" d="M310.84,300.79c3.08-1.5,6.47-2.22,9.89-2.12,2.78.08,6.69.5,8.1,3.3,1.21,2.39.52,5.38-.24,7.79-1.04,3.28-2.41,6.59-1.91,10.11.41,2.87,2.07,5.26,3.42,7.76s2,4.92.58,7.47c-1.55,2.79-4.46,4.28-7.41,5.17-3.36,1.01-6.97,1.72-10.46,2-1.93.16-3.9.17-5.81-.18-1.47-.27-2.91-.7-4.38-.99-2.8-.56-5.96-.9-8.27,1.13-1.45,1.28.68,3.39,2.12,2.12,1.87-1.65,5.65-.31,7.73.19,3.65.88,7.2.99,10.92.47,6.46-.89,15.05-2.24,18.32-8.73,1.47-2.92,1.23-5.95-.11-8.87-1.2-2.61-3.24-4.98-3.7-7.89-.59-3.73,1.56-7.29,2.36-10.82.66-2.9.78-6.26-.94-8.84-2.14-3.2-6.31-3.99-9.89-4.17-4.1-.2-8.16.72-11.85,2.51-1.74.84-.22,3.43,1.51,2.59h0Z"/>
    <path class="lust-2" d="M293.78,318.06c-6.41,6.59-14.33,11.31-22.13,16.04-8.82,5.34-17.65,10.69-26.47,16.03-8.37,5.06-16.72,10.2-25.58,14.37-7.84,3.68-16.23,6.43-23.39,11.41-2.92,2.03-7.38,4.95-7.43,8.94-.04,3.48,3.27,5.63,6.1,6.86,1.72.75,3.51,1.27,5.26,1.94,1.94.75,3.82,1.64,5.65,2.62,3.67,1.97,7.12,4.31,10.44,6.81,6.75,5.08,12.96,10.83,19.7,15.92,7.51,5.67,15.7,10.31,23.77,15.12s15.43,9.21,21.66,15.73c5.85,6.12,10.59,13.46,13.63,21.38.74,1.92,1.37,3.89,1.91,5.88.5,1.86,3.4,1.07,2.89-.8-2.17-8.06-6.01-15.66-11.02-22.32-2.5-3.32-5.26-6.44-8.34-9.24s-6.67-5.35-10.26-7.68c-7.87-5.12-16.14-9.58-24.04-14.64-7.32-4.69-13.93-10.17-20.6-15.71s-12.9-10.51-20.37-14.12c-1.86-.9-3.78-1.71-5.74-2.39-1.6-.55-3.2-1.07-4.69-1.89-1.17-.65-2.68-1.59-2.93-3.03-.32-1.84,1.6-3.32,2.82-4.38,6.37-5.57,14.51-8.56,22.17-11.88,8.68-3.76,16.87-8.45,24.96-13.32,8.7-5.24,17.38-10.52,26.08-15.78,7.92-4.79,16.1-9.36,23.25-15.29,1.69-1.4,3.3-2.88,4.83-4.45,1.35-1.38-.77-3.51-2.12-2.12h0Z"/>
    <path class="lust-2" d="M312.05,299.59c1.44-3.19,2.55-7.21,1.78-10.72s-4.28-3.86-7.28-3.46c-3.28.44-7.04-.03-9.72,2.27-1.16.99-1.96,2.45-1.9,4.01s1.34,2.98,1.27,4.58c-.05,1.1-.59,2.16-1.05,3.14s-.95,2-1.42,3.01c-1.01,2.14-2.02,4.27-3.03,6.41-.82,1.74,1.76,3.26,2.59,1.51.95-2,1.9-4.01,2.84-6.01s2-3.85,2.66-5.87c.61-1.83.43-3.5-.32-5.25-.32-.73-.75-1.52-.41-2.33.25-.61.83-1.08,1.39-1.39,1.69-.95,3.81-.7,5.67-.89,1.4-.14,2.9-.56,4.32-.35,1.87.27,1.65,2.38,1.55,3.82-.14,2.07-.67,4.12-1.52,6.01-.79,1.75,1.8,3.27,2.59,1.51h0Z"/>
    <path class="lust-2" d="M311.59,288.1c3.35-.64,4.74-5.12,2.9-7.8-.55-.8-1.32-1.29-2.21-1.65-.56-.23-1.63-.39-1.96-.97-.28-.5-.09-1.28.01-1.81.15-.77.35-1.52.46-2.3.25-1.73-.1-3.48-1.75-4.39-.97-.54-2.15-.53-3.22-.49-1.3.05-2.6.2-3.88.42-2.43.42-4.78,1.19-7.02,2.23-1.96.91-4.47,2.05-4.98,4.38-.28,1.28.08,2.61.41,3.84.36,1.31.78,2.61,1.25,3.89,1,2.68,2.22,5.26,3.67,7.72.98,1.66,3.57.15,2.59-1.51-2.05-3.47-3.63-7.17-4.67-11.07-.2-.73-.61-1.77-.22-2.5s1.47-1.15,2.14-1.5c1.73-.92,3.57-1.62,5.46-2.12s3.95-.8,5.95-.8c1.34,0,1.48.46,1.27,1.66-.46,2.68-1.45,5.89,1.65,7.42,1.09.54,2.68.6,2.85,2.05.13,1.08-.41,2.19-1.51,2.4-1.89.36-1.09,3.25.8,2.89h0Z"/>
    <path class="lust-2" d="M293.38,279.89c-1.31-3.75-5.88-2.9-8.95-2.46-5.13.73-10.44.78-15.61.8s-10.96.08-16.29-.73c-2.29-.35-4.79-.95-6.64-2.43-.51-.41-.74-.38-.19-.68s1.21-.47,1.78-.71c1.21-.49,2.4-1.01,3.58-1.55,5.19-2.4,10.08-5.4,14.61-8.89.65-.5.98-1.28.54-2.05-.36-.64-1.41-1.03-2.05-.54-4.29,3.31-8.92,6.18-13.81,8.51-1.14.54-2.29,1.06-3.46,1.54s-2.48.79-3.45,1.56c-2.29,1.82-.62,4.36,1.27,5.63,4.31,2.9,10,2.92,15,3.15,5.99.27,12,.24,17.99-.08,2.73-.15,5.43-.37,8.14-.74.95-.13,4.2-.84,4.65.46.63,1.81,3.53,1.03,2.89-.8h0Z"/>
    <path class="lust-2" d="M245.65,271.29c-5.58.76-9.41-4.82-12.09-8.82l-1.3,2.26c10.61-.83,20.69-5.03,28.74-11.99,1.46-1.26-.67-3.38-2.12-2.12-7.42,6.41-16.85,10.35-26.62,11.11-1.05.08-1.98,1.24-1.3,2.26,3.61,5.37,8.25,11.17,15.48,10.19.81-.11,1.23-1.14,1.05-1.85-.23-.87-1.05-1.16-1.85-1.05h0Z"/>
    <path class="lust-2" d="M235.94,261.36c-2.91-1.9-5.25-4.45-6.92-7.49l-1.3,2.26c11.07.01,21.85-3.97,30.31-11.1,1.48-1.25-.65-3.36-2.12-2.12-7.84,6.61-17.95,10.23-28.19,10.22-1.16,0-1.84,1.27-1.3,2.26,1.92,3.49,4.66,6.39,8,8.56,1.62,1.06,3.13-1.54,1.51-2.59h0Z"/>
    <path class="lust-2" d="M229.85,252.71c-1.47-.98-2.79-2.12-3.96-3.43-.6-.67-2.86-3-1.79-3.93.45-.39,1.4-.37,1.97-.42.96-.09,1.92-.15,2.88-.21,2-.13,4-.22,6-.39,6.82-.56,13.89-2.05,18.92-7.04,1.37-1.36-.75-3.48-2.12-2.12-6.04,5.99-15.11,6.05-23.04,6.56-3.12.2-8.66.27-7.79,4.94.34,1.82,1.65,3.38,2.86,4.73,1.34,1.5,2.89,2.79,4.57,3.9s3.12-1.52,1.51-2.59h0Z"/>
    <path class="lust-2" d="M227.6,241.45c-2.76-4.08-5.65-8.07-8.65-11.97l-1.3,2.26c9.24-.14,21,1.06,28.13-6.1,1.36-1.37-.76-3.49-2.12-2.12-3.01,3.02-7.17,4.24-11.31,4.72-4.86.57-9.81.43-14.7.5-1.02.02-2.02,1.31-1.3,2.26,3.01,3.9,5.89,7.89,8.65,11.97,1.08,1.59,3.68.09,2.59-1.51h0Z"/>
    <path class="lust-2" d="M219.36,230.03c-3.08-4.91-4.71-10.56-6-16.16l-1.45,1.9c4.66-.3,8.63,2.8,12.98,3.95,4.58,1.21,9.51.89,13.89-.88,1.77-.71,1-3.61-.8-2.89-4.33,1.74-9.09,1.99-13.54.51-4.17-1.39-7.97-3.99-12.54-3.69-1,.07-1.68.9-1.45,1.9,1.34,5.84,3.08,11.76,6.3,16.87,1.03,1.63,3.62.13,2.59-1.51h0Z"/>
    <path class="lust-2" d="M213.72,213.99c2.37-1.94,1.71-5.45-.1-7.53-2.48-2.85-6.62-2.35-9.97-1.95-1.68.2-3.43.35-5.08-.15-1.74-.52-2.46-1.83-3.02-3.47-1.14-3.37-2.85-6.28-5.23-8.93s-5.06-4.79-7.77-6.97c-2.93-2.35-5.79-4.77-8.5-7.36-5.49-5.26-10.44-11.08-14.72-17.36-2.16-3.16-4.15-6.44-5.97-9.81-.89-1.66-1.74-3.33-2.55-5.03-.67-1.4-1.95-3.36-1.3-4.96,1.54-3.77,6.51-2.11,9.01-.6,3.02,1.83,5.63,4.27,7.93,6.92,4.65,5.36,8.06,11.65,11.9,17.58,4.03,6.22,8.69,12.01,14,17.2s11.37,9.9,17.8,13.79c3.24,1.96,6.79,4.26,10.6,4.82,2,.3,3.85-.03,5.69-.84,1.63-.72,3.15-1.77,4.92-2.12s3.61.11,5.15,1.09c1.63,1.04,3.14-1.55,1.51-2.59-3.35-2.15-7.14-1.92-10.6-.21-1.74.85-3.38,1.86-5.39,1.79s-4.07-1.04-5.88-2c-6.73-3.56-13.02-7.98-18.68-13.06s-10.83-10.93-15.13-17.29c-4.05-5.98-7.48-12.36-11.93-18.07-2.2-2.82-4.65-5.42-7.48-7.61s-6.36-4.43-10.12-4.12c-3.21.27-6.45,2.78-6.45,6.21,0,1.91,1.01,3.7,1.8,5.38s1.65,3.38,2.54,5.04c7.35,13.7,17.52,25.48,29.61,35.21,2.81,2.26,5.65,4.53,8.05,7.23,1.13,1.27,2.13,2.64,2.94,4.13.87,1.59,1.29,3.33,2.02,4.98,1.5,3.39,4.98,4.48,8.46,4.35,2.92-.12,7.97-1.83,9.96,1.2.64.97.86,2.19-.11,2.99-1.5,1.22.64,3.33,2.12,2.12h0Z"/>
    <path class="lust-2" d="M226.56,206.72c6.74,4.84,16.58,4.73,23.19-.3.65-.49.97-1.29.54-2.05-.36-.64-1.41-1.03-2.05-.54-5.85,4.45-14.18,4.59-20.16.3-1.57-1.13-3.07,1.47-1.51,2.59h0Z"/>
    <path class="lust-2" d="M258.48,202.27c7.82-.38,15.34-3.97,20.45-9.93,1.25-1.46-.86-3.59-2.12-2.12-4.59,5.36-11.26,8.71-18.32,9.05-1.92.09-1.93,3.09,0,3h0Z"/>
    <path class="lust-2" d="M285.24,194.31c1.44,1.46.84,3.81-.25,5.3-1.46,1.99-4.14,2.86-6.37,3.63-5.37,1.85-10.26,4.34-14.69,7.92-1.5,1.22.63,3.33,2.12,2.12,2.47-2,5.18-3.69,8.05-5.07s5.77-2.09,8.58-3.34c2.59-1.15,4.83-2.92,5.88-5.63.93-2.41.67-5.18-1.19-7.06-1.36-1.38-3.48.74-2.12,2.12h0Z"/>
    <path class="lust-2" d="M286.96,203.56c2.6.59,2.45,3.81,1.46,5.68-1.32,2.49-3.62,4.57-5.78,6.33-4.36,3.57-9.62,5.94-15.13,7.02-1.89.37-1.09,3.26.8,2.89,6.74-1.32,13.06-4.55,18.1-9.23,2.43-2.26,5.1-5.04,5.63-8.45.47-3.01-1.12-6.42-4.28-7.14-1.88-.43-2.68,2.47-.8,2.89h0Z"/>
    <path class="lust-2" d="M290.56,211.13c1.12,1.65,2.2,3.32,3.22,5.03.54.9,2.64,3.47,1.66,4.46-1.08,1.08-3.2,1.55-4.63,1.95-1.59.45-3.21.77-4.83,1.09-3.2.64-6.43,1.31-9.36,2.81-2.77,1.42-5.33,4.29-8.65,4.13-1.93-.09-1.93,2.91,0,3,4.02.19,6.83-2.84,10.16-4.54s7.37-2.19,11.07-3.01c1.87-.41,3.71-.92,5.48-1.67,1.61-.68,3.44-1.54,3.93-3.39s-.73-3.76-1.65-5.32c-1.21-2.06-2.49-4.08-3.83-6.06-1.08-1.59-3.68-.09-2.59,1.51h0Z"/>
    <path class="lust-2" d="M294.53,223.55c.95.72,1.81,1.56,2.59,2.46.39.45.75.93,1.08,1.43.27.4.83,1.03.9,1.5s.07.45-.5.67-1.16.31-1.74.44c-1.4.32-2.81.64-4.21.97-5.61,1.29-11.23,2.58-16.84,3.87-1.88.43-1.08,3.32.8,2.89,7.02-1.61,14.04-3.22,21.06-4.83,1.27-.29,2.69-.56,3.65-1.54s1.06-2.41.52-3.65c-1.18-2.72-3.47-5.02-5.79-6.79-1.54-1.17-3.03,1.44-1.51,2.59h0Z"/>
    <path class="lust-2" d="M297.34,232.08c2.38,1.49,4.29,3.71,5.33,6.32.2.51.67,1.39.59,1.95.22-.15.22-.21,0-.16-.2,0-.4.01-.6.01-.45,0-.9,0-1.35,0-1.8,0-3.6-.04-5.4.01-5.86.18-12.13,1.67-15.54,6.88-1.06,1.62,1.54,3.13,2.59,1.51,4.08-6.23,12.83-5.35,19.25-5.41,1.54-.01,3.32-.09,3.9-1.83.51-1.52-.37-3.42-.99-4.79-1.33-2.94-3.56-5.39-6.28-7.1-1.64-1.03-3.15,1.57-1.51,2.59h0Z"/>
    <path class="lust-2" d="M302.95,243.65c1.02,1.1,1.58,2.61,1.37,4.12l.69-.9c-3.56,2.52-8.52,1.48-12.58,2.5-4.32,1.09-8.27,3.52-11.21,6.86-1.27,1.44.84,3.57,2.12,2.12,1.91-2.17,4.23-3.91,6.88-5.07s5.56-1.49,8.51-1.68c2.61-.18,5.88-.41,7.95-2.25,1.02-.9.73-2.85.46-4.06-.32-1.43-1.07-2.69-2.06-3.76-1.31-1.42-3.43.71-2.12,2.12h0Z"/>
    <path class="lust-2" d="M304.79,248.98c1.47,1.48,1.8,3.78,1.04,5.7-.99,2.48-3.62,3.18-6.05,3.35-2.99.21-5.96.15-8.94.58-3.32.47-6.55,1.32-9.68,2.51-1.79.68-1.01,3.58.8,2.89,3.64-1.38,7.44-2.33,11.32-2.69,3.38-.32,7.06.18,10.32-.95,2.72-.94,4.8-3.01,5.42-5.87s-.1-5.63-2.09-7.64c-1.36-1.37-3.48.75-2.12,2.12h0Z"/>
    <path class="lust-2" d="M298.04,262.82c1.49,2.43,2.98,4.85,4.47,7.28.41.67,1.36.98,2.05.54s.98-1.34.54-2.05c-1.49-2.43-2.98-4.85-4.47-7.28-.41-.67-1.36-.98-2.05-.54s-.98,1.34-.54,2.05h0Z"/>
    <path class="lust-2" d="M165.92,140.98c-.74-.7-.4-2.41-.22-3.28.29-1.44.75-2.78,1.94-3.72,1.56-1.23,3.62-1.71,5.5-2.18,2.18-.55,4.4-.97,6.6-1.41,4.24-.86,8.44-1.88,12.31-3.86,3.16-1.61,6.03-3.74,8.75-6,5.51-4.58,10.4-9.98,16.47-13.85,1.46-.93,2.99-1.78,4.58-2.46s3.85-1.81,5.46-1.02,2.47,2.84,3.33,4.3c1.04,1.78,2.17,3.5,3.36,5.18,5.43,7.61,12.26,14.11,20.12,19.17.89.57,2.38-.16,2.26-1.3-.67-6.14-2.75-11.99-6.25-17.09l-2.59,1.51c4.19,5.61,9.67,10.12,16.07,12.98,1.24.56,2.43-.35,2.2-1.69-.99-6.01-3.23-11.76-6.54-16.87l-1.3,2.26c4.7-.44,9.43.48,13.58,2.75,2.08,1.14,3.93,2.57,5.58,4.26s3.15,3.5,5.04,4.92c3,2.26,7.57,3.16,10.69.58.6-.5,1.17-1.15,1.47-1.88.49-1.17-.36-2.33-.96-3.32-1.25-2.04-2.85-3.84-4.36-5.68-2.63-3.19-6.29-8.89-2.79-12.79,1.05-1.17,0-2.74-1.46-2.51-5.77.94-11.74.99-17.52.11-2.81-.43-5.59-1.07-8.3-1.9-2.91-.89-5.65-2.13-8.47-3.25-2.63-1.05-5.44-1.89-8.3-1.55-1.35.16-2.57.74-3.9.95-1.52.25-2.9-.43-4.3-.91-5.34-1.85-10.99-.9-16.12,1.16-5.41,2.17-10.33,5.31-15.42,8.1s-10.45,5.48-15.82,7.91c-10.84,4.91-22.06,8.97-33.53,12.15-4.14,1.15-10.12,3.12-10.66,8.17-.24,2.24.92,4.38,1.85,6.34.86,1.81,2.25,4.01,2.03,6.1-.2,1.92,2.8,1.9,3,0,.41-3.92-2.9-7.3-3.8-10.94-1.02-4.1,5.05-5.87,7.93-6.66,11.06-3.06,21.88-6.91,32.38-11.54,5.33-2.35,10.57-4.89,15.71-7.63s9.75-5.7,14.85-8.11c4.79-2.26,10.29-4,15.57-2.56,1.26.34,2.46.92,3.73,1.23,1.46.35,2.84.26,4.27-.15,1.35-.38,2.57-.76,4-.69,1.52.07,3.01.51,4.43,1.02,3.01,1.07,5.87,2.49,8.92,3.48s6.05,1.7,9.16,2.17c6.36.97,12.77.93,19.12-.11l-1.46-2.51c-3.05,3.39-2.56,8.18-.68,12.04,2.14,4.38,6.25,7.43,8.32,11.86v-1.51c-1.14,2.33-4.31,2.36-6.38,1.31-3.19-1.61-5.2-4.92-7.87-7.2-5.36-4.58-12.49-6.88-19.52-6.23-1.06.1-1.96,1.22-1.3,2.26,3.18,4.92,5.28,10.37,6.24,16.15l2.2-1.69c-5.91-2.65-11.12-6.71-15-11.91-1.13-1.51-3.7-.1-2.59,1.51,3.18,4.64,5.23,9.97,5.84,15.57l2.26-1.3c-7.52-4.84-14.12-11.11-19.28-18.43-1.27-1.8-2.44-3.66-3.54-5.56-.94-1.63-1.96-3.34-3.56-4.41-3.43-2.27-8.24.25-11.41,1.98-6.75,3.69-12.06,9.42-17.81,14.4-2.89,2.5-5.95,4.85-9.35,6.61-4.15,2.15-8.75,3.04-13.3,3.95-2.57.52-5.18,1.01-7.68,1.85-2.08.7-4.22,1.74-5.5,3.61-1.66,2.41-2.83,7.56-.42,9.85,1.4,1.33,3.52-.79,2.12-2.12h0Z"/>
    <path class="lust-2" d="M282.37,143.84c.66,3.6.79,7.29.41,10.93-.35,3.34-1.06,7.08-2.59,10.1-.3.59-.65,1.18-1.19,1.6-.64.5-1.46.73-2.13,1.2-1.16.82-1.93,2.04-2.3,3.41-.91,3.38.93,6.71.19,10.05l1.05-1.05c-6.9,1.55-13.49,4.31-19.44,8.12-1.62,1.04-.12,3.64,1.51,2.59,5.76-3.68,12.06-6.31,18.73-7.82.48-.11.94-.56,1.05-1.05.43-1.92.2-3.77-.11-5.69-.24-1.52-.53-3.19.01-4.69s2.04-1.8,3.24-2.71c1.28-.97,2-2.38,2.58-3.84,2.74-6.91,3.21-14.68,1.87-21.95-.35-1.9-3.24-1.09-2.89.8h0Z"/>
    <path class="lust-2" d="M289.96,197.31c1.46-15.13,4.57-30.06,6.9-45.06.29-1.89-2.6-2.7-2.89-.8-2.37,15.27-5.52,30.46-7.01,45.86-.19,1.92,2.82,1.91,3,0h0Z"/>
    <path class="lust-2" d="M303.05,130.86c1.06-5.96,1.13-11.96.2-17.94l-1.85,1.85c15.05,4.54,30.05,9.23,45.15,13.6,6.08,1.76,13.83,2.81,18.62-2.41.45-.49,1.11-1.16,1.29-1.83.19-.72-.23-1.46-.43-2.13-.58-1.97-.96-3.99-1.1-6.03-.11-1.63-.19-3.36.06-4.98.12-.76.28-1.25,1.08-1.42s1.76-.07,2.57-.02c3.94.25,7.8,1.51,11.77,1.04,3.23-.38,6.23-1.71,8.08-4.48.55-.82-.01-1.95-.9-2.2-3.41-.96-6.79-1.99-10.15-3.1-1.6-.53-3.2-1.08-4.79-1.64-1.44-.51-2.97-.95-4.32-1.68-.82-.44-2.02-1.21-1.62-2.32s1.9-1.58,2.97-1.46c2.28.25,4.34,2.69,3.91,5-.35,1.89,2.54,2.7,2.89.8.68-3.67-1.58-7.28-5.1-8.47-3.28-1.11-8.05.89-7.72,4.88s5.75,5.28,8.88,6.38c4.71,1.65,9.46,3.15,14.26,4.51l-.9-2.2c-1.64,2.46-4.85,3.15-7.64,3.11-3.79-.05-7.47-1.28-11.28-1.2-1.56.03-3.17.35-4.12,1.71-.9,1.28-.94,2.98-1,4.49-.15,3.87.45,7.77,1.69,11.43l.15-1.16c-1.95,2.9-5.6,3.96-8.94,3.89-4.3-.09-8.5-1.71-12.57-2.93-8.49-2.56-16.99-5.12-25.48-7.68-4.84-1.46-9.68-2.92-14.53-4.38-1.2-.36-2.01.78-1.85,1.85.83,5.41.76,10.96-.2,16.34-.34,1.89,2.55,2.7,2.89.8h0Z"/>
    <path class="lust-2" d="M376.23,91.37h.55c.29-.11.53-.07.72.13.08.08.1.16.16.25.09.14.03.07.01,0,.06.27.04.38-.09.69,0,0-.17.2-.06.08s-.07.06-.08.06c.17-.15.05-.02-.04,0,.08-.02.15-.05.23-.07.14-.03.27-.06.41-.08.07-.01.14-.02.21-.03-.23.03.03,0,.06,0,.36-.04.72-.08,1.09-.09s.72-.01,1.08.01c.1,0,.21.02.31.03-.04,0-.19-.04-.02,0,.2.05.4.08.6.14.16.05.32.1.48.16-.25-.09-.02,0,.09.05.13.07.25.14.37.22.05.03.1.07.15.11-.25-.17-.02-.01.03.04.11.09.21.19.31.3.09.1.2.29.07.07.07.12.15.23.22.36.02.04.14.27.05.09s.02.06.03.1c.04.13.07.27.1.4-.06-.29-.01-.01-.02.14,0,.06,0,.12-.01.18,0-.06.07-.32,0-.05-.04.13-.08.26-.12.39-.06.2.13-.21.01-.04-.03.05-.05.1-.08.15-.04.07-.08.13-.12.2-.02.03-.14.18-.02.04s-.01,0-.03.03c-.05.06-.11.12-.16.17-.11.11-.23.22-.36.32.2-.16.01-.02-.09.05-.12.08-.24.15-.37.21-.05.03-.11.05-.16.08.25-.14.1-.04.02-.01-.15.05-.3.11-.46.15-.07.02-.53.11-.31.08-.21.03-.42.04-.63.04s-.42,0-.63-.01c-.08,0-.16-.01-.24-.02-.03,0-.31-.03-.2-.02.16.02-.17-.03-.2-.03-.11-.02-.21-.04-.32-.06-.21-.04-.42-.08-.63-.13-.45-.1-.89-.21-1.33-.33-.76-.2-1.66.25-1.85,1.05s.24,1.63,1.05,1.85c2.05.53,4.35,1.09,6.43.37,1.75-.61,3.43-2.03,3.73-3.94.32-2.07-.79-3.97-2.56-5.01-1.91-1.12-4.21-.99-6.32-.66-1.25.19-2.59.99-2.6,2.41,0,.64.26,1.3.74,1.73.68.61,1.49.64,2.3.28.72-.31.94-1.43.54-2.05-.48-.75-1.28-.87-2.05-.54h0Z"/>
    <path class="lust-2" d="M385.57,94.04c.07-.04.53-.24.16-.09.1-.04.21-.08.32-.12.25-.08.5-.14.76-.19.31-.07-.3.01.04,0,.11,0,.22-.02.33-.02.26,0,.52,0,.78.02.38.02-.33-.07.05,0,.13.02.26.05.39.08.24.05.48.12.71.2.13.04.25.1.37.14.1.04.07.03-.1-.04.07.03.14.06.21.1.22.11.44.23.65.36s.42.27.61.42c-.29-.22-.01,0,.05.05.11.1.23.2.33.31.16.16.31.33.46.5.1.13.1.12-.02-.04.05.06.09.12.13.18.06.09.13.18.19.28.14.22.26.45.37.69.14.28-.08-.27.02.05.03.11.07.21.11.32.08.25.13.5.17.76-.07-.4-.01-.03,0,.05,0,.15.01.3,0,.46-.01.78.7,1.54,1.5,1.5s1.49-.66,1.5-1.5c.09-5.63-6.68-9.63-11.6-7.03-.7.37-.96,1.39-.54,2.05.46.71,1.31.93,2.05.54h0Z"/>
    <path class="lust-2" d="M364.4,93.37c-4.39-.88-7.68,2.54-9.09,6.38-1.82,4.96.38,10.36-1.2,15.37l2.95.4c.12-1.61-.89-2.95-2.3-3.64-1.63-.8-3.38-.69-5.05-.09-.93.34-1.81.78-2.76,1.06-1.19.35-2.23.17-3.38-.26-2.23-.84-4.39-1.9-6.57-2.86-4.55-1.99-9.1-3.99-13.66-5.98-4.16-1.81-8.36-3.59-12.75-4.79-4.96-1.36-10.09-1.86-15.16-.88-.64.12-1.1.83-1.1,1.45,0,1.54,0,3.07,0,4.61l2.56-1.06c-1.78-2.23-5.21-2.21-7.48-.76-2.73,1.74-3.67,5.06-4.37,8.03-.44,1.88,2.45,2.68,2.89.8.48-2.01.95-4.42,2.55-5.88,1.19-1.09,3.2-1.43,4.29-.07.84,1.06,2.56.14,2.56-1.06,0-1.54,0-3.07,0-4.61l-1.1,1.45c8.3-1.61,16.6,1.5,24.12,4.73,4.07,1.75,8.12,3.55,12.17,5.32,2.06.9,4.11,1.8,6.17,2.7,1.85.81,3.76,1.89,5.77,2.23,2.3.39,4.15-.61,6.26-1.34.89-.31,3.47-.7,3.35.91-.13,1.74,2.46,1.95,2.95.4,1.4-4.42.02-8.88.67-13.35.4-2.74,2.56-6.98,5.93-6.3,1.89.38,2.69-2.51.8-2.89h0Z"/>
    <path class="lust-2" d="M237.38,197.61c1.98.52,4.06.19,5.72-1.04.67-.5.95-1.27.54-2.05-1.99-3.78-3.3-7.83-3.97-12.05-.13-.83-1.13-1.21-1.85-1.05-5.36,1.2-10.58-2.12-15.53-3.65-2.74-.84-5.45-1.15-8.29-.78-1.61.21-3.16.43-4.75-.01-1.49-.41-2.84-1.2-4.12-2.04-4.65-3.06-9.41-6.8-12.54-11.45-1.49-2.21-2.62-4.7-2.95-7.37-.38-3.08.35-6.21,1.64-9,2.63-5.72,7.16-10.4,11.87-14.46,2.39-2.06,4.87-4,7.39-5.89,2.38-1.78,4.91-3.55,7.77-4.46,5.9-1.86,11.76,1.02,16.09,4.96,2.23,2.03,4.3,4.36,5.72,7.03,1.34,2.51,1.67,5.49,4,7.38,2.06,1.67,4.72,2.13,6.92,3.54,2.6,1.67,2.02,5.16,3.15,7.72,1.33,3.02,3.8,5.3,5.93,7.76,1.95,2.26,4.2,5.76,2.83,8.84l1.3-.74c-6.7.26-13.07,2.99-17.85,7.7-1.38,1.36.74,3.48,2.12,2.12,4.21-4.15,9.82-6.6,15.72-6.82.49-.02,1.08-.26,1.3-.74,1.34-2.99.78-6.08-.75-8.9s-3.98-4.96-5.98-7.43c-.97-1.2-1.84-2.53-2.28-4.02-.46-1.56-.45-3.22-1.07-4.74-1.04-2.52-3.37-3.7-5.75-4.69-1.12-.47-2.28-.91-3.29-1.59-1.26-.85-1.79-2.1-2.28-3.48-1.12-3.17-2.81-5.89-5.04-8.41-4.2-4.74-10.05-8.9-16.6-9.08s-12.43,4.57-17.51,8.56c-5.35,4.21-10.49,8.84-14.23,14.59s-5.52,12.2-3.14,18.57c2.15,5.75,6.74,10.15,11.49,13.84,2.81,2.18,5.83,4.65,9.32,5.61s7.23-.55,10.88.22c6.5,1.37,12.38,5.77,19.29,4.22l-1.85-1.05c.71,4.47,2.17,8.76,4.27,12.77l.54-2.05c-1.03.77-2.14,1.07-3.41.74-1.87-.49-2.67,2.4-.8,2.89h0Z"/>
    <path class="lust-2" d="M254.63,174.52c-1.42,5.17-.73,10.76,1.88,15.44.94,1.69,3.53.17,2.59-1.51-2.23-3.99-2.79-8.73-1.58-13.13.51-1.86-2.38-2.66-2.89-.8h0Z"/>
    <path class="lust-2" d="M292.71,306.76c-2.31.1-4.14-1.11-6.12-2.11s-4.16-1.31-6.14-2.25c-2.28-1.08-3.33-2.82-4.1-5.15-.69-2.09-1.33-4.14-2.78-5.84s-3.54-2.92-5.58-3.89-4.26-2.18-6.48-1.18c-2.02.92-2.99,3.07-3.81,5-.95,2.22-1.82,4.54-1.9,6.99s.99,4.53,2.13,6.66c.91,1.7,2.27,3.77,2.14,5.78s2.87,1.92,3,0c.24-3.53-2.5-6.64-3.8-9.72-.9-2.12-.36-4.43.37-6.51.55-1.58,1.35-4.5,2.95-5.38.97-.54,2.12.14,3.01.55.99.45,1.98.92,2.93,1.47,1.79,1.04,3.25,2.37,4.06,4.31s1.18,4.07,2.28,5.9,2.82,3.08,4.77,3.91c2.15.91,4.35,1.36,6.43,2.46s4.2,2.1,6.65,2c1.92-.08,1.93-3.08,0-3h0Z"/>
    <path class="lust-2" d="M261.17,312.21c2.92.43,5.41,3.13,5.03,6.19s-3.48,5.22-6.36,4.74c-3.17-.52-5.42-3.42-7.6-5.51-2.52-2.42-5.4-4.18-8.69-5.35s-6.94-1.76-10.48-2.23c-4.22-.56-8.45-1.06-12.67-1.58-8.85-1.1-17.69-2.2-26.54-3.3-9.65-1.2-19.6-3.17-29.35-2.19-1.17.12-1.82,1.17-1.3,2.26,8.9,18.4,20.57,35.68,26.58,55.37,1.63,5.34,2.79,10.82,3.2,16.4.14,1.91,3.14,1.93,3,0-1.57-20.91-12.38-39.71-22.13-57.76-2.77-5.13-5.52-10.27-8.06-15.52l-1.3,2.26c9.35-.94,18.85.89,28.11,2.04s19.02,2.37,28.52,3.55c4.51.56,9.05,1.04,13.54,1.72,3.76.57,7.6,1.37,10.98,3.17s5.46,4.62,8.29,6.93c2.62,2.14,5.9,3.54,9.28,2.38,3.6-1.24,6.38-4.8,5.96-8.71s-3.4-7.18-7.22-7.75c-1.89-.28-2.7,2.61-.8,2.89h0Z"/>
    <path class="lust-2" d="M258.04,302.1c-8.82,1.85-17.73-.53-26.19-2.94s-17.38-4.62-26.34-5.86-17.47-1.33-26.24-1.98c-4.29-.32-8.58-.87-12.73-2.04s-7.76-3.43-11.94-3.92c-3.55-.42-7.97.96-9.22,4.67-1.01,2.99.61,7.09,4,7.55,1.52.21,2.84-1.91,1.16-2.74-4.64-2.3-8.4,3.35-7.51,7.53.54,2.55,2.18,4.68,3.46,6.89,1.42,2.46,1.97,5.12,2.19,7.92s.29,5.75.71,8.61,1.1,5.6,2,8.3c1.76,5.32,4.27,10.37,7.09,15.2,2.98,5.09,6.33,9.96,9.66,14.83,3.65,5.35,7.3,10.7,10.95,16.05s7.49,10.97,11.23,16.46,7.41,10.39,10.73,15.79c.83,1.35,1.57,2.8,1.65,4.41s-.47,3.19-1.1,4.64c-1.31,3.01-2.78,5.89-3.81,9.02-2.11,6.43-2.95,13.27-2.51,20.02l1.9-1.45c-9.33-1.39-18.87,1.43-25.88,7.76-.79.71-.42,1.81.3,2.36,2.9,2.16,6.73,2.77,10.18,1.72l-1.16-2.74c-4.25,2.93-7.37,7.13-8.9,12.07-.36,1.18.78,2.04,1.85,1.85,4.29-.77,8.21-2.7,11.52-5.52l-2.12-2.12c-4.48,5.63-8,11.88-10.48,18.64-.24.66.17,1.33.69,1.69,2.07,1.44,4.61,1.03,6.72-.08,2.28-1.2,3.8-3.26,5.74-4.89.89-.75,1.95-1.44,3.15-1.51,1.36-.08,2.67.61,4.05.58,2.03-.04,3.71-1.23,4.63-3.01s1.24-3.88,1.67-5.87c.46-2.16,1.22-4,2.57-5.77,2.99-3.89,6.76-6.98,7.5-12.12s-1.42-10.97,1.66-15.39c1.57-2.26,4.21-2.34,6.71-2.23s5.01.28,7.34-.79c3.62-1.66,5.78-5.59,6.04-9.46.31-4.7-2.6-8.13-6.62-10.16-2.62-1.32-5.35-2.33-7.87-3.87-2.38-1.45-4.57-3.17-6.56-5.13-4.06-4-7.19-8.9-9.03-14.3-.62-1.82-3.52-1.04-2.89.8,3.11,9.14,9.54,17.02,17.95,21.8,2.16,1.23,4.49,2.1,6.71,3.2,1.94.96,3.97,2.21,4.83,4.3,1.3,3.12.09,7.16-2.49,9.27-3.74,3.06-9.13.21-13.35,2.13s-5.49,7.14-5.43,11.45c.04,2.79.5,5.67-.04,8.43-.45,2.33-1.73,4.25-3.24,6.03s-3.04,3.34-4.32,5.2-1.93,3.7-2.37,5.79c-.4,1.87-.55,4.4-1.84,5.92-.63.74-1.46.82-2.38.68-1.49-.23-2.81-.67-4.33-.37-2.61.51-4.58,2.58-6.38,4.38-1.58,1.59-4.31,3.98-6.6,2.37l.69,1.69c2.29-6.24,5.58-12.11,9.71-17.31,1.19-1.5-.63-3.39-2.12-2.12-2.92,2.49-6.42,4.07-10.19,4.75l1.85,1.85c1.28-4.16,3.92-7.8,7.52-10.27,1.33-.92.56-3.26-1.16-2.74-2.76.84-5.56.3-7.87-1.42l.3,2.36c6.15-5.55,14.76-8.22,22.97-6.99.89.13,1.97-.37,1.9-1.45-.38-5.75.18-11.5,1.74-17.06.78-2.78,1.8-5.47,3.04-8.07,1.17-2.45,2.45-4.93,2.63-7.69s-1.05-5.27-2.51-7.51c-1.69-2.58-3.47-5.11-5.21-7.66-3.56-5.21-7.11-10.42-10.67-15.64-6.96-10.2-14.01-20.33-20.85-30.61-6.01-9.02-11.78-18.6-13.83-29.38-1.13-5.92-.16-12.37-2.86-17.92-1.19-2.45-3.31-4.66-3.82-7.4-.27-1.46,1.02-5.17,3.1-4.14l1.16-2.74c-1.15-.16-1.83-.96-2.04-2.09-.25-1.32.3-2.46,1.38-3.24,2.9-2.1,6.78-.74,9.73.45,3.71,1.5,7.38,2.76,11.32,3.47s7.76,1.02,11.66,1.24c8.33.46,16.61.76,24.87,2.03s16.5,3.41,24.64,5.71c8.81,2.49,17.96,4.66,27.1,2.74,1.89-.4,1.09-3.29-.8-2.89h0Z"/>
    <path class="lust-2" d="M263.82,326.13c1.15,1.73,1.72,3.62,2.2,5.7s.75,3.98.65,6.12c-.04.81.72,1.5,1.5,1.5.84,0,1.46-.69,1.5-1.5.11-2.31-.24-4.67-.76-6.92s-1.23-4.52-2.5-6.42c-.45-.67-1.32-.96-2.05-.54-.67.39-.99,1.38-.54,2.05h0Z"/>
  </g>
  <g id="lines_and_fire" data-name="lines and fire">
    <path class="lust-2" d="M348.15,6c46.19,0,91,9.05,133.18,26.89,40.74,17.23,77.33,41.9,108.76,73.33,31.42,31.42,56.1,68.02,73.33,108.76,17.84,42.18,26.89,86.99,26.89,133.18s-9.05,91-26.89,133.18c-17.23,40.74-41.9,77.33-73.33,108.76-31.42,31.42-68.02,56.1-108.76,73.33-42.18,17.84-86.99,26.89-133.18,26.89s-91-9.05-133.18-26.89c-40.74-17.23-77.33-41.9-108.76-73.33-31.42-31.42-56.1-68.02-73.33-108.76-17.84-42.18-26.89-86.99-26.89-133.18s9.05-91,26.89-133.18c17.23-40.74,41.9-77.33,73.33-108.76s68.02-56.1,108.76-73.33c42.18-17.84,86.99-26.89,133.18-26.89M348.15,2C156.98,2,2,156.98,2,348.15s154.98,346.15,346.15,346.15,346.15-154.98,346.15-346.15S539.33,2,348.15,2h0Z"/>
    <path class="lust-1" d="M91.88,578.98c18.95-6.44,17.46-28.87,16.73-33.43-.06-.46.33-.74.72-.51,5.32,2.99,32.65,21.22,30.79,36.06-1.2,9.34-5.67,10.61-9.19,10.02-.62-.1-.67.91-.06,1.24,5.93,3.33,24.45,2.17,33.54-11.84,13.04-19.72,39.84-24.79,41.02-25.19.02,0,.04-.01.06-.01.68-.08,12.17-2.26,13.39-22.73,1.13-18.59,24.84-38.42,29.61-42.58.37-.3.82.06.82.66.04,5.97,1.26,30.17,19.05,47.03,20.41,19.32,13.49,65.52,13.46,65.42.02-.07-4.02,19.74,24.38,33.41,27.89,13.01,31.29-23.02,31.4-24.38,0-.04,0-.07.01-.1.21-1.29,4.46-24.38,26.43-37.1,20.2-11.82,13.04-57.74,11.36-67.36-.12-.69.35-1.27.78-.96,6.28,4.81,37.76,28.37,41.36,48.64,3.98,22.69,3.3,49.07,26.05,57.49,20.81,7.56,29.11,25.55,30.37,28.6.11.26.33.37.56.29,2.88-.94,20.81-9.05,28.12-32.53,7.97-25.23-2.3-27.1,12.36-40.81,12.33-11.43,14.03-28.44,14.26-33.6.03-.59.59-.91.93-.53,4.61,5.61,24.95,27.44,21.07,45.36-4.1,21.86,51.42-.5,51.22-1.02"/>
    <path class="lust-1" d="M109.39,546.01c-42.86-52.87-68.86-124.5-68.86-197.86,0-169.9,137.73-307.63,307.63-307.63s307.63,137.73,307.63,307.63c0,91.86-40.26,174.31-104.1,230.68"/>
    <path class="lust-1" d="M454.05,90.39c89.06,38.41,159.81,126.82,168.75,230.22,5.87,67.98-4.41,121.46-53.49,188.55"/>
    <path class="lust-1" d="M237.8,93.91c22.38-8.28,65.4-18.95,90.32-21.11,36.93-3.19,79.34,2.35,112.58,12.94"/>
    <path class="lust-1" d="M181.15,563.82c-70.67-64-95.24-131.67-100.83-196.35-6.91-79.95,23.55-157.37,74.29-211.76"/>
    <path class="lust-1" d="M555.91,527.51c-3.2,3.84-13.42,12.52-16.88,16.5"/>
  </g>
</svg>