<svg id="treacharous" xmlns="http://www.w3.org/2000/svg" viewBox="0 0 694.31 696.31">
  <g id="lines_and_fire" data-name="lines and fire">
    <path class="trchry-2" d="M348.15,6c46.19,0,91,9.05,133.18,26.89,40.74,17.23,77.33,41.9,108.76,73.33,31.42,31.42,56.1,68.02,73.33,108.76,17.84,42.18,26.89,86.99,26.89,133.18s-9.05,91-26.89,133.18c-17.23,40.74-41.9,77.33-73.33,108.76-31.42,31.42-68.02,56.1-108.76,73.33-42.18,17.84-86.99,26.89-133.18,26.89s-91-9.05-133.18-26.89c-40.74-17.23-77.33-41.9-108.76-73.33-31.42-31.42-56.1-68.02-73.33-108.76-17.84-42.18-26.89-86.99-26.89-133.18s9.05-91,26.89-133.18c17.23-40.74,41.9-77.33,73.33-108.76s68.02-56.1,108.76-73.33c42.18-17.84,86.99-26.89,133.18-26.89M348.15,2C156.98,2,2,156.98,2,348.15s154.98,346.15,346.15,346.15,346.15-154.98,346.15-346.15S539.33,2,348.15,2h0Z"/>
    <path class="trchry-1" d="M91.88,578.98c18.95-6.44,17.46-28.87,16.73-33.43-.06-.46.33-.74.72-.51,5.32,2.99,32.65,21.22,30.79,36.06-1.2,9.34-5.67,10.61-9.19,10.02-.62-.1-.67.91-.06,1.24,5.93,3.33,24.45,2.17,33.54-11.84,13.04-19.72,39.84-24.79,41.02-25.19.02,0,.04-.01.06-.01.68-.08,12.17-2.26,13.39-22.73,1.13-18.59,24.84-38.42,29.61-42.58.37-.3.82.06.82.66.04,5.97,1.26,30.17,19.05,47.03,20.41,19.32,13.49,65.52,13.46,65.42.02-.07-4.02,19.74,24.38,33.41,27.89,13.01,31.29-23.02,31.4-24.38,0-.04,0-.07.01-.1.21-1.29,4.46-24.38,26.43-37.1,20.2-11.82,13.04-57.74,11.36-67.36-.12-.69.35-1.27.78-.96,6.28,4.81,37.76,28.37,41.36,48.64,3.98,22.69,3.3,49.07,26.05,57.49,20.81,7.56,29.11,25.55,30.37,28.6.11.26.33.37.56.29,2.88-.94,20.81-9.05,28.12-32.53,7.97-25.23-2.3-27.1,12.36-40.81,12.33-11.43,14.03-28.44,14.26-33.6.03-.59.59-.91.93-.53,4.61,5.61,24.95,27.44,21.07,45.36-4.1,21.86,51.42-.5,51.22-1.02"/>
  </g>
  <path class="trchry-2" d="M20.48,249.1c15.01-19.91,30.02-39.82,45.03-59.73l-2.8-.76c.36,8.69,3.86,24.6,15.6,23.27,4.98-.57,8.45-4.44,11.46-8.07s6.21-8.43,11.38-8.01l-1.45-1.1c9.58,31,20.4,61.61,32.46,91.73,3.35,8.36,6.79,16.68,10.33,24.96.49,1.15,2.01.79,2.59,0,1.66-2.26,3.32-4.52,4.99-6.77l-2.8-.76c.46,5.83,6.45,9.01,11.86,8.27,7-.96,11.02-7.98,13.52-13.86h-2.59c9.36,17.69,18.71,35.37,28.07,53.06,4.68,8.84,9.36,17.69,14.03,26.53,3.77,7.13,7.54,14.79,14.22,19.67,6.31,4.62,15.35,5.75,21.72.7l-2.56-1.06c.83,14.8,5.16,29.29,12.55,42.14,3.68,6.4,8.11,12.4,13.17,17.78,2.63,2.79,5.43,5.41,8.39,7.85s6.17,4.88,8.63,7.93c5.37,6.65,6.85,15.94,8.88,24.01,2.23,8.9,4.34,17.83,6.3,26.8,3.93,17.93,7.32,35.97,10.17,54.1,3.23,20.59,5.75,41.29,7.57,62.05.17,1.91,3.17,1.93,3,0-3.19-36.41-8.53-72.63-16.02-108.4-1.88-8.98-3.9-17.93-6.05-26.86-2.02-8.39-3.67-17.2-6.86-25.24-1.41-3.57-3.27-6.88-5.87-9.72s-5.81-5.22-8.79-7.75c-5.8-4.93-10.97-10.6-15.34-16.83-9.86-14.05-15.77-30.72-16.74-47.86-.08-1.38-1.55-1.87-2.56-1.06-6.1,4.84-14.88,1.99-20.04-2.83-5.83-5.45-9.19-13.17-12.86-20.11-8.59-16.23-17.18-32.47-25.76-48.7-4.89-9.24-9.77-18.48-14.66-27.72-.48-.92-2.15-1.04-2.59,0-1.96,4.61-4.64,10.11-9.65,12-3.74,1.42-9.78-.29-10.14-4.89-.12-1.54-1.91-1.96-2.8-.76-1.66,2.26-3.32,4.52-4.99,6.77h2.59c-12.61-29.59-24.03-59.69-34.21-90.21-2.85-8.56-5.61-17.15-8.27-25.76-.21-.68-.76-1.05-1.45-1.1-9.68-.78-12.82,11.2-20.09,15.12-11.07,5.96-15.05-12.02-15.35-19.3-.07-1.58-1.92-1.91-2.8-.76-15.01,19.91-30.02,39.82-45.03,59.73-1.16,1.54,1.44,3.04,2.59,1.51h0Z"/>
  <path class="trchry-2" d="M395.93,524.22c7.74-22.52,11.12-46.21,17.71-69.05,6.8-23.56,15.66-46.45,24.25-69.4,4.91-13.11,9.78-26.25,14.27-39.51l-2.51.66c9.7,12.36,11.17,29.03,20.58,41.59.79,1.06,2.27.91,2.74-.36.51-1.37.57-1.56,2.18-1.11,1.33.37,2.25.85,3.58.21.93-.45,1.51-1.01,1.99-1.9,3.17-5.99,5.88-12.26,8.63-18.45,5.46-12.28,10.57-24.71,16.07-36.97,1.37-3.05,2.76-6.08,4.18-9.11s2.96-5.8,4.21-8.79c2.46-5.9,4.15-12.09,5.72-18.28,3.23-12.68,3.26-26.01,3.85-39.01.66-14.55,1.79-29.34,7.51-42.92l-2.74.36c9.02,16.78,17.29,34.74,31.99,47.43.79.68,1.75.51,2.36-.3,4.67-6.31,4.63-14.75,9.28-21.05h-2.59c7.52,11.35,14.41,24.29,26.96,30.83.78.41,2.03.11,2.2-.9,3.28-19.23,11.91-36.85,20.6-54.13,2.45-4.87,4.92-9.74,7.29-14.66.84-1.73-1.75-3.25-2.59-1.51-8.48,17.56-18.22,34.67-24.2,53.32-1.7,5.3-3.06,10.7-3.99,16.18l2.2-.9c-12.08-6.29-18.65-18.83-25.89-29.75-.66-1-1.91-.92-2.59,0-4.66,6.32-4.62,14.76-9.28,21.05l2.36-.3c-14.51-12.52-22.63-30.26-31.53-46.82-.68-1.26-2.28-.74-2.74.36-10.32,24.48-5.67,51.53-10.2,77.1-.57,3.22-1.55,6.42-2.41,9.58s-1.75,6.16-2.81,9.19c-2.19,6.24-5.46,12.09-8.21,18.1-5.58,12.23-10.7,24.66-16.1,36.96-3.02,6.88-6.13,13.73-9.45,20.47-.24.49-.53,1.52-.96,1.87-.63.49-1.47-.03-2.14-.2-.98-.25-2.06-.41-3.05-.11-1.62.49-2.07,1.95-2.6,3.37l2.74-.36c-9.56-12.76-11.17-29.6-21.05-42.2-.75-.96-2.19-.29-2.51.66-7.9,23.33-16.98,46.24-25.4,69.38-4.21,11.57-8.23,23.2-11.78,34.99-3.44,11.43-6.12,23.05-8.73,34.69-2.94,13.09-5.94,26.19-10.31,38.9-.63,1.83,2.27,2.62,2.89.8h0Z"/>
  <path class="trchry-2" d="M624.42,199.16c3.09,5.43,6.19,10.86,9.28,16.29.59,1.03,1.98.91,2.59,0,1.1-1.63,3.14-4.71,5.56-3.66,1.06.46,1.46,1.99,1.89,2.96.66,1.49,1.32,2.98,1.98,4.47,1.26,2.83,2.51,5.66,3.77,8.49,1.04,2.34,2.09,4.77,4.43,6.08.53.29,1.4.28,1.82-.23.46-.57.92-1.15,1.37-1.72h-2.12c2.1,2.37,4.73,3.68,7.92,3.63s6.34-.81,9.58-.59c1.93.13,1.92-2.87,0-3-2.96-.2-5.81.36-8.75.55-2.77.19-4.77-.61-6.63-2.71-.5-.56-1.64-.61-2.12,0-.46.57-.92,1.15-1.37,1.72l1.82-.23c-1.28-.72-1.96-1.97-2.57-3.26-.73-1.53-1.39-3.1-2.07-4.65-1.49-3.35-2.97-6.7-4.46-10.05-.58-1.3-1.1-2.66-2.25-3.57-1.03-.82-2.36-1.13-3.67-1-3.15.32-5.07,2.83-6.72,5.27h2.59c-3.09-5.43-6.19-10.86-9.28-16.29-.96-1.68-3.55-.17-2.59,1.51h0Z"/>
  <path class="trchry-2" d="M28.42,364.67c-1.49-5.01,2.2-10.97,7.46-11.67,3.26-.43,6.52.83,9.68-.56,2.42-1.07,3.91-3.35,4.33-5.92s.01-5.29-.91-7.71c-1.19-3.12-3.24-5.82-4.52-8.91-1.36-3.29-1.24-6.37.71-9.38,1.83-2.84,4.36-5.43,7-7.53,5-3.98,12.08-6.33,18.2-3.49,5.76,2.68,8.06,9.34,7.59,15.32-.29,3.74-1.59,7.38-3.24,10.73-1.3,2.65-4.19,6.03-2.72,9.15,1.29,2.74,4.44,2.58,6.85,3.6,2.28.96,3.52,3.27,4.21,5.52,1.03,3.33,1.11,6.84,1.32,10.3.28,4.48.56,8.97.85,13.45.59,9.3,1.17,18.6,1.76,27.9.12,1.92,3.12,1.93,3,0-.54-8.55-1.08-17.1-1.62-25.66-.27-4.32-.54-8.64-.82-12.95-.23-3.58-.31-7.2-.89-10.75-.46-2.76-1.31-5.57-3.07-7.79-1.87-2.36-4.29-2.96-7.04-3.78-1.54-.45-2.34-1.19-1.69-2.85.69-1.74,1.83-3.34,2.64-5.04,1.66-3.47,2.92-7.11,3.36-10.95.73-6.34-1.3-13.3-6.52-17.28-5.61-4.27-13.41-3.82-19.45-.76-3.05,1.55-5.77,3.76-8.14,6.22s-5,5.46-5.93,8.9c-1.94,7.2,4.33,12.36,5.88,18.83.55,2.29.71,5.34-1.05,7.17-2.39,2.48-6.61.92-9.61,1.18-5.8.52-10.34,5.6-10.93,11.28-.15,1.41.01,2.85.42,4.2.55,1.85,3.44,1.06,2.89-.8h0Z"/>
  <path class="trchry-2" d="M193.53,437.14c-1.12.68-2.43,1.42-3.77,1.44-1.74.03-1.76-1.66-1.56-2.99.56-3.7,1.4-7.3,1.29-11.07-.17-6.13-2.79-12.87-8.67-15.62s-12.89-.23-16.34,5.31c-3.21,5.13-4.91,12.21-3.54,18.17.35,1.54.96,3.07,1.82,4.4.92,1.43,2.37,2.5,3.22,3.97,1.71,2.98-3.1,4.29-5.13,4.71-.48.1-.95.57-1.05,1.05-2.06,9.85-2.4,19.9-1.05,29.86.11.81,1.14,1.23,1.85,1.05.87-.23,1.16-1.05,1.05-1.85-1.27-9.4-.89-18.99,1.05-28.27l-1.05,1.05c2.53-.52,5.46-1.53,6.94-3.81,1.8-2.78.08-5.47-1.85-7.57-4.4-4.79-3.66-11.6-1.55-17.3,1.13-3.04,2.82-6.14,5.74-7.77,2.63-1.46,6.01-1.6,8.72-.25,6.26,3.11,7.32,10.93,6.67,17.15-.23,2.15-.73,4.24-1.05,6.37-.26,1.71-.22,3.55.98,4.93,2.35,2.69,6.27,1.19,8.81-.36,1.65-1.01.14-3.6-1.51-2.59h0Z"/>
  <path class="trchry-2" d="M475.61,452.27c.07-7.52,2.08-15.55,8.25-20.41,5.23-4.11,12.98-4.66,17.77.48,5.92,6.35.16,15.01-.99,21.98-.28,1.71-.15,3.51,1.06,4.86.95,1.06,2.32,1.54,3.69,1.79,1.29.24,2.74.25,3.94.84,1.48.73,1.7,2.6,1.84,4.07.91,10.09,1.61,20.2,2.41,30.3.15,1.91,3.15,1.93,3,0-.78-9.82-1.55-19.63-2.34-29.45-.29-3.59-1.08-7.07-5-8.12-1.45-.39-3.06-.32-4.47-.89-1.86-.75-1.21-2.91-.8-4.43,1.16-4.21,2.88-8.31,3.21-12.71.3-3.92-.88-7.79-3.66-10.62-5.28-5.36-13.63-5.57-19.79-1.66-8.11,5.14-11.02,14.81-11.11,23.96-.02,1.93,2.98,1.93,3,0h0Z"/>
  <path class="trchry-2" d="M575.1,352.7c-.88-4.71-1.95-10.62,1.66-14.53,3.3-3.58,8.3-1.66,12.51-1.78s7.55-2.38,8.95-6.39c1.3-3.72.91-7.84.69-11.7-.48-8.45,1.29-18.66,10.02-22.34,3.85-1.62,8.28-1.72,12.22-.35s7.3,4.5,9.37,8.16c5.25,9.26,1.98,20.58-5.67,27.4-1.06.94-.13,2.45,1.06,2.56,2.93.27,5.08,2.85,6.05,5.45,1.23,3.27,1.32,6.9,1.65,10.34.72,7.61,1.44,15.23,2.16,22.84.18,1.91,3.18,1.92,3,0-.81-8.61-1.62-17.22-2.44-25.82-.35-3.65-.71-7.5-2.67-10.7-1.72-2.81-4.43-4.8-7.75-5.1l1.06,2.56c7.38-6.59,11.22-17.22,8.01-26.83-3.03-9.03-11.52-15.65-21.26-14.73-4.58.44-9.02,2.36-12.13,5.82s-4.84,8.29-5.45,13.04.13,9.2-.03,13.84c-.14,4.05-1.39,8.47-6.09,8.91-2.76.26-5.51-.48-8.27-.37s-5.25,1.05-7.11,3.06c-4.44,4.81-3.53,11.56-2.43,17.45.35,1.9,3.24,1.09,2.89-.8h0Z"/>
  <path class="trchry-2" d="M577.61,502.65l.7-10.91c.21-3.34.26-6.75.68-10.07.27-2.13.94-5.01,3.4-5.5,2.64-.53,5.31,1.02,8,.72s4.59-2.1,5.48-4.57c.97-2.69.45-5.54-.49-8.16-1.07-3-2.3-5.82-2.5-9.04-.18-2.94.26-5.95,1.5-8.63,2.3-4.97,7.38-8.56,12.94-8.51s9.85,3.9,11.93,8.65c2.43,5.57,1.25,12.07-1.63,17.23-1.38,2.47-3.96,4.91-3.97,7.91,0,1.31.56,2.45,1.44,3.39,1.12,1.19,2.1,1.93,2.54,3.59.4,1.5.38,3.08.36,4.63-.03,2.04-.1,4.08-.18,6.12-.16,4-.39,8-.71,11.99-.65,8.17-1.63,16.32-2.95,24.41-.31,1.89,2.58,2.7,2.89.8,1.23-7.55,2.19-15.14,2.86-22.77.33-3.74.58-7.49.77-11.25s.45-7.52.31-11.26c-.12-3.11-.91-5.72-3.22-7.88-1.26-1.18-1.31-2.09-.48-3.61s1.89-2.76,2.73-4.21c3.19-5.51,4.67-12.42,2.64-18.6-1.71-5.22-5.71-9.74-11-11.47-5.59-1.83-11.84.12-16.05,4.05-4.59,4.29-6.35,10.89-5.55,17.01.43,3.28,1.83,6.13,2.79,9.26.71,2.32,1.09,5.66-1.14,7.33-1.25.94-2.96.63-4.38.36-1.58-.3-3.18-.7-4.8-.54-3.13.3-5.11,2.63-5.96,5.51-1,3.37-.87,7.14-1.09,10.62-.28,4.46-.57,8.93-.85,13.39-.12,1.93,2.88,1.92,3,0h0Z"/>
  <path class="trchry-2" d="M121.54,250.71c10-11.83,20.52-23.21,31.53-34.11l-2.51-.66c3.29,12.57,15.05,21.92,28.01,22.42l-1.45-1.1c1.84,5.33,4.58,11.09,9.36,14.39,2.08,1.43,4.57,2.14,7.08,1.81,3.06-.4,5.39-2.27,7.84-3.98,2.71-1.9,5.58-2.94,8.71-1.31,2.81,1.47,4.9,4.19,6.57,6.82,4.27,6.7,7.72,14.08,11.27,21.18,14.73,29.39,27.07,59.88,39.86,90.14,1.75,4.14,3.51,8.27,5.28,12.4,1.67,3.89,3.13,8.04,5.28,11.71,1.64,2.8,4.06,5.23,7.4,5.68,2.82.37,5.81-.67,7.13-3.33l-2.74-1.16c-.49,3.6,2.21,5.61,5.52,6.13,4.06.64,7.89-.87,11.65-2.23,8.81-3.17,17.21-7.41,25.11-12.44,16.3-10.37,30.44-23.79,43.48-37.95,7.51-8.15,14.68-16.59,21.81-25.07l-2.56-1.06c.67,6.05,2.25,13.82,9.41,15.08,3.08.54,5.59-.95,7.64-3.12,2.88-3.05,5.63-6.23,8.44-9.35l-2.51-.66c2.51,8.98,8.76,16.61,17.1,20.8.59.3,1.34.27,1.82-.23,3.09-3.22,7.05-5.43,11.46-6.23,5.05-.92,10.19.31,15.22.84,7.07.75,16.18-.47,19.42-7.83l-2.74-.36c2.74,7.84,7.53,14.77,13.99,20,1.49,1.21,3.62-.9,2.12-2.12-6.05-4.91-10.64-11.32-13.22-18.68-.38-1.08-2.18-1.64-2.74-.36-3.65,8.29-14.54,6.66-21.69,5.73-4.49-.59-9.03-.88-13.43.44-4.01,1.2-7.61,3.44-10.51,6.45l1.82-.23c-7.67-3.85-13.4-10.73-15.72-19-.29-1.04-1.74-1.52-2.51-.66-2.04,2.26-4.07,4.52-6.11,6.78-1.66,1.84-3.64,4.89-6.41,4.94-6.13.11-7.35-7.68-7.85-12.21-.13-1.15-1.63-2.16-2.56-1.06-22.77,27.06-46.92,55.51-79.61,70.78-4.44,2.07-9.01,3.86-13.69,5.34-1.91.6-3.78,1.05-5.79.8-1.27-.16-3.7-.69-3.46-2.44.21-1.52-1.91-2.83-2.74-1.16-1.25,2.5-4.63,2.34-6.64.87-2.68-1.97-3.91-5.48-5.19-8.41-3.15-7.25-6.25-14.54-9.32-21.82-6.02-14.29-11.96-28.61-18.12-42.84s-12.62-28.52-19.56-42.49c-3.47-6.98-7.04-13.92-10.83-20.72-2.62-4.7-6.47-10.34-12.17-11.37-3.07-.55-5.88.56-8.38,2.28s-5.21,4.2-8.6,3.78c-6.22-.78-9.73-8.93-11.5-14.05-.22-.65-.75-1.07-1.45-1.1-11.65-.45-22.16-8.96-25.12-20.22-.29-1.1-1.71-1.45-2.51-.66-11,10.9-21.52,22.28-31.53,34.11-1.24,1.47.87,3.6,2.12,2.12h0Z"/>
</svg>