<svg id="violent" xmlns="http://www.w3.org/2000/svg" viewBox="0 0 694.31 696.31">
  <g id="lines_and_fire" data-name="lines and fire">
    <path class="vlnt-2" d="M348.15,6c46.19,0,91,9.05,133.18,26.89,40.74,17.23,77.33,41.9,108.76,73.33,31.42,31.42,56.1,68.02,73.33,108.76,17.84,42.18,26.89,86.99,26.89,133.18s-9.05,91-26.89,133.18c-17.23,40.74-41.9,77.33-73.33,108.76-31.42,31.42-68.02,56.1-108.76,73.33-42.18,17.84-86.99,26.89-133.18,26.89s-91-9.05-133.18-26.89c-40.74-17.23-77.33-41.9-108.76-73.33-31.42-31.42-56.1-68.02-73.33-108.76-17.84-42.18-26.89-86.99-26.89-133.18s9.05-91,26.89-133.18c17.23-40.74,41.9-77.33,73.33-108.76s68.02-56.1,108.76-73.33c42.18-17.84,86.99-26.89,133.18-26.89M348.15,2C156.98,2,2,156.98,2,348.15s154.98,346.15,346.15,346.15,346.15-154.98,346.15-346.15S539.33,2,348.15,2h0Z"/>
    <path class="vlnt-1" d="M91.88,578.98c18.95-6.44,17.46-28.87,16.73-33.43-.06-.46.33-.74.72-.51,5.32,2.99,32.65,21.22,30.79,36.06-1.2,9.34-5.67,10.61-9.19,10.02-.62-.1-.67.91-.06,1.24,5.93,3.33,24.45,2.17,33.54-11.84,13.04-19.72,39.84-24.79,41.02-25.19.02,0,.04-.01.06-.01.68-.08,12.17-2.26,13.39-22.73,1.13-18.59,24.84-38.42,29.61-42.58.37-.3.82.06.82.66.04,5.97,1.26,30.17,19.05,47.03,20.41,19.32,13.49,65.52,13.46,65.42.02-.07-4.02,19.74,24.38,33.41,27.89,13.01,31.29-23.02,31.4-24.38,0-.04,0-.07.01-.1.21-1.29,4.46-24.38,26.43-37.1,20.2-11.82,13.04-57.74,11.36-67.36-.12-.69.35-1.27.78-.96,6.28,4.81,37.76,28.37,41.36,48.64,3.98,22.69,3.3,49.07,26.05,57.49,20.81,7.56,29.11,25.55,30.37,28.6.11.26.33.37.56.29,2.88-.94,20.81-9.05,28.12-32.53,7.97-25.23-2.3-27.1,12.36-40.81,12.33-11.43,14.03-28.44,14.26-33.6.03-.59.59-.91.93-.53,4.61,5.61,24.95,27.44,21.07,45.36-4.1,21.86,51.42-.5,51.22-1.02"/>
  </g>
  <path class="vlnt-1" d="M451.58,244.41c1.49,31.27-10.78,67.62-34,86.19-45.01,37-129.69,30.91-158.88-23.64-15.37-27.48-16.9-61.92-10.5-92.73,8.46-46.47,42.88-99.7,68.69-132.32,7.3-8.92,14.76-19.55,24.5-24.94,8.4-3.73,13.59.29,20.9,7.05,6.38,6.25,14.19,15.86,23.34,27.86,30.85,39.81,65.63,98.83,65.94,152.29v.24Z"/>
  <path class="vlnt-2" d="M17.72,447.38c19.78,8.3,41.62,11.19,62.88,8.17,21.86-3.11,42.52-13,64.78-13.56s41.39,11.12,62.96,12.59c21.05,1.43,41.58-5.01,61.88-9.58,10.6-2.39,21.37-4.36,32.27-4.49,11.45-.13,22.68,2.12,33.86,4.38s21.77,4.34,32.89,4.39,21.18-1.51,31.59-3.5c21.36-4.09,42.8-10.32,64.77-8.66,21.88,1.65,42.26,11.05,63.95,13.85,22.13,2.86,43.81-2.79,65.08-8.24,22.63-5.8,45.39-10.04,68.86-9.25,5.76.19,11.5.67,17.22,1.34,1.91.23,1.9-2.78,0-3-22.64-2.66-45.3-1.3-67.58,3.39-22.14,4.67-43.85,12.55-66.63,13.5s-43.07-7.5-64.64-12.13c-10.43-2.24-20.94-3.18-31.6-2.45s-20.7,2.65-30.9,4.77c-22.21,4.62-44.08,9.48-66.84,5.96-11.12-1.72-22.03-4.53-33.17-6.13-10.43-1.49-20.78-1.51-31.22-.11-21.14,2.84-41.42,10.3-62.66,12.53-10.69,1.12-21.27.6-31.73-1.95s-20.76-6.52-31.44-8.67c-21.49-4.33-41.86,2.32-62.45,7.8-21.91,5.83-43.97,7.35-66.06,1.4-5.2-1.4-10.28-3.18-15.25-5.26-1.78-.75-2.55,2.16-.8,2.89h0Z"/>
  <path class="vlnt-2" d="M252.73,508.59c26.16-.71,51.08-9.43,76.59-14.24,12.92-2.43,26-3.67,39.13-2.58s25.9,4.13,38.57,7.42c12.77,3.32,25.48,6.96,38.45,9.39s26.04,3.3,39.22,2.62c26.99-1.39,53.43-7.9,80.43-9.18,13.65-.64,26.91.67,40.35,3,12.86,2.23,26.04,4.77,39.13,3.08,3.15-.41,6.24-1.05,9.29-1.95,1.85-.55,1.06-3.44-.8-2.89-13.03,3.87-26.64,2.28-39.82.08s-26.18-4.54-39.59-4.53c-26.94.02-53.31,6.36-80.05,8.75-13.41,1.2-26.89,1.3-40.24-.67s-25.35-5.24-37.85-8.55c-12.59-3.34-25.22-6.69-38.13-8.54s-25.44-1.82-38.19-.09c-25.91,3.51-50.75,12.74-76.82,15.27-3.22.31-6.45.51-9.69.6-1.93.05-1.93,3.05,0,3h0Z"/>
  <path class="vlnt-2" d="M46.58,515.05c10.35,4.75,21.87,4.67,32.97,3.39,12.2-1.41,24.35-3.59,36.37-6.11s24.11-5.89,36.2-8.73,23.96-4.53,36.25-3.56c13.82,1.08,27.28,4.63,40.93,6.8,1.89.3,2.7-2.59.8-2.89-12.13-1.93-24.08-4.88-36.28-6.36-6-.73-12.05-1.07-18.09-.74s-11.98,1.23-17.87,2.42c-12.04,2.44-23.84,5.96-35.83,8.66s-24.4,4.99-36.72,6.75c-12.27,1.76-25.61,3.1-37.22-2.23-1.74-.8-3.27,1.79-1.51,2.59h0Z"/>
  <path class="vlnt-2" d="M108.49,554.93c-10.95,2.37-22.11,3.42-33.16,1.07-1.88-.4-2.69,2.49-.8,2.89,11.6,2.46,23.27,1.42,34.76-1.07,1.89-.41,1.09-3.3-.8-2.89h0Z"/>
  <path class="vlnt-2" d="M213.18,546.58c-23.65-2.83-47.63-3.54-71.23.13-6.79,1.06-13.5,2.53-20.15,4.24-1.87.48-1.08,3.37.8,2.89,11.58-2.97,23.29-5.04,35.21-5.98,11.78-.92,23.62-.87,35.41-.13,6.67.42,13.33,1.05,19.97,1.85,1.91.23,1.9-2.77,0-3h0Z"/>
  <path class="vlnt-2" d="M367.37,572.19c-22.75-1.54-45.24-5.47-67.58-9.88-6.36-1.26-12.71-2.55-19.06-3.85-1.88-.38-2.69,2.51-.8,2.89,22.59,4.61,45.21,9.23,68.11,12,6.42.78,12.86,1.4,19.32,1.84,1.93.13,1.92-2.87,0-3h0Z"/>
  <path class="vlnt-2" d="M526.66,542.03c-28.1,6.61-55.18,16.87-83.23,23.68-7.81,1.9-15.68,3.52-23.62,4.73-1.9.29-1.09,3.18.8,2.89,28.48-4.34,55.71-14.02,83.26-22.09,7.81-2.29,15.67-4.45,23.59-6.32,1.88-.44,1.08-3.34-.8-2.89h0Z"/>
  <path class="vlnt-2" d="M627.71,545.61c-1.47-1.53-3.04-2.48-5.14-2.78-2.61-.37-4.98-1.2-7.5-1.97-6.19-1.88-12.53-3.21-18.93-4.08-12.87-1.74-25.93-1.56-38.82-.15-7.29.8-14.54,1.98-21.73,3.43-1.89.38-1.09,3.27.8,2.89,24.39-4.92,50.05-6.75,74.33-.22,3.15.85,6.27,2.22,9.48,2.77.9.16,1.84.19,2.73.42,1.11.28,1.89.99,2.67,1.8,1.34,1.39,3.46-.73,2.12-2.12h0Z"/>
</svg>