
<svg id="wrathful" xmlns="http://www.w3.org/2000/svg" viewBox="0 0 694.31 696.31">
  <g id="lines_and_fire" data-name="lines and fire">
    <path class="wrth-2" d="M348.15,6c46.19,0,91,9.05,133.18,26.89,40.74,17.23,77.33,41.9,108.76,73.33,31.42,31.42,56.1,68.02,73.33,108.76,17.84,42.18,26.89,86.99,26.89,133.18s-9.05,91-26.89,133.18c-17.23,40.74-41.9,77.33-73.33,108.76-31.42,31.42-68.02,56.1-108.76,73.33-42.18,17.84-86.99,26.89-133.18,26.89s-91-9.05-133.18-26.89c-40.74-17.23-77.33-41.9-108.76-73.33-31.42-31.42-56.1-68.02-73.33-108.76-17.84-42.18-26.89-86.99-26.89-133.18s9.05-91,26.89-133.18c17.23-40.74,41.9-77.33,73.33-108.76s68.02-56.1,108.76-73.33c42.18-17.84,86.99-26.89,133.18-26.89M348.15,2C156.98,2,2,156.98,2,348.15s154.98,346.15,346.15,346.15,346.15-154.98,346.15-346.15S539.33,2,348.15,2h0Z"/>
    <path class="wrth-1" d="M91.88,578.98c18.95-6.44,17.46-28.87,16.73-33.43-.06-.46.33-.74.72-.51,5.32,2.99,32.65,21.22,30.79,36.06-1.2,9.34-5.67,10.61-9.19,10.02-.62-.1-.67.91-.06,1.24,5.93,3.33,24.45,2.17,33.54-11.84,13.04-19.72,39.84-24.79,41.02-25.19.02,0,.04-.01.06-.01.68-.08,12.17-2.26,13.39-22.73,1.13-18.59,24.84-38.42,29.61-42.58.37-.3.82.06.82.66.04,5.97,1.26,30.17,19.05,47.03,20.41,19.32,13.49,65.52,13.46,65.42.02-.07-4.02,19.74,24.38,33.41,27.89,13.01,31.29-23.02,31.4-24.38,0-.04,0-.07.01-.1.21-1.29,4.46-24.38,26.43-37.1,20.2-11.82,13.04-57.74,11.36-67.36-.12-.69.35-1.27.78-.96,6.28,4.81,37.76,28.37,41.36,48.64,3.98,22.69,3.3,49.07,26.05,57.49,20.81,7.56,29.11,25.55,30.37,28.6.11.26.33.37.56.29,2.88-.94,20.81-9.05,28.12-32.53,7.97-25.23-2.3-27.1,12.36-40.81,12.33-11.43,14.03-28.44,14.26-33.6.03-.59.59-.91.93-.53,4.61,5.61,24.95,27.44,21.07,45.36-4.1,21.86,51.42-.5,51.22-1.02"/>
  </g>
  <path class="wrth-2" d="M17.3,444.88c43.65-2.32,87.61-4.56,130.87-11.19,23.29-3.57,46.31-8.49,69.72-11.41,53.91-6.71,108.2-9.53,162.41-4.99,45.99,3.85,91.16,13.37,136.91,19.13,23.64,2.98,47.51,5.35,71.35,3.64,24.72-1.78,48.9-7.74,72.69-14.41,7.93-2.22,15.83-4.54,23.72-6.9,1.85-.55,1.06-3.45-.8-2.89-26.57,7.94-53.47,15.94-81.02,19.68-22.59,3.07-45.29,2.3-67.91-.04-45.68-4.72-90.6-14.42-136.23-19.41-29.53-3.23-59.24-4.67-88.94-4.05-26.83.56-53.63,2.89-80.3,5.84-24.62,2.72-48.8,7.28-73.19,11.42-37.76,6.41-76.14,8.89-114.33,11.17-8.32.5-16.63.96-24.95,1.4-1.92.1-1.93,3.1,0,3h0Z"/>
  <path class="wrth-2" d="M76.73,544.44c5.82-7.64,16.87-8.08,25.58-9.27,4.68-.64,10.62-1.05,14.14-4.59,3.72-3.73,2.99-9.59,1.09-14.02-2.18-5.07-6.19-9.63-5.65-15.48.51-5.48,4.33-10.08,8.91-12.81,4.93-2.94,11.22-4.59,16.96-4.56,5.26.03,9.9,2.41,13,6.67,7.86,10.85,3.03,24.46-3.38,34.69-.41.65-.17,1.7.54,2.05,5.57,2.74,11.58,1.49,17.48.9,4.74-.48,10.37-.36,13.65,3.62,1.23,1.49,3.34-.64,2.12-2.12-3.37-4.08-9-4.91-13.99-4.64-5.81.31-12.22,2.38-17.75-.35l.54,2.05c6.24-9.96,10.77-22.35,5.66-33.75-2.03-4.54-5.58-8.56-10.18-10.58-5.77-2.53-12.46-1.58-18.33.12s-11.1,4.58-14.65,9.42-4.61,10.5-2.65,15.93,6.22,9.85,6.3,15.68c.04,2.77-1.15,5.07-3.63,6.38-2.31,1.21-5.09,1.59-7.63,2-10.72,1.76-23.49,1.67-30.72,11.15-1.17,1.53,1.43,3.03,2.59,1.51h0Z"/>
  <path class="wrth-2" d="M274.96,515.42c6.21-3.52,13.58-3.03,20.46-3.63,3.34-.29,6.92-.67,9.96-2.18,1.5-.75,2.87-1.91,3.67-3.39.36-.67.63-1.39.76-2.13.06-.37.11-.76.1-1.14-.01-.26-.04-.52-.08-.77-.04.32-.05.36,0,.11.11-.64-.07-1.36-.69-1.69-3.49-1.86-5.26-5.66-6.22-9.33-1.04-3.96-1.11-8.2,0-12.15,1.94-7,8.09-13.01,15.54-13.58s14.14,4.26,15.5,11.46c.84,4.42-.19,9.02-.9,13.38-.61,3.76-1.64,8.35,1.07,11.55,3.05,3.59,8.08,3.23,12.29,2.81,4.99-.49,9.7.29,14.02,2.92,1.65,1.01,3.16-1.59,1.51-2.59-3.93-2.39-8.52-3.67-13.13-3.51-3.82.13-9.35,1.83-12.36-1.49-1.48-1.64-1.19-4.1-.94-6.12.3-2.46.79-4.89,1.15-7.33.67-4.58.99-9.35-.84-13.71-2.94-7.01-10.86-11.2-18.31-10.27-8.05,1.01-14.71,7.07-17.22,14.68-1.54,4.66-1.56,9.81-.35,14.55,1.14,4.47,3.43,9.08,7.66,11.33l-.69-1.69c-.11.63.03,1.21-.03,1.83-.07.73-.4,1.45-.85,2.03-.99,1.29-2.59,1.95-4.11,2.37-3.13.88-6.42,1.1-9.65,1.29-6.44.38-13.09.56-18.84,3.82-1.68.95-.17,3.54,1.51,2.59h0Z"/>
  <path class="wrth-2" d="M441.34,545.82c6.61-1.11,13.19-2.37,19.73-3.83,2.56-.57,5.19-1.27,7.29-2.92s3.13-3.9,3.28-6.47c.34-5.81-3.84-10.12-6.62-14.74-1.41-2.34-2.28-4.81-2.16-7.57.1-2.4.91-4.75,2.17-6.78,5.73-9.24,19.96-9.18,27.31-2.03,3.94,3.83,5,8.98,3.3,14.17-.9,2.74-2.35,5.27-3.85,7.72-1.39,2.26-3.91,4.99-3.65,7.83.3,3.27,3.77,3.87,6.44,3.83,3.66-.05,7.26-.77,10.89-1.21,5.6-.67,12.21-.55,16.07,4.22,1.21,1.5,3.33-.63,2.12-2.12-3.29-4.06-8.74-5.44-13.77-5.41-3.2.02-6.38.59-9.55,1.02-1.6.22-3.2.4-4.81.47-1.14.05-3.05.33-4.04-.45-1.05-.82.31-2.59.81-3.38.85-1.34,1.71-2.68,2.53-4.04,1.5-2.5,2.88-5.1,3.76-7.89,1.65-5.23.92-10.68-2.48-15.03-6.58-8.43-20.13-10.53-28.88-4.3-4.14,2.95-6.86,7.59-7.33,12.66-.55,5.93,2.93,10.28,5.98,14.95,1.64,2.5,3.15,5.53,2.69,8.62s-3.28,4.62-6.1,5.4c-3.4.95-6.91,1.57-10.37,2.26-3.85.77-7.71,1.47-11.57,2.12-1.9.32-1.09,3.21.8,2.89h0Z"/>
  <path class="wrth-2" d="M577.04,518.63c7.6-1.85,16.62-5.02,17.79-13.95.62-4.69-1.01-9.25-1.61-13.86-.55-4.23.23-8.29,3.04-11.61,2.56-3.02,6.29-5.16,10.31-5.23s7.36,1.91,9.77,4.83c2.33,2.81,3.64,6.72,2.86,10.35-.93,4.31-3.99,7.75-5.92,11.61-1.05,2.09-2.12,4.62-1.85,7s2.3,3.84,4.64,4.14c4.77.61,11.56-3.1,15.4,1.14,1.3,1.44,3.41-.69,2.12-2.12-3.41-3.78-8.67-2.85-13.13-2.19-1.46.21-5.61,1.05-6.04-1.17-.39-2.03,1.05-4.6,1.99-6.31,2.13-3.86,5.08-7.5,5.81-11.97.64-3.93-.43-7.99-2.7-11.24s-5.61-5.8-9.49-6.7-8.17-.05-11.61,2.07-6.27,5.54-7.6,9.46c-1.49,4.43-.5,9.05.37,13.49.98,4.97,1.56,10.24-2.51,14.01-3.34,3.09-8.13,4.29-12.44,5.34-1.88.46-1.08,3.35.8,2.89h0Z"/>
  <path class="wrth-2" d="M180.51,470.21c4.61-.78,9.21-1.65,13.77-2.68,3.4-.76,6.99-2.24,7.6-6.11.65-4.06-1.89-7.3-4-10.48s-2.76-6.56-.85-10c3.71-6.68,13.73-6.72,18.78-1.64,2.73,2.75,3.13,6.36,1.8,9.92-.72,1.92-1.81,3.69-2.9,5.41-.95,1.52-2.37,3.2-2.09,5.12.31,2.13,2.34,2.86,4.25,2.93,2.53.09,5.06-.42,7.56-.75,4-.53,8.78-.71,11.6,2.72,1.23,1.49,3.34-.64,2.12-2.12-2.36-2.87-6.18-3.9-9.77-3.91-2.22,0-4.42.38-6.61.68-1.09.15-2.18.29-3.28.35-.54.03-2.39.32-2.81-.2s.67-1.79.95-2.23c.61-.96,1.22-1.91,1.79-2.89,1.01-1.73,1.93-3.55,2.48-5.48,1.05-3.67.43-7.46-1.92-10.49-4.61-5.91-13.88-7.48-20.21-3.48-3.16,2-5.32,5.34-5.8,9.05-.54,4.15,1.53,7.31,3.77,10.59,1.19,1.74,2.4,3.74,2.27,5.94s-1.97,3.22-3.9,3.77c-4.99,1.42-10.26,2.21-15.38,3.07-1.9.32-1.09,3.21.8,2.89h0Z"/>
  <path class="wrth-2" d="M414.33,476.89c6.54-1.37,15.84-3.63,17.18-11.45.7-4.09-.9-7.99-1.51-11.98-.58-3.75.49-7.06,3.25-9.69,5.46-5.22,14.46-5.3,19.51.52,2.11,2.43,3.09,5.69,1.96,8.78-1.33,3.64-4.39,6.35-6.06,9.82-.85,1.78-1.77,4.17-.78,6.08s3.19,2.39,5.13,2.44c4.17.11,10.36-2.53,13.87.8,1.4,1.33,3.53-.79,2.12-2.12-3.13-2.97-7.65-2.57-11.6-2.04-1.15.16-2.31.31-3.48.35-.91.03-2.2.12-3-.43-1.35-.93.41-3.83,1.01-4.85,1.98-3.35,4.91-6.23,5.93-10.09.88-3.33-.03-6.9-2.04-9.65-4.68-6.43-13.25-8.17-20.3-4.79-3.28,1.57-6.18,4.27-7.67,7.63-1.68,3.81-.92,7.73-.02,11.64.51,2.2,1.11,4.53.76,6.8-.31,2.01-1.45,3.69-3.03,4.93-3.37,2.64-7.96,3.56-12.05,4.41-1.89.39-1.09,3.29.8,2.89h0Z"/>
  <path class="wrth-2" d="M272,464.38c3.76-4.88,11.01-5.11,16.6-5.88,3.11-.43,6.8-.75,9.25-2.93s2.52-6.12,1.42-9.13c-1.21-3.33-4.03-6.3-4.07-9.98s2.26-6.74,5.16-8.61c3.05-1.96,6.9-3.04,10.51-3.21s6.58,1.05,8.78,3.81c5.49,6.88,2.13,16.04-1.99,22.65-.4.65-.18,1.71.54,2.05,3.68,1.77,7.53,1.12,11.43.7,3.11-.34,6.79-.4,8.98,2.2,1.24,1.48,3.36-.65,2.12-2.12-2.28-2.71-5.96-3.36-9.33-3.22-3.81.16-8.06,1.61-11.69-.15l.54,2.05c4.19-6.7,7.17-14.98,3.78-22.65-1.34-3.03-3.7-5.78-6.75-7.18-3.76-1.72-8-1.27-11.9-.26s-7.47,2.72-9.99,5.72-3.73,6.64-2.94,10.39,3.96,6.84,4.49,10.77c.24,1.79-.21,3.54-1.85,4.48-1.53.88-3.46,1.13-5.18,1.41-7.27,1.19-15.59,1.2-20.51,7.58-.5.65-.09,1.67.54,2.05.77.46,1.56.1,2.05-.54h0Z"/>
  <path class="wrth-2" d="M106.99,373.16c24.32.61,48.67.08,72.93-1.61,24.32-1.7,48.56-4.55,72.61-8.54,13.52-2.24,26.98-4.85,40.36-7.81l-1.9-1.45c-.49,10.16-1.96,20.26-4.48,30.11-2.08,8.16-5.09,16.57-11.24,22.6s-14.36,8.46-22.49,9.92c-9.55,1.71-19.3,2.51-28.93,3.65-20.91,2.47-41.82,4.94-62.73,7.41-9.96,1.18-20.32,3.07-30.34,1.56-8.44-1.27-15.97-5.43-22.07-11.32s-10.47-12.73-13.6-20.32c-3.3-8-5.47-16.41-7.68-24.75-.53-1.98-1.06-3.97-1.6-5.94l-1.85,1.85c7.45,2.54,15.1,4.58,23.02,4.64,1.93.02,1.93-2.98,0-3-7.66-.06-15.02-2.08-22.22-4.54-1.1-.37-2.14.79-1.85,1.85,2.39,8.6,4.44,17.31,7.41,25.74s6.65,15.6,12.16,22.19,12.31,11.86,20.33,14.72c9.62,3.43,20.01,2.47,29.94,1.31,21.64-2.53,43.27-5.11,64.9-7.66,10.32-1.22,20.68-2.28,30.97-3.71,8.45-1.17,17.2-2.99,24.37-7.88s11.76-12.8,14.54-21.1c3.2-9.53,4.93-19.66,5.9-29.64.25-2.56.43-5.12.55-7.69.05-1.02-.99-1.65-1.9-1.45-23.7,5.24-47.65,9.38-71.74,12.35s-48.27,4.79-72.5,5.46c-13.62.38-27.25.39-40.86.05-1.93-.05-1.93,2.95,0,3Z"/>
  <path class="wrth-2" d="M170.36,369.67c-3.47-4.1-4.62-9.57-6.56-14.45s-5-9.46-10.18-11.69-10.75-2.31-16.02-3.9-9.19-5.31-10.96-10.65c-4.2-12.64,2.93-25.09,4.04-37.6.14-1.62.12-3.3-.44-4.85-.59-1.64-1.65-3.06-2.6-4.5-2-3-4.07-5.97-5.99-9.02-1.77-2.8-3.23-5.75-3.66-9.07s.05-6.73.98-9.94c2.17-7.48,6.92-13.83,10.58-20.61s6.54-14.32,8.36-21.97l-2.74.36c1.34,2.25,1.82,4.85,1.27,7.42-.28,1.31,1.51,2.75,2.51,1.46,1.65-2.13,3.76-3.77,6.3-4.7l-1.85-1.85c-.96,3.28-2.44,6.32-4.39,9.13-.76,1.09.5,2.57,1.69,2.2,2.24-.68,4.51-1.08,6.85-1.2l-1.3-2.26c-1.7,3-5.17,4.39-7.76,6.49-3.45,2.79-4.82,7.18-6.54,11.11-1.97,4.51-3.94,9.02-5.91,13.54-.84,1.93-1.91,3.94-1.82,6.11.08,2.01,1.03,3.79,2.21,5.38,1.37,1.84,2.82,3.57,3.96,5.57,1.26,2.22,2.17,4.59,2.79,7.06.3,1.2,2.16,1.52,2.74.36,3.16-6.34.22-13.04.1-19.65-.06-3.26.84-6.41,3-8.92,1.02-1.18,2.21-2.16,3.58-2.9,1.47-.8,3.13-1.19,4.55-2.08,3.13-1.94,4.85-5.32,6.36-8.55l-2.74-.36c.78,3.36.46,6.9-.99,10.05l2.74,1.16c.15-.38,1.14.08,1.29.2.41.34.67.95.93,1.4.79,1.39,1.63,2.97,1.96,4.55s-.15,3.81-.55,5.55c-.5,2.12-.86,4.23-.79,6.42l.44-1.06c-1.09.93-2.35,1.45-3.76,1.7-.61.11-1.14.84-1.1,1.45.08,1.24,0,2.43-.26,3.64l1.45-1.1c-2.69-.03-5.29-.91-7.38-2.63-1.13-.93-2.86-.08-2.51,1.46,1.69,7.3,10.46,11.94,17.43,9.03l-1.69-.69c2.14,4.64,3.79,9.47,4.99,14.43.39,1.6,3.13,1.31,2.95-.4-.95-8.69,2.64-16.77,6.42-24.37.71-1.43-1.19-3.19-2.36-1.82l-.2.24c-1.24,1.46.86,3.59,2.12,2.12,3.64-4.21,7.27-8.43,10.91-12.64l-2.51-1.46-1.78,5.96c-.35,1.18,1.12,2.47,2.2,1.69,2.17-1.55,4.34-3.09,6.51-4.64l-2.05-2.05c-.71,1.54-1.41,3.08-2.12,4.62-.55,1.2.7,3.03,2.05,2.05,1.18-.85,2.64-1.17,4.01-.54v-2.59c-3.8,2.36-7.65,4.67-11.42,7.1-1.55,1-3.07,2.15-3.96,3.81-.99,1.85-1.13,3.96-1.38,6-1.12,9.11-2.93,18.14-5.33,27l1.85-1.05c-5.4-1.36-9.69-6.16-10.22-11.75-.15-1.65-2.41-2.08-2.95-.4-1.92,6-3.7,12.05-5.31,18.15-.81,3.06-1.82,6.19-2.3,9.32-.44,2.85.89,4.8,3.06,6.5,4.37,3.42,7.29,7.85,10.09,12.57,3.27,5.53,6.48,11.1,9.62,16.71,3.51,6.26,6.93,12.56,10.28,18.9.9,1.71,3.49.19,2.59-1.51-5.78-10.95-11.8-21.78-18.05-32.47-2.74-4.68-5.4-9.56-9.19-13.49-.86-.89-1.78-1.71-2.76-2.47-.9-.71-2.15-1.48-2.6-2.59-.5-1.24.18-2.87.48-4.08.39-1.57.78-3.14,1.19-4.7,1.75-6.73,3.69-13.4,5.8-20.02l-2.95-.4c.65,6.91,5.64,12.94,12.42,14.65.78.2,1.63-.25,1.85-1.05,2.27-8.36,3.98-16.85,5.13-25.43.27-1.99.31-4.14.95-6.05.6-1.78,2.03-2.79,3.55-3.76,3.67-2.32,7.38-4.59,11.08-6.88.88-.55,1.07-2.1,0-2.59-2.3-1.06-4.94-.98-7.04.54l2.05,2.05c.71-1.54,1.41-3.08,2.12-4.62.55-1.21-.7-3.02-2.05-2.05-2.17,1.55-4.34,3.09-6.51,4.64l2.2,1.69,1.78-5.96c.41-1.38-1.51-2.61-2.51-1.46-3.64,4.21-7.27,8.43-10.91,12.64l2.12,2.12.2-.24-2.36-1.82c-4,8.04-7.84,16.69-6.83,25.89l2.95-.4c-1.26-5.22-3.04-10.27-5.29-15.15-.25-.54-1.13-.92-1.69-.69-5.5,2.3-12.38-1.07-13.74-6.94l-2.51,1.46c2.72,2.23,5.97,3.47,9.5,3.51.63,0,1.31-.47,1.45-1.1.32-1.47.46-2.94.37-4.44l-1.1,1.45c1.77-.32,3.6-1.09,4.92-2.34.76-.72.56-1.57.59-2.52.03-.88.14-1.75.32-2.61.58-2.88,1.63-5.98.9-8.93-.57-2.32-1.81-4.99-3.35-6.83-1.83-2.19-5.51-1.99-6.59.79-.61,1.57,2.03,2.7,2.74,1.16,1.8-3.91,2.27-8.16,1.29-12.36-.28-1.19-2.19-1.54-2.74-.36-1.29,2.77-2.7,5.95-5.44,7.57-1.44.85-3.1,1.25-4.56,2.07-1.35.75-2.6,1.74-3.65,2.87-2.19,2.34-3.65,5.3-4.08,8.48-.46,3.35.12,6.7.64,10.01.58,3.66,1.22,7.64-.5,11.1l2.74.36c-1.02-4.05-2.83-7.87-5.37-11.2-1.11-1.46-2.48-2.87-3.16-4.6-.79-2.03.18-3.93.99-5.78,1.91-4.36,3.81-8.72,5.72-13.08,1.62-3.72,2.9-8.27,6.1-10.96,2.9-2.44,6.54-3.87,8.49-7.31.54-.95-.13-2.31-1.3-2.26-2.6.13-5.16.55-7.65,1.3l1.69,2.2c2.09-3.01,3.66-6.33,4.69-9.84.3-1.03-.76-2.24-1.85-1.85-3.01,1.11-5.65,2.93-7.63,5.48l2.51,1.46c.71-3.36.19-6.77-1.57-9.73-.64-1.08-2.44-.92-2.74.36-1.66,6.96-4.12,13.7-7.42,20.05s-7.3,11.88-10.01,18.32-3.92,13.67-1.31,20.21c1.25,3.12,3.13,5.9,4.99,8.68.99,1.48,1.98,2.97,2.97,4.45s2.17,2.97,2.93,4.59.64,3.24.47,4.91c-.19,1.86-.54,3.7-.93,5.53-.74,3.48-1.71,6.9-2.54,10.36-1.48,6.13-2.45,12.35-1.29,18.62.98,5.28,3.55,10.33,8.03,13.46,4.8,3.35,10.85,3.7,16.39,4.91,3,.65,6.07,1.57,8.48,3.55,2.27,1.86,3.75,4.45,4.88,7.12,2.37,5.59,3.58,11.67,7.6,16.41,1.25,1.48,3.36-.66,2.12-2.12h0Z"/>
  <path class="wrth-2" d="M133.63,341.61l2.34,7.5c.73,2.34,1.72,4.73,2.15,7.15s-1.32,4.83-2.36,6.93c-1.17,2.34-2.33,4.69-3.5,7.03-.86,1.72,1.73,3.24,2.59,1.51,1.24-2.49,2.48-4.98,3.72-7.47,1.15-2.32,2.82-4.81,2.63-7.5s-1.33-5.24-2.11-7.74l-2.56-8.21c-.57-1.84-3.47-1.05-2.89.8h0Z"/>
  <path class="wrth-2" d="M153.46,347.39c.24,1.95.43,3.9.56,5.86.14,2.07.33,4.22.03,6.28-.27,1.86-.92,3.66-1.54,5.43-.7,2.04-1.4,4.07-2.11,6.11-.63,1.83,2.27,2.62,2.89.8,1.34-3.88,3.12-7.86,3.7-11.94s-.04-8.47-.54-12.54c-.1-.81-.62-1.49-1.5-1.5-.73,0-1.6.7-1.5,1.5h0Z"/>
  <path class="wrth-2" d="M92.02,290.78c1.2-2.56,1.91-5.22,2.11-8.04l-2.26,1.3c1.94.83,3.9,1.47,5.98,1.83,1.87.33,2.68-2.33.8-2.89l-5.62-1.68c-1.16-.35-2.51,1.13-1.69,2.2,3.62,4.76,5.15,11.58,4.48,17.47-.88,7.64-4.28,14.77-4.99,22.46-.66,7.17,1.22,14.05,6.64,19s12.27,7.96,19.37,7.37,13.37-4.91,15.6-11.61c.61-1.84-2.29-2.62-2.89-.8-1.78,5.35-7.2,8.94-12.71,9.41-6.65.56-13.34-2.58-18-7.21-11.1-11.03-1.04-26.45.03-39.14.52-6.22-1.12-13.46-4.93-18.48l-1.69,2.2,5.62,1.68.8-2.89c-1.81-.32-3.58-.8-5.27-1.53-1.07-.46-2.17.08-2.26,1.3-.16,2.27-.73,4.47-1.7,6.53-.82,1.74,1.77,3.26,2.59,1.51h0Z"/>
  <path class="wrth-2" d="M156.15,247.42c3.04-1.96,5.51-4.76,6.97-8.09l-2.74-1.16c-.35,2.04-.63,4.12-1.28,6.09-.06.18-.13.37-.19.55-.04.1-.25.62-.12.3-.18.41-.37.81-.58,1.21-.55,1.05-1.16,2.06-1.79,3.07-1.02,1.65,1.57,3.15,2.59,1.51,1.13-1.83,2.24-3.69,2.94-5.74s.96-4.13,1.32-6.2c.13-.74-.13-1.47-.87-1.77-.63-.25-1.57-.08-1.87.61-1.26,2.89-3.27,5.32-5.89,7.01-.68.44-.96,1.33-.54,2.05.4.68,1.37.98,2.05.54h0Z"/>
</svg>